<?xml version="1.0" encoding="UTF-8" standalone="no"?>
<svg
   id="svg"
   version="1.1"
   width="400"
   height="172.04301075268816"
   viewBox="0, 0, 400,172.04301075268816"
   sodipodi:docname="logo.svg"
   inkscape:version="1.1.2 (b8e25be833, 2022-02-05)"
   xmlns:inkscape="http://www.inkscape.org/namespaces/inkscape"
   xmlns:sodipodi="http://sodipodi.sourceforge.net/DTD/sodipodi-0.dtd"
   xmlns="http://www.w3.org/2000/svg"
   xmlns:svg="http://www.w3.org/2000/svg">
  <defs
     id="defs23" />
  <sodipodi:namedview
     id="namedview21"
     pagecolor="#ffffff"
     bordercolor="#666666"
     borderopacity="1.0"
     inkscape:pageshadow="2"
     inkscape:pageopacity="0.0"
     inkscape:pagecheckerboard="0"
     showgrid="false"
     inkscape:zoom="2.18875"
     inkscape:cx="205.82524"
     inkscape:cy="11.878926"
     inkscape:window-width="1920"
     inkscape:window-height="1137"
     inkscape:window-x="-8"
     inkscape:window-y="-8"
     inkscape:window-maximized="1"
     inkscape:current-layer="layer1" />
  <g
     id="svgg">
    <path
       id="path0"
       d="M74.880 1.232 C 74.763 1.349,74.667 1.585,74.667 1.755 C 74.667 1.938,74.541 2.065,74.357 2.065 C 73.675 2.065,73.634 2.325,73.634 6.644 C 73.634 11.210,73.654 11.355,74.260 11.355 L 74.677 11.355 74.629 13.462 L 74.581 15.570 73.602 15.621 C 72.682 15.669,72.620 15.700,72.570 16.137 C 72.519 16.573,72.452 16.607,71.484 16.688 C 70.515 16.769,70.448 16.803,70.398 17.239 C 70.348 17.676,70.286 17.707,69.366 17.755 C 68.441 17.804,68.384 17.832,68.333 18.280 L 68.278 18.753 66.848 18.753 C 65.371 18.753,65.129 18.854,65.006 19.527 C 64.965 19.751,64.783 19.890,64.482 19.924 C 64.126 19.966,64.009 20.083,63.967 20.441 C 63.926 20.801,63.809 20.915,63.441 20.958 C 63.067 21.001,62.968 21.101,62.968 21.436 C 62.968 21.690,62.847 21.898,62.667 21.953 C 62.070 22.138,61.849 22.321,61.796 22.674 C 61.765 22.883,61.592 23.055,61.383 23.086 C 61.031 23.139,60.847 23.360,60.663 23.957 C 60.607 24.137,60.400 24.258,60.146 24.258 C 59.811 24.258,59.710 24.358,59.667 24.731 C 59.625 25.103,59.511 25.216,59.140 25.259 C 58.766 25.302,58.667 25.403,58.667 25.737 C 58.667 25.991,58.546 26.199,58.366 26.254 C 57.769 26.439,57.547 26.622,57.495 26.975 C 57.464 27.184,57.291 27.356,57.082 27.387 C 56.729 27.440,56.546 27.661,56.362 28.258 C 56.306 28.438,56.099 28.559,55.845 28.559 C 55.510 28.559,55.409 28.659,55.366 29.032 C 55.324 29.404,55.210 29.517,54.839 29.560 C 54.475 29.602,54.366 29.706,54.366 30.012 C 54.366 30.231,54.249 30.506,54.108 30.624 C 53.966 30.741,53.849 31.102,53.849 31.424 C 53.849 31.833,53.758 32.039,53.548 32.104 C 52.952 32.288,52.737 32.470,52.643 32.870 C 52.585 33.117,52.382 33.317,52.129 33.376 C 51.873 33.437,51.673 33.636,51.613 33.892 C 51.552 34.149,51.353 34.348,51.097 34.409 C 50.840 34.469,50.641 34.668,50.581 34.925 C 50.520 35.181,50.321 35.380,50.065 35.441 C 49.806 35.502,49.609 35.701,49.547 35.962 C 49.492 36.198,49.298 36.413,49.111 36.448 C 48.634 36.536,48.373 36.785,48.311 37.210 C 48.279 37.435,48.094 37.616,47.834 37.677 C 47.571 37.738,47.373 37.935,47.312 38.194 C 47.251 38.453,47.052 38.649,46.789 38.710 C 46.409 38.800,46.360 38.910,46.314 39.781 C 46.266 40.694,46.235 40.756,45.799 40.807 C 45.435 40.849,45.316 40.971,45.247 41.375 C 45.176 41.784,45.053 41.908,44.644 41.978 C 44.151 42.063,44.127 42.108,44.078 43.044 C 44.030 43.964,43.999 44.025,43.562 44.075 C 43.126 44.126,43.091 44.193,43.011 45.154 C 42.934 46.075,42.881 46.190,42.495 46.280 C 42.082 46.376,42.063 46.440,42.015 47.867 C 41.966 49.343,41.962 49.355,41.499 49.409 L 41.032 49.462 40.946 52.893 L 40.860 56.323 40.301 56.467 C 39.870 56.579,39.742 56.705,39.742 57.016 C 39.742 57.324,39.623 57.443,39.238 57.520 C 38.845 57.599,38.722 57.726,38.679 58.101 C 38.636 58.477,38.523 58.592,38.161 58.634 C 37.803 58.675,37.686 58.793,37.645 59.150 C 37.595 59.584,37.526 59.618,36.559 59.699 C 35.592 59.780,35.524 59.814,35.473 60.248 C 35.432 60.605,35.315 60.722,34.957 60.764 C 34.524 60.814,34.489 60.882,34.409 61.849 C 34.327 62.823,34.296 62.885,33.849 62.936 L 33.376 62.991 33.376 64.516 L 33.376 66.042 32.903 66.096 C 32.455 66.148,32.427 66.203,32.379 67.138 C 32.338 67.909,32.253 68.166,31.991 68.306 C 31.688 68.468,31.656 68.679,31.656 70.532 L 31.656 72.579 31.183 72.634 L 30.710 72.688 30.624 76.638 L 30.538 80.587 30.114 80.687 C 29.851 80.749,29.652 80.946,29.591 81.204 C 29.530 81.463,29.332 81.659,29.069 81.721 C 28.697 81.808,28.635 81.935,28.559 82.758 C 28.489 83.523,28.410 83.708,28.129 83.759 C 27.515 83.871,27.355 84.146,27.355 85.085 C 27.355 85.954,27.332 86.001,26.882 86.053 C 26.435 86.105,26.406 86.161,26.357 87.086 C 26.309 88.006,26.278 88.068,25.842 88.118 C 25.478 88.161,25.359 88.283,25.290 88.688 C 25.222 89.093,25.103 89.216,24.741 89.258 C 24.384 89.299,24.267 89.417,24.225 89.774 C 24.184 90.136,24.068 90.249,23.692 90.292 C 23.318 90.335,23.190 90.458,23.112 90.851 C 23.036 91.230,22.914 91.355,22.621 91.355 C 22.109 91.355,22.022 91.631,22.022 93.250 C 22.022 94.596,22.020 94.601,21.548 94.655 C 21.175 94.698,21.064 94.811,21.020 95.189 L 20.965 95.669 22.561 95.620 C 24.105 95.572,24.161 95.556,24.258 95.140 C 24.332 94.825,24.473 94.710,24.782 94.710 L 25.204 94.710 25.204 102.968 L 25.204 111.226 24.731 111.280 C 24.358 111.323,24.258 111.424,24.258 111.759 C 24.258 112.013,24.137 112.220,23.957 112.276 C 23.357 112.461,23.139 112.644,23.085 113.007 C 23.052 113.228,22.905 113.376,22.719 113.376 C 22.248 113.376,22.049 113.728,21.989 114.664 C 21.942 115.404,21.881 115.526,21.512 115.612 C 21.249 115.674,21.050 115.870,20.989 116.129 C 20.928 116.388,20.730 116.584,20.467 116.646 C 20.126 116.726,20.026 116.878,19.957 117.425 C 19.893 117.930,19.783 118.120,19.527 118.167 C 18.913 118.280,18.753 118.554,18.753 119.494 C 18.753 120.362,18.729 120.410,18.280 120.462 C 17.810 120.516,17.806 120.528,17.720 122.057 C 17.638 123.529,17.615 123.603,17.204 123.699 L 16.774 123.800 16.688 126.882 L 16.602 129.963 16.172 130.064 C 15.761 130.160,15.738 130.234,15.656 131.706 C 15.573 133.192,15.554 133.249,15.140 133.308 C 14.495 133.398,14.457 133.559,14.454 136.215 L 14.452 138.667 14.025 138.667 C 13.539 138.667,13.448 138.910,13.378 140.380 C 13.338 141.224,13.290 141.329,12.903 141.419 C 12.492 141.515,12.469 141.589,12.387 143.061 C 12.302 144.590,12.297 144.603,11.828 144.657 C 11.378 144.708,11.355 144.756,11.355 145.625 C 11.355 146.227,11.267 146.612,11.097 146.753 C 10.955 146.870,10.839 147.115,10.839 147.295 C 10.839 147.476,10.703 147.666,10.538 147.717 C 9.941 147.901,9.727 148.082,9.632 148.483 C 9.573 148.732,9.371 148.929,9.112 148.990 C 8.455 149.145,8.356 152.018,9.002 152.180 C 10.045 152.442,10.652 152.178,10.907 151.355 C 10.984 151.106,11.207 151.054,12.198 151.054 C 13.378 151.054,13.397 151.046,13.451 150.581 C 13.502 150.134,13.564 150.103,14.538 150.022 C 15.517 149.940,15.573 149.911,15.625 149.452 C 15.673 149.040,15.749 148.977,16.141 149.022 C 16.597 149.075,16.603 149.092,16.652 150.569 L 16.701 152.062 16.222 152.117 L 15.742 152.172 15.742 154.323 L 15.742 156.473 17.247 156.523 C 18.551 156.566,18.753 156.613,18.753 156.876 C 18.753 157.388,19.127 157.591,20.066 157.591 C 20.920 157.591,20.969 157.616,21.021 158.065 L 21.075 158.538 22.667 158.587 L 24.258 158.637 24.258 159.146 L 24.258 159.656 25.806 159.656 C 27.307 159.656,27.355 159.668,27.355 160.052 C 27.355 160.719,27.673 160.860,29.174 160.860 L 30.581 160.860 30.684 161.376 L 30.787 161.892 33.096 161.892 C 34.989 161.892,35.422 161.939,35.503 162.151 C 35.583 162.360,35.990 162.409,37.661 162.409 L 39.719 162.409 39.774 162.882 L 39.828 163.355 43.054 163.402 L 46.280 163.448 46.280 163.961 L 46.280 164.473 50.054 164.473 L 53.828 164.473 53.882 165.032 L 53.935 165.591 72.564 165.635 C 90.196 165.677,91.198 165.663,91.286 165.377 C 91.547 164.535,91.390 164.564,96.105 164.473 L 100.559 164.387 100.645 153.462 L 100.731 142.538 101.196 142.484 C 101.653 142.431,101.661 142.449,101.712 143.516 C 101.761 144.552,101.785 144.605,102.226 144.656 C 102.584 144.697,102.701 144.814,102.742 145.172 C 102.784 145.529,102.901 145.647,103.258 145.688 C 103.616 145.729,103.733 145.846,103.775 146.204 C 103.816 146.564,103.932 146.679,104.301 146.721 C 104.660 146.762,104.774 146.869,104.774 147.160 C 104.774 147.650,105.081 147.957,105.571 147.957 C 105.863 147.957,105.969 148.071,106.010 148.430 C 106.062 148.877,106.118 148.906,107.043 148.955 C 107.964 149.003,108.025 149.033,108.075 149.471 C 108.127 149.914,108.179 149.938,109.204 149.987 C 110.267 150.037,110.280 150.044,110.280 150.542 L 110.280 151.047 113.933 151.093 C 117.432 151.138,117.590 151.154,117.651 151.484 C 117.792 152.247,117.860 152.258,122.323 152.258 C 126.786 152.258,126.853 152.247,126.994 151.484 C 127.052 151.168,127.229 151.133,129.120 151.054 L 131.183 150.968 131.236 150.503 C 131.287 150.066,131.348 150.035,132.269 149.987 C 133.194 149.938,133.250 149.910,133.302 149.462 C 133.353 149.013,133.402 148.989,134.257 148.989 C 135.188 148.989,135.570 148.785,135.570 148.288 C 135.570 148.107,135.757 147.963,136.074 147.899 C 136.467 147.821,136.590 147.693,136.633 147.319 C 136.676 146.942,136.788 146.827,137.153 146.785 C 137.590 146.735,137.621 146.673,137.669 145.760 C 137.715 144.888,137.764 144.778,138.144 144.689 C 138.409 144.627,138.606 144.431,138.668 144.167 C 138.724 143.931,138.917 143.716,139.104 143.681 C 139.787 143.555,139.871 143.326,139.871 141.586 C 139.871 139.926,139.878 139.895,140.387 139.467 L 140.903 139.033 140.903 135.774 C 140.903 133.087,140.858 132.478,140.645 132.301 C 140.503 132.183,140.387 131.951,140.387 131.785 C 140.387 131.619,140.271 131.387,140.129 131.269 C 139.908 131.085,139.871 130.113,139.871 124.473 C 139.871 118.833,139.908 117.861,140.129 117.677 C 140.312 117.526,140.387 117.124,140.387 116.298 C 140.387 115.422,140.451 115.109,140.645 115.035 C 140.864 114.951,140.903 114.348,140.903 111.080 C 140.903 107.879,140.947 107.189,141.159 107.013 C 141.374 106.834,141.422 105.915,141.460 101.271 L 141.505 95.742 141.970 95.688 C 142.407 95.638,142.438 95.576,142.486 94.656 C 142.533 93.760,142.574 93.672,142.968 93.617 C 143.610 93.527,143.650 93.362,143.653 90.817 C 143.656 88.377,143.605 88.193,142.882 88.059 C 142.561 88.000,142.538 87.859,142.538 86.022 C 142.538 84.184,142.561 84.043,142.882 83.984 C 143.643 83.843,143.656 83.766,143.656 79.463 C 143.656 75.622,143.676 75.355,143.966 75.355 C 144.684 75.355,144.688 75.300,144.688 66.409 C 144.688 57.517,144.684 57.462,143.966 57.462 C 143.681 57.462,143.656 57.246,143.653 54.753 C 143.650 51.831,143.617 51.678,142.968 51.587 C 142.553 51.529,142.535 51.472,142.452 49.978 C 142.367 48.449,142.360 48.429,141.901 48.376 C 141.464 48.326,141.433 48.264,141.385 47.351 C 141.338 46.475,141.291 46.370,140.903 46.279 L 140.473 46.178 140.426 43.574 L 140.378 40.970 140.856 40.915 L 141.333 40.860 141.333 39.320 C 141.333 37.818,141.322 37.776,140.903 37.678 C 140.637 37.616,140.453 37.437,140.420 37.210 C 140.348 36.713,140.069 36.512,139.361 36.444 C 138.890 36.399,138.745 36.297,138.666 35.957 C 138.570 35.544,138.506 35.525,137.076 35.477 L 135.587 35.428 135.535 34.446 C 135.486 33.504,135.463 33.461,134.968 33.376 C 134.501 33.297,134.443 33.215,134.366 32.515 C 134.288 31.820,134.231 31.736,133.796 31.687 C 133.100 31.607,133.181 30.737,133.892 30.655 C 134.344 30.603,134.366 30.558,134.366 29.661 C 134.366 28.915,134.428 28.701,134.667 28.627 C 135.373 28.409,135.485 28.249,135.570 27.344 C 135.645 26.534,135.708 26.410,136.086 26.322 C 136.474 26.232,136.521 26.127,136.567 25.251 C 136.616 24.338,136.647 24.276,137.084 24.226 L 137.548 24.172 137.634 18.839 L 137.720 13.505 138.194 13.451 L 138.667 13.396 138.667 11.709 C 138.667 9.960,138.750 9.735,139.441 9.608 C 139.727 9.556,139.794 9.387,139.838 8.602 C 139.872 8.005,139.983 7.607,140.139 7.519 C 140.498 7.319,140.504 1.516,140.146 1.219 C 139.593 0.760,136.695 1.059,136.635 1.581 C 136.593 1.938,136.476 2.056,136.119 2.097 C 135.757 2.139,135.639 2.262,135.570 2.667 C 135.486 3.160,135.437 3.187,134.458 3.269 C 133.543 3.346,133.423 3.400,133.334 3.779 C 133.272 4.042,133.076 4.240,132.817 4.301 C 132.559 4.362,132.362 4.561,132.300 4.823 C 132.244 5.058,132.051 5.273,131.863 5.308 C 131.381 5.397,131.097 5.670,131.097 6.043 C 131.097 6.244,130.975 6.366,130.774 6.366 C 130.401 6.366,130.129 6.650,130.039 7.132 C 130.004 7.320,129.789 7.513,129.554 7.569 C 129.292 7.630,129.093 7.828,129.032 8.086 C 128.972 8.342,128.773 8.542,128.516 8.602 C 128.260 8.663,128.061 8.862,128.000 9.118 C 127.939 9.375,127.740 9.574,127.484 9.634 C 127.225 9.695,127.028 9.894,126.966 10.156 C 126.911 10.392,126.718 10.606,126.530 10.640 C 126.345 10.674,126.039 10.840,125.849 11.011 C 125.660 11.181,125.351 11.348,125.161 11.382 C 124.872 11.434,124.809 11.601,124.766 12.421 C 124.718 13.340,124.687 13.401,124.250 13.452 C 123.814 13.502,123.780 13.569,123.699 14.537 C 123.617 15.524,123.591 15.572,123.097 15.656 C 122.686 15.726,122.569 15.842,122.525 16.224 C 122.441 16.956,120.548 16.877,120.462 16.137 C 120.412 15.700,120.351 15.669,119.430 15.621 C 118.244 15.559,117.820 14.776,118.860 14.568 C 119.263 14.487,119.386 14.362,119.429 13.985 C 119.472 13.606,119.584 13.494,119.957 13.451 C 120.414 13.398,120.430 13.362,120.430 12.368 L 120.430 11.340 119.097 11.391 C 117.784 11.440,117.763 11.448,117.709 11.914 L 117.655 12.387 111.828 12.387 L 106.001 12.387 105.947 12.860 C 105.896 13.306,105.834 13.338,104.860 13.419 C 103.891 13.500,103.825 13.534,103.774 13.972 C 103.721 14.434,103.707 14.439,102.244 14.488 C 100.732 14.539,100.644 14.580,100.405 15.355 C 100.265 15.807,97.068 15.807,96.928 15.355 C 96.705 14.631,96.563 14.537,95.606 14.486 C 94.705 14.438,94.642 14.406,94.591 13.970 C 94.541 13.533,94.479 13.502,93.559 13.454 C 92.639 13.406,92.577 13.375,92.527 12.938 L 92.473 12.473 90.377 12.425 L 88.280 12.377 88.226 11.909 C 88.188 11.583,88.060 11.425,87.803 11.388 C 87.600 11.359,87.298 11.185,87.131 11.001 C 86.965 10.817,86.652 10.667,86.436 10.667 C 86.137 10.667,86.032 10.555,85.990 10.194 C 85.938 9.746,85.882 9.718,84.955 9.669 L 83.974 9.618 83.922 8.638 C 83.873 7.699,83.849 7.654,83.356 7.569 C 82.947 7.499,82.824 7.376,82.753 6.966 C 82.684 6.563,82.565 6.440,82.203 6.398 C 81.846 6.357,81.729 6.239,81.688 5.882 C 81.647 5.524,81.529 5.407,81.172 5.366 C 80.814 5.325,80.697 5.207,80.656 4.850 C 80.614 4.492,80.497 4.375,80.139 4.334 C 79.782 4.292,79.665 4.175,79.623 3.818 C 79.581 3.457,79.458 3.337,79.055 3.268 C 78.646 3.198,78.522 3.075,78.452 2.665 C 78.383 2.262,78.264 2.139,77.902 2.097 C 77.545 2.056,77.428 1.938,77.387 1.581 C 77.326 1.051,75.338 0.774,74.880 1.232 M79.496 9.978 C 79.570 10.120,79.673 10.372,79.724 10.538 C 79.779 10.716,79.987 10.839,80.234 10.839 C 80.464 10.839,80.696 10.955,80.750 11.097 C 80.805 11.239,81.040 11.355,81.273 11.355 C 81.608 11.355,81.709 11.455,81.752 11.828 C 81.795 12.200,81.908 12.313,82.280 12.356 C 82.729 12.407,82.753 12.455,82.753 13.324 C 82.753 14.260,82.913 14.537,83.519 14.649 C 83.707 14.684,83.900 14.899,83.956 15.134 C 84.017 15.396,84.215 15.595,84.473 15.656 C 84.730 15.716,84.929 15.916,84.989 16.172 C 85.050 16.431,85.249 16.627,85.512 16.689 C 85.893 16.778,85.941 16.887,85.987 17.777 C 86.036 18.714,86.065 18.770,86.538 18.865 C 87.011 18.959,87.041 19.017,87.089 19.934 C 87.137 20.843,87.168 20.907,87.602 20.957 C 87.960 20.998,88.077 21.115,88.119 21.472 C 88.160 21.834,88.284 21.953,88.688 22.022 L 89.204 22.110 89.290 23.650 C 89.372 25.121,89.396 25.195,89.806 25.290 C 90.195 25.381,90.242 25.485,90.288 26.379 C 90.338 27.320,90.364 27.372,90.847 27.468 L 91.355 27.570 91.355 29.492 C 91.355 31.650,91.435 31.828,92.407 31.828 C 93.561 31.828,93.591 31.784,93.591 30.101 L 93.591 28.582 94.065 28.528 C 94.511 28.476,94.543 28.414,94.624 27.441 C 94.704 26.474,94.739 26.405,95.172 26.355 C 95.530 26.314,95.647 26.197,95.689 25.840 C 95.730 25.478,95.853 25.359,96.258 25.290 C 96.669 25.221,96.785 25.105,96.830 24.721 C 96.908 24.035,98.247 24.080,98.409 24.774 C 98.499 25.162,98.604 25.209,99.480 25.256 C 100.387 25.303,100.455 25.337,100.505 25.762 C 100.547 26.110,100.688 26.250,101.110 26.358 C 101.639 26.495,101.662 26.537,101.712 27.480 C 101.758 28.360,101.806 28.469,102.187 28.558 C 102.453 28.621,102.648 28.816,102.710 29.082 C 102.781 29.383,102.944 29.521,103.276 29.560 C 103.731 29.613,103.742 29.641,103.742 30.773 C 103.742 31.957,103.915 32.344,104.443 32.344 C 104.624 32.344,104.769 32.532,104.832 32.848 C 104.911 33.241,105.038 33.364,105.413 33.407 C 105.788 33.450,105.904 33.563,105.946 33.925 C 105.987 34.283,106.104 34.400,106.462 34.441 C 106.825 34.483,106.937 34.599,106.980 34.976 C 107.034 35.451,107.048 35.456,108.098 35.406 L 109.161 35.355 109.213 34.357 L 109.265 33.360 110.238 33.411 C 111.112 33.457,111.222 33.506,111.311 33.886 C 111.373 34.149,111.569 34.347,111.828 34.409 C 112.087 34.470,112.283 34.668,112.345 34.931 C 112.431 35.301,112.560 35.366,113.366 35.441 C 114.271 35.525,114.431 35.638,114.649 36.344 C 114.723 36.583,114.937 36.645,115.682 36.645 C 116.580 36.645,116.625 36.667,116.677 37.118 C 116.725 37.540,116.809 37.597,117.452 37.644 C 118.091 37.690,118.179 37.749,118.226 38.160 C 118.306 38.853,120.268 38.883,120.429 38.194 C 120.595 37.487,122.445 37.442,122.525 38.142 C 122.578 38.598,122.635 38.628,123.606 38.710 C 124.527 38.787,124.642 38.840,124.731 39.226 C 124.819 39.604,124.943 39.666,125.753 39.742 C 126.658 39.826,126.818 39.939,127.036 40.645 C 127.110 40.884,127.324 40.946,128.069 40.946 C 128.967 40.946,129.012 40.968,129.064 41.419 C 129.106 41.788,129.220 41.904,129.581 41.946 C 129.939 41.987,130.056 42.104,130.097 42.462 C 130.147 42.896,130.216 42.930,131.183 43.011 C 132.156 43.092,132.218 43.124,132.269 43.570 C 132.321 44.022,132.366 44.043,133.264 44.043 C 134.009 44.043,134.224 44.105,134.297 44.344 C 134.482 44.943,134.664 45.155,135.070 45.250 C 135.358 45.318,135.500 45.486,135.537 45.803 C 135.578 46.153,135.698 46.271,136.053 46.312 C 136.488 46.362,136.519 46.425,136.567 47.344 C 136.616 48.265,136.646 48.326,137.084 48.376 C 137.520 48.427,137.554 48.494,137.634 49.462 L 137.720 50.495 138.753 50.495 C 139.756 50.495,139.786 50.481,139.840 50.011 C 139.937 49.172,140.298 49.606,140.352 50.627 C 140.400 51.532,140.432 51.595,140.868 51.645 C 141.319 51.697,141.336 51.740,141.419 52.989 C 141.503 54.248,141.517 54.281,141.983 54.334 L 142.460 54.389 142.413 57.001 L 142.366 59.613 141.943 59.613 C 141.634 59.613,141.494 59.497,141.420 59.183 C 141.358 58.919,141.179 58.732,140.957 58.700 C 140.758 58.671,140.459 58.497,140.292 58.313 C 140.126 58.129,139.856 57.978,139.693 57.978 C 139.530 57.978,139.301 57.862,139.183 57.720 C 138.844 57.312,135.766 57.349,135.638 57.763 C 135.453 58.362,135.272 58.575,134.865 58.670 C 134.497 58.756,134.446 58.873,134.400 59.738 C 134.352 60.651,134.321 60.713,133.884 60.764 C 133.524 60.805,133.407 60.922,133.366 61.280 C 133.325 61.637,133.207 61.755,132.850 61.796 L 132.387 61.849 132.387 65.025 L 132.387 68.200 132.811 68.300 C 133.076 68.362,133.272 68.558,133.334 68.823 C 133.416 69.175,133.550 69.255,134.114 69.293 C 135.332 69.375,135.543 69.473,135.602 69.979 L 135.656 70.452 137.782 70.500 C 140.014 70.551,140.323 70.469,140.420 69.801 C 140.453 69.575,140.637 69.395,140.897 69.334 C 141.160 69.272,141.358 69.076,141.419 68.817 C 141.480 68.561,141.679 68.362,141.935 68.301 C 142.195 68.240,142.391 68.042,142.452 67.779 C 142.523 67.477,142.686 67.339,143.018 67.300 L 143.484 67.246 143.484 71.214 C 143.484 74.921,143.463 75.183,143.174 75.183 C 142.504 75.183,142.452 75.470,142.452 79.163 L 142.452 82.730 141.978 82.784 L 141.505 82.839 141.460 87.602 L 141.414 92.365 140.944 92.419 L 140.473 92.473 140.427 96.850 C 140.390 100.404,140.334 101.279,140.129 101.505 C 139.926 101.730,139.868 102.573,139.831 105.884 C 139.782 110.227,139.809 110.088,138.967 110.348 C 138.682 110.436,138.667 111.095,138.708 121.843 L 138.753 133.244 139.269 133.333 L 139.785 133.423 139.785 135.484 L 139.785 137.545 139.269 137.634 C 138.858 137.704,138.741 137.820,138.697 138.205 C 138.650 138.616,138.574 138.679,138.181 138.634 L 137.720 138.581 137.634 134.366 L 137.548 130.151 136.007 130.065 C 134.535 129.982,134.461 129.959,134.365 129.548 C 134.269 129.135,134.206 129.116,132.764 129.069 L 131.263 129.019 131.160 129.534 C 131.062 130.024,131.011 130.051,130.088 130.100 L 129.118 130.151 129.118 134.358 L 129.118 138.565 129.547 138.666 C 129.788 138.723,130.004 138.915,130.039 139.104 C 130.127 139.578,130.400 139.871,130.753 139.871 C 130.919 139.871,131.151 139.987,131.269 140.129 C 131.579 140.503,135.088 140.503,135.398 140.129 C 135.675 139.795,136.536 139.795,136.664 140.129 C 136.719 140.271,136.959 140.387,137.199 140.387 C 137.633 140.387,137.634 140.393,137.634 141.935 C 137.634 143.425,137.620 143.484,137.247 143.490 C 136.485 143.501,135.594 144.657,135.536 145.710 C 135.486 146.606,135.460 146.652,134.925 146.790 C 134.494 146.902,134.366 147.027,134.366 147.338 C 134.366 147.649,134.247 147.766,133.849 147.845 C 133.415 147.932,133.333 148.029,133.333 148.461 C 133.333 148.969,133.325 148.973,132.258 149.024 C 131.230 149.073,131.180 149.096,131.129 149.545 L 131.075 150.014 127.946 150.061 L 124.817 150.108 124.763 150.581 L 124.708 151.054 122.065 151.054 L 119.421 151.054 119.366 150.581 L 119.312 150.108 114.807 150.062 L 110.302 150.016 110.248 149.546 C 110.196 149.096,110.146 149.073,109.129 149.024 C 108.068 148.974,108.063 148.971,108.010 148.422 C 107.958 147.879,107.943 147.870,106.968 147.819 C 106.044 147.771,105.978 147.740,105.978 147.342 C 105.978 147.008,105.869 146.894,105.472 146.815 C 105.085 146.737,104.953 146.606,104.913 146.260 C 104.870 145.887,104.760 145.797,104.301 145.753 C 103.809 145.705,103.742 145.638,103.742 145.193 C 103.742 144.749,103.681 144.688,103.234 144.688 C 102.731 144.688,102.726 144.678,102.675 143.613 C 102.626 142.587,102.602 142.535,102.159 142.484 C 101.722 142.434,101.691 142.372,101.643 141.459 C 101.596 140.583,101.549 140.477,101.161 140.387 C 100.821 140.308,100.719 140.163,100.674 139.693 C 100.606 138.981,100.405 138.706,99.901 138.634 C 99.556 138.585,99.520 138.460,99.441 137.032 C 99.356 135.502,99.349 135.483,98.890 135.430 C 98.453 135.380,98.422 135.318,98.374 134.398 C 98.325 133.473,98.297 133.416,97.849 133.365 L 97.376 133.310 97.376 131.266 C 97.376 129.645,97.324 129.192,97.123 129.080 C 96.921 128.967,96.860 128.415,96.822 126.363 L 96.774 123.788 96.258 123.699 L 95.742 123.610 95.656 120.945 L 95.570 118.280 95.097 118.225 L 94.624 118.171 94.624 116.387 L 94.624 114.604 94.151 114.549 C 93.681 114.495,93.677 114.483,93.591 112.946 C 93.506 111.409,93.502 111.397,93.032 111.343 C 92.582 111.292,92.559 111.244,92.559 110.375 C 92.559 109.439,92.399 109.162,91.792 109.050 C 91.605 109.015,91.412 108.800,91.356 108.565 C 91.294 108.300,91.097 108.104,90.832 108.042 C 90.429 107.948,90.404 107.867,90.323 106.401 C 90.238 104.881,90.230 104.859,89.774 104.807 C 89.416 104.765,89.299 104.648,89.258 104.291 C 89.216 103.933,89.099 103.816,88.742 103.775 C 88.384 103.733,88.267 103.616,88.225 103.259 C 88.184 102.897,88.061 102.778,87.656 102.710 C 87.250 102.641,87.128 102.522,87.086 102.158 C 87.036 101.722,86.974 101.691,86.054 101.643 C 85.125 101.594,85.072 101.567,85.020 101.112 C 84.977 100.737,84.854 100.610,84.461 100.531 C 84.076 100.454,83.957 100.335,83.957 100.026 C 83.957 99.715,83.829 99.590,83.398 99.479 C 82.968 99.368,82.826 99.230,82.785 98.882 C 82.744 98.535,82.624 98.417,82.269 98.376 C 81.822 98.324,81.804 98.280,81.720 97.032 C 81.637 95.777,81.622 95.740,81.161 95.687 L 80.688 95.633 80.688 94.092 L 80.688 92.551 80.178 92.449 L 79.669 92.347 79.619 90.863 L 79.570 89.379 79.054 89.291 L 78.538 89.202 78.452 87.662 C 78.369 86.191,78.346 86.117,77.935 86.021 C 77.505 85.921,77.505 85.921,77.419 83.355 C 77.333 80.789,77.333 80.789,76.903 80.689 C 76.517 80.599,76.464 80.484,76.387 79.563 C 76.295 78.462,75.524 77.955,75.388 78.907 C 75.359 79.110,75.185 79.412,75.001 79.579 C 74.817 79.745,74.667 80.058,74.667 80.273 C 74.667 80.573,74.555 80.678,74.194 80.720 C 73.746 80.771,73.718 80.828,73.669 81.753 C 73.621 82.673,73.590 82.735,73.153 82.785 L 72.688 82.839 72.602 87.046 L 72.516 91.254 72.086 91.354 C 71.675 91.451,71.652 91.524,71.570 92.996 C 71.485 94.525,71.480 94.538,71.011 94.592 C 70.480 94.653,70.394 94.871,70.324 96.337 C 70.284 97.181,70.236 97.287,69.849 97.377 C 69.427 97.475,69.418 97.511,69.333 99.534 L 69.247 101.591 68.774 101.646 L 68.301 101.700 68.301 103.226 L 68.301 104.751 67.828 104.806 L 67.355 104.860 67.269 106.923 C 67.190 108.814,67.154 108.991,66.839 109.049 C 66.133 109.179,66.065 109.387,66.065 111.419 C 66.065 113.189,66.035 113.376,65.755 113.376 C 65.141 113.376,65.032 113.728,65.032 115.722 L 65.032 117.655 64.559 117.709 C 64.099 117.762,64.084 117.799,64.000 119.047 C 63.920 120.243,63.885 120.337,63.484 120.430 C 63.073 120.526,63.050 120.600,62.968 122.071 L 62.882 123.611 62.366 123.699 L 61.849 123.787 61.800 125.292 C 61.757 126.594,61.709 126.796,61.447 126.796 C 60.877 126.796,60.731 127.168,60.731 128.625 L 60.731 130.042 60.258 130.096 L 59.785 130.151 59.699 132.208 C 59.614 134.231,59.606 134.267,59.183 134.366 L 58.753 134.466 58.667 137.038 C 58.586 139.438,58.558 139.613,58.237 139.672 C 57.474 139.813,57.462 139.881,57.462 144.344 C 57.462 148.807,57.474 148.875,58.237 149.016 C 58.567 149.077,58.584 149.250,58.667 153.285 L 58.753 157.490 59.183 157.591 C 59.594 157.687,59.617 157.761,59.699 159.233 C 59.784 160.751,59.792 160.775,60.245 160.827 C 60.499 160.857,60.799 160.992,60.912 161.128 C 61.025 161.265,61.253 161.376,61.419 161.376 C 61.616 161.376,61.756 161.555,61.824 161.892 C 61.925 162.398,61.948 162.409,62.974 162.409 L 64.022 162.409 63.968 161.849 C 63.923 161.388,63.834 161.281,63.453 161.237 C 63.200 161.208,62.900 161.072,62.787 160.936 C 62.674 160.800,62.436 160.688,62.259 160.688 C 62.057 160.688,61.935 160.566,61.935 160.365 C 61.935 159.991,61.650 159.720,61.161 159.630 C 60.855 159.573,60.808 159.395,60.731 158.020 C 60.646 156.487,60.641 156.473,60.175 156.419 L 59.705 156.365 59.659 152.118 L 59.613 147.871 59.140 147.817 L 58.667 147.762 58.667 144.086 L 58.667 140.410 59.140 140.356 L 59.613 140.301 59.661 137.946 L 59.708 135.592 60.177 135.538 L 60.645 135.484 60.731 133.421 C 60.810 131.530,60.846 131.353,61.161 131.295 C 61.834 131.171,61.935 130.930,61.935 129.453 L 61.935 128.023 62.409 127.968 C 62.878 127.914,62.882 127.902,62.968 126.373 C 63.050 124.901,63.073 124.827,63.484 124.731 C 63.895 124.635,63.918 124.562,64.000 123.090 C 64.085 121.566,64.091 121.548,64.553 121.495 C 65.016 121.441,65.020 121.429,65.069 119.948 C 65.113 118.612,65.154 118.449,65.462 118.392 C 66.154 118.264,66.237 118.040,66.237 116.280 C 66.237 114.758,66.269 114.581,66.546 114.581 C 67.160 114.581,67.269 114.229,67.269 112.235 L 67.269 110.302 67.742 110.248 L 68.215 110.194 68.263 108.097 L 68.311 106.000 68.779 105.946 C 69.242 105.893,69.248 105.877,69.333 104.345 L 69.419 102.798 69.935 102.709 L 70.452 102.621 70.500 100.526 L 70.548 98.430 71.016 98.377 C 71.470 98.324,71.487 98.283,71.570 97.039 C 71.650 95.843,71.685 95.749,72.086 95.656 C 72.499 95.559,72.518 95.495,72.566 94.068 C 72.615 92.593,72.619 92.580,73.082 92.527 L 73.548 92.473 73.634 88.260 C 73.717 84.218,73.734 84.045,74.065 83.984 C 74.682 83.869,74.839 83.597,74.839 82.636 L 74.839 81.701 75.570 81.754 L 76.301 81.806 76.349 84.419 L 76.396 87.032 76.865 87.086 C 77.329 87.139,77.334 87.156,77.419 88.681 C 77.502 90.153,77.525 90.227,77.935 90.323 C 78.346 90.418,78.369 90.492,78.452 91.963 L 78.538 93.503 79.054 93.591 L 79.570 93.680 79.656 95.227 C 79.741 96.763,79.745 96.775,80.215 96.829 C 80.683 96.883,80.688 96.896,80.688 98.151 C 80.688 99.405,80.693 99.419,81.161 99.472 C 81.535 99.515,81.646 99.628,81.689 100.007 C 81.732 100.379,81.856 100.509,82.239 100.585 C 82.562 100.650,82.752 100.806,82.786 101.034 C 82.838 101.379,83.062 101.562,83.656 101.746 C 83.837 101.802,83.957 102.009,83.957 102.266 C 83.957 102.664,84.022 102.696,84.939 102.744 C 85.822 102.790,85.931 102.839,86.021 103.220 C 86.083 103.484,86.279 103.681,86.543 103.743 C 86.778 103.799,86.994 103.992,87.028 104.180 C 87.117 104.658,87.390 104.946,87.754 104.946 C 88.016 104.946,88.077 105.111,88.120 105.934 C 88.170 106.884,88.192 106.926,88.688 107.011 C 89.182 107.095,89.208 107.143,89.290 108.130 C 89.371 109.096,89.406 109.165,89.839 109.215 C 90.197 109.256,90.314 109.373,90.355 109.731 C 90.397 110.089,90.514 110.206,90.873 110.247 C 91.310 110.298,91.341 110.360,91.390 111.272 C 91.436 112.148,91.483 112.254,91.871 112.344 C 92.282 112.440,92.305 112.514,92.387 113.985 L 92.473 115.525 92.989 115.613 L 93.505 115.701 93.591 117.499 C 93.675 119.245,93.690 119.300,94.108 119.398 C 94.538 119.499,94.538 119.499,94.624 122.065 C 94.710 124.630,94.710 124.630,95.140 124.731 C 95.570 124.832,95.570 124.832,95.656 127.398 C 95.742 129.963,95.742 129.964,96.172 130.065 C 96.596 130.164,96.603 130.193,96.651 132.132 C 96.692 133.784,96.752 134.154,97.027 134.447 C 97.235 134.669,97.374 135.106,97.408 135.649 C 97.456 136.398,97.515 136.515,97.892 136.602 C 98.303 136.698,98.326 136.772,98.409 138.244 C 98.494 139.774,98.498 139.785,98.969 139.840 L 99.443 139.894 99.399 151.108 L 99.355 162.323 98.376 162.374 C 97.456 162.422,97.394 162.453,97.344 162.890 L 97.290 163.355 94.144 163.402 C 91.557 163.440,90.980 163.494,90.899 163.703 C 90.837 163.865,90.567 163.957,90.153 163.957 C 89.786 163.957,89.411 164.069,89.290 164.215 C 89.104 164.439,87.656 164.473,78.181 164.473 L 67.286 164.473 67.234 163.484 L 67.183 162.495 65.579 162.445 L 63.976 162.395 64.031 162.875 C 64.083 163.331,64.135 163.357,65.075 163.406 C 66.044 163.457,66.065 163.468,66.065 163.966 L 66.065 164.473 59.968 164.473 L 53.872 164.473 53.818 164.000 L 53.763 163.527 50.033 163.481 L 46.302 163.434 46.248 162.964 L 46.194 162.495 42.978 162.448 L 39.763 162.401 39.710 161.846 L 39.656 161.290 37.651 161.242 C 36.143 161.206,35.594 161.131,35.436 160.941 C 35.278 160.750,34.812 160.688,33.527 160.688 C 32.006 160.688,31.828 160.656,31.828 160.378 C 31.828 159.764,31.476 159.656,29.482 159.656 L 27.550 159.656 27.495 159.183 L 27.441 158.710 25.860 158.660 C 24.283 158.611,24.280 158.610,24.226 158.144 C 24.172 157.678,24.169 157.677,22.591 157.628 L 21.010 157.579 20.957 157.026 C 20.904 156.481,20.890 156.472,19.914 156.422 C 19.106 156.379,18.925 156.315,18.925 156.069 C 18.925 155.557,18.549 155.355,17.600 155.355 L 16.688 155.355 16.688 153.818 L 16.688 152.281 17.161 152.226 C 17.631 152.172,17.635 152.161,17.720 150.625 C 17.797 149.250,17.845 149.072,18.151 149.015 C 18.640 148.926,18.925 148.655,18.925 148.280 C 18.925 148.084,19.046 147.957,19.234 147.957 C 19.753 147.957,19.957 147.587,19.957 146.644 C 19.957 145.789,19.981 145.741,20.430 145.689 C 20.799 145.646,20.915 145.532,20.957 145.172 C 20.998 144.814,21.115 144.697,21.473 144.656 C 21.906 144.606,21.941 144.537,22.022 143.571 C 22.104 142.584,22.130 142.536,22.624 142.451 C 23.119 142.367,23.142 142.324,23.191 141.375 C 23.234 140.552,23.295 140.387,23.557 140.387 C 24.061 140.387,24.236 140.018,24.292 138.839 C 24.340 137.821,24.378 137.727,24.774 137.634 C 25.185 137.539,25.208 137.465,25.290 135.993 C 25.375 134.469,25.382 134.451,25.843 134.398 C 26.306 134.344,26.310 134.333,26.359 132.851 C 26.403 131.515,26.445 131.352,26.753 131.295 C 27.459 131.165,27.527 130.957,27.527 128.925 C 27.527 127.155,27.556 126.968,27.837 126.968 C 28.451 126.968,28.559 126.616,28.559 124.622 L 28.559 122.690 29.031 122.635 C 29.405 122.592,29.522 122.472,29.592 122.065 C 29.700 121.434,30.487 121.299,30.597 121.892 C 30.687 122.378,30.958 122.667,31.324 122.667 C 31.586 122.667,31.647 122.831,31.690 123.656 C 31.746 124.723,32.204 125.111,32.311 124.182 C 32.353 123.825,32.470 123.708,32.828 123.666 L 33.290 123.613 33.336 119.108 L 33.382 114.603 33.852 114.549 L 34.323 114.495 34.409 111.312 L 34.495 108.129 34.959 108.075 C 35.397 108.025,35.427 107.963,35.476 107.045 C 35.519 106.225,35.582 106.058,35.871 106.005 C 36.544 105.881,36.645 105.640,36.645 104.162 L 36.645 102.733 37.118 102.678 C 37.588 102.624,37.592 102.612,37.677 101.075 C 37.762 99.545,37.769 99.526,38.228 99.473 C 38.665 99.423,38.696 99.361,38.744 98.448 C 38.791 97.572,38.838 97.467,39.226 97.376 C 39.627 97.283,39.662 97.189,39.742 95.994 C 39.827 94.728,39.834 94.711,40.344 94.624 L 40.860 94.535 40.946 92.995 C 41.028 91.524,41.052 91.451,41.462 91.355 C 41.885 91.256,41.894 91.220,41.978 89.197 L 42.065 87.140 42.532 87.086 L 43.000 87.032 43.049 84.935 L 43.097 82.839 43.570 82.784 L 44.043 82.730 44.043 79.123 C 44.043 75.838,44.070 75.508,44.344 75.423 C 45.003 75.219,45.165 75.034,45.247 74.391 L 45.333 73.720 46.280 73.720 L 47.226 73.720 47.312 75.011 C 47.396 76.266,47.411 76.303,47.871 76.356 C 48.323 76.407,48.344 76.452,48.344 77.350 C 48.344 78.095,48.407 78.310,48.645 78.383 C 49.225 78.563,49.463 78.749,49.522 79.072 C 49.611 79.556,49.815 79.704,50.219 79.575 C 50.580 79.461,50.581 79.449,50.581 70.710 L 50.581 61.958 51.054 61.904 L 51.527 61.849 51.575 59.753 L 51.623 57.656 52.091 57.602 L 52.559 57.548 52.645 55.744 C 52.723 54.110,52.764 53.933,53.075 53.876 C 53.748 53.752,53.849 53.511,53.849 52.040 C 53.849 50.957,53.909 50.595,54.099 50.522 C 54.267 50.457,54.365 50.105,54.400 49.435 C 54.446 48.543,54.494 48.434,54.875 48.345 C 55.141 48.283,55.336 48.087,55.398 47.822 C 55.469 47.520,55.632 47.382,55.964 47.343 C 56.407 47.292,56.430 47.243,56.430 46.349 C 56.430 45.603,56.493 45.389,56.731 45.316 C 57.328 45.131,57.542 44.950,57.637 44.549 C 57.696 44.300,57.898 44.103,58.157 44.042 C 58.537 43.953,58.586 43.843,58.632 42.971 C 58.680 42.059,58.711 41.997,59.148 41.946 C 59.508 41.905,59.625 41.788,59.666 41.430 C 59.707 41.075,59.826 40.955,60.173 40.914 C 60.518 40.873,60.659 40.731,60.766 40.312 C 60.876 39.886,61.012 39.752,61.378 39.710 C 61.823 39.659,61.852 39.601,61.901 38.677 C 61.949 37.757,61.980 37.695,62.417 37.645 C 62.777 37.604,62.894 37.487,62.935 37.129 C 62.976 36.771,63.094 36.654,63.451 36.613 C 63.885 36.563,63.919 36.494,64.000 35.527 C 64.081 34.560,64.115 34.491,64.549 34.441 C 64.906 34.400,65.024 34.283,65.065 33.925 C 65.107 33.563,65.222 33.450,65.598 33.407 C 65.972 33.364,66.100 33.241,66.179 32.848 C 66.244 32.521,66.385 32.344,66.581 32.344 C 66.747 32.344,66.975 32.233,67.088 32.096 C 67.201 31.960,67.501 31.824,67.754 31.795 C 68.114 31.754,68.232 31.630,68.301 31.226 C 68.370 30.821,68.488 30.698,68.851 30.656 C 69.207 30.615,69.325 30.497,69.366 30.141 C 69.408 29.779,69.531 29.660,69.935 29.591 C 70.341 29.523,70.463 29.404,70.505 29.040 C 70.556 28.603,70.618 28.573,71.538 28.524 C 72.457 28.476,72.519 28.445,72.570 28.010 C 72.611 27.653,72.728 27.536,73.085 27.494 C 73.447 27.452,73.566 27.329,73.634 26.925 C 73.714 26.458,73.796 26.400,74.496 26.323 C 75.190 26.245,75.274 26.187,75.324 25.755 C 75.404 25.054,77.255 25.100,77.419 25.806 C 77.502 26.165,77.632 26.244,78.200 26.282 C 79.418 26.364,79.629 26.462,79.688 26.968 C 79.740 27.420,79.784 27.441,80.688 27.441 L 81.634 27.441 81.684 25.861 L 81.733 24.282 81.254 24.227 L 80.774 24.172 80.727 21.543 L 80.679 18.914 80.168 18.812 L 79.656 18.710 79.656 16.155 L 79.656 13.601 79.097 13.457 L 78.538 13.312 78.488 11.714 C 78.429 9.829,78.949 8.934,79.496 9.978 M137.548 11.003 C 137.548 12.229,137.530 12.290,137.118 12.387 L 136.688 12.488 136.602 17.204 L 136.516 21.920 136.086 22.021 C 135.708 22.109,135.645 22.233,135.570 23.043 C 135.485 23.948,135.373 24.108,134.667 24.326 C 134.428 24.400,134.366 24.614,134.366 25.360 C 134.366 26.257,134.344 26.302,133.892 26.354 C 133.446 26.406,133.414 26.467,133.333 27.441 L 133.247 28.473 132.309 28.473 C 131.459 28.473,131.361 28.434,131.273 28.059 C 131.177 27.653,130.964 27.472,130.366 27.287 C 130.097 27.204,130.065 26.925,130.065 24.698 L 130.065 22.203 130.624 22.059 L 131.183 21.915 131.269 19.868 C 131.353 17.856,131.362 17.819,131.785 17.721 C 132.173 17.630,132.220 17.525,132.266 16.649 C 132.315 15.736,132.346 15.674,132.782 15.624 C 133.219 15.573,133.253 15.506,133.333 14.538 C 133.414 13.570,133.448 13.502,133.882 13.452 C 134.239 13.411,134.357 13.293,134.398 12.937 C 134.440 12.574,134.563 12.456,134.968 12.387 C 135.433 12.308,135.489 12.229,135.536 11.589 C 135.582 10.956,135.643 10.867,136.095 10.777 C 136.484 10.699,136.602 10.581,136.602 10.270 C 136.602 9.758,136.753 9.607,137.197 9.670 C 137.515 9.716,137.548 9.843,137.548 11.003 M88.298 57.677 C 88.202 57.796,88.095 58.044,88.061 58.229 C 88.026 58.416,87.811 58.610,87.575 58.665 C 87.314 58.727,87.115 58.924,87.054 59.183 C 86.993 59.442,86.794 59.638,86.531 59.699 C 86.233 59.769,86.092 59.934,86.054 60.254 C 86.013 60.605,85.893 60.723,85.538 60.764 L 85.075 60.817 85.075 64.508 L 85.075 68.200 85.499 68.300 C 85.762 68.362,85.960 68.559,86.022 68.817 C 86.082 69.076,86.281 69.273,86.543 69.335 C 86.778 69.390,86.994 69.584,87.028 69.771 C 87.167 70.518,87.272 70.538,91.194 70.538 C 94.706 70.538,94.963 70.516,95.180 70.206 C 95.327 69.996,95.663 69.854,96.093 69.819 C 96.753 69.765,96.776 69.742,96.830 69.075 C 96.861 68.697,96.996 68.325,97.131 68.250 C 97.495 68.046,97.494 60.985,97.131 60.846 C 96.996 60.794,96.860 60.534,96.830 60.269 C 96.785 59.885,96.669 59.769,96.258 59.699 C 95.853 59.630,95.730 59.512,95.688 59.147 C 95.638 58.711,95.576 58.680,94.656 58.632 C 93.760 58.585,93.672 58.545,93.617 58.151 C 93.584 57.914,93.468 57.664,93.359 57.594 C 93.001 57.365,88.491 57.439,88.298 57.677 M139.840 60.268 C 139.871 60.534,140.006 60.794,140.141 60.846 C 140.454 60.966,140.478 62.506,140.171 62.761 C 140.053 62.859,139.688 62.965,139.361 62.997 C 138.891 63.042,138.745 63.144,138.666 63.484 C 138.517 64.119,137.741 64.094,137.667 63.451 C 137.626 63.094,137.508 62.976,137.151 62.935 C 136.422 62.851,136.431 60.847,137.161 60.763 C 137.522 60.721,137.634 60.616,137.634 60.318 C 137.634 59.453,139.741 59.405,139.840 60.268 M92.361 61.163 C 92.457 61.680,92.728 61.935,93.182 61.935 C 93.731 61.935,93.833 64.796,93.290 64.964 C 92.690 65.149,92.472 65.332,92.418 65.695 C 92.322 66.340,90.366 66.245,90.291 65.591 C 90.248 65.220,90.135 65.107,89.763 65.064 L 89.290 65.009 89.290 63.481 L 89.290 61.953 90.280 61.901 C 91.187 61.854,91.274 61.814,91.329 61.419 C 91.432 60.685,92.235 60.485,92.361 61.163 M161.586 70.645 C 160.533 71.177,160.287 71.740,160.446 73.257 C 160.646 75.164,160.554 96.661,160.329 100.711 L 160.138 104.132 160.633 104.626 C 161.973 105.966,163.734 105.341,164.158 103.373 C 164.423 102.144,164.625 99.342,164.635 96.747 L 164.645 94.311 165.325 93.005 C 167.634 88.569,171.055 86.096,173.118 87.371 C 174.128 87.995,174.170 88.214,174.298 93.505 C 174.525 102.915,175.431 106.283,177.641 105.925 C 179.157 105.679,179.758 104.609,179.381 102.826 C 178.953 100.799,178.597 97.820,178.401 94.624 C 177.930 86.920,177.951 87.070,177.021 85.035 C 175.539 81.788,169.801 82.119,166.141 85.662 C 165.497 86.286,164.877 86.796,164.764 86.796 C 164.466 86.796,164.419 84.372,164.632 80.000 C 165.015 72.182,164.100 69.375,161.586 70.645 M327.891 71.995 C 327.846 72.039,324.257 72.089,319.915 72.106 C 310.104 72.143,310.205 72.112,311.238 74.829 C 311.614 75.819,311.511 80.605,311.054 83.355 C 310.357 87.546,310.513 90.445,311.469 91.071 C 312.241 91.577,314.494 91.050,314.495 90.363 C 314.495 90.159,317.806 86.788,318.305 86.485 C 319.972 85.473,323.126 85.156,324.570 85.855 C 328.527 87.770,328.890 94.857,325.227 98.675 C 322.475 101.544,317.259 101.910,314.901 99.400 C 312.743 97.102,312.225 96.901,311.022 97.893 C 308.320 100.120,313.102 104.878,318.538 105.372 C 320.211 105.524,323.439 105.036,324.176 104.520 C 324.382 104.376,324.643 104.258,324.757 104.258 C 325.575 104.258,328.011 102.260,329.355 100.487 C 332.535 96.293,332.628 88.866,329.555 84.560 C 328.761 83.447,326.499 81.720,325.835 81.720 C 325.677 81.720,325.269 81.604,324.930 81.462 C 324.100 81.116,321.038 81.115,319.898 81.461 C 319.434 81.601,318.812 81.718,318.516 81.719 C 318.220 81.720,317.881 81.837,317.763 81.978 C 317.646 82.120,317.430 82.237,317.283 82.237 C 317.137 82.237,316.598 82.473,316.085 82.762 L 315.154 83.288 315.239 82.117 C 315.519 78.283,315.721 76.811,315.997 76.602 C 316.211 76.440,317.707 76.387,322.082 76.387 C 329.338 76.387,330.667 76.022,330.667 74.029 C 330.667 72.713,328.650 71.235,327.891 71.995 M294.882 72.699 C 293.982 73.407,288.688 78.751,288.688 78.951 C 288.688 79.025,288.493 79.311,288.255 79.586 C 287.731 80.191,286.661 81.966,285.918 83.461 C 285.618 84.065,285.302 84.701,285.214 84.873 C 285.127 85.046,284.905 85.704,284.721 86.336 C 284.536 86.967,284.315 87.716,284.228 88.000 C 283.730 89.639,283.502 93.056,283.716 95.696 C 284.280 102.661,287.856 106.467,293.849 106.483 C 294.559 106.485,295.449 106.406,295.828 106.307 C 296.206 106.209,296.830 106.061,297.214 105.979 C 304.079 104.508,307.084 93.064,302.004 87.738 C 299.592 85.209,294.198 84.188,291.228 85.698 C 290.858 85.886,289.509 86.360,289.333 86.363 C 288.806 86.373,290.175 83.318,291.308 81.954 C 291.712 81.468,293.022 80.132,294.219 78.986 C 297.764 75.590,298.661 74.237,298.017 73.260 C 297.144 71.937,296.089 71.748,294.882 72.699 M251.381 73.917 C 250.539 74.345,249.909 75.370,250.050 76.082 C 250.479 78.243,253.762 78.617,254.713 76.613 C 255.547 74.857,253.224 72.978,251.381 73.917 M239.927 80.839 C 239.876 80.922,239.489 81.077,239.067 81.183 C 238.645 81.289,238.252 81.454,238.194 81.548 C 238.135 81.643,237.901 81.720,237.673 81.720 C 237.445 81.720,237.005 81.828,236.694 81.959 C 236.102 82.208,235.105 82.487,233.814 82.763 C 233.392 82.854,232.970 83.004,232.876 83.098 C 232.782 83.192,232.587 83.269,232.443 83.269 C 231.081 83.269,228.455 85.466,227.814 87.141 C 226.499 90.577,228.071 93.425,231.656 94.102 C 232.034 94.174,232.562 94.320,232.828 94.428 C 233.095 94.536,233.531 94.624,233.798 94.624 C 237.171 94.624,240.444 98.090,238.709 99.825 C 237.044 101.489,231.340 101.410,229.118 99.690 C 227.906 98.752,227.431 98.720,226.495 99.512 C 225.519 100.337,225.462 101.956,226.376 102.850 C 227.033 103.492,228.194 104.258,228.513 104.259 C 228.633 104.260,228.947 104.373,229.211 104.511 C 232.474 106.212,239.140 105.381,241.583 102.968 C 245.350 99.246,242.805 92.911,236.817 91.105 C 236.249 90.934,235.591 90.719,235.355 90.627 C 235.118 90.535,234.477 90.395,233.931 90.317 C 232.071 90.052,231.405 89.694,231.586 89.058 C 231.787 88.353,232.810 87.391,233.892 86.892 C 234.366 86.673,234.958 86.388,235.209 86.258 C 235.460 86.128,235.822 86.022,236.013 86.022 C 236.203 86.022,236.578 85.913,236.846 85.780 C 237.367 85.522,238.831 85.129,239.398 85.096 C 239.645 85.081,239.754 85.196,239.785 85.505 C 239.905 86.695,240.240 87.797,240.600 88.186 C 241.996 89.693,244.293 87.991,243.813 85.805 C 243.705 85.309,243.565 84.339,243.503 83.650 C 243.441 82.961,243.324 82.357,243.244 82.307 C 243.163 82.257,243.097 82.073,243.097 81.898 C 243.097 81.048,240.362 80.135,239.927 80.839 M218.753 82.306 C 218.658 82.341,218.116 82.462,217.548 82.575 C 216.981 82.688,216.284 82.882,216.000 83.006 C 214.638 83.603,213.512 84.225,212.701 84.831 C 211.500 85.729,211.474 85.726,211.088 84.649 C 209.964 81.510,207.554 82.170,207.301 85.686 C 207.067 88.944,207.103 104.673,207.347 105.239 C 207.906 106.540,209.365 106.906,210.363 105.995 C 211.109 105.313,211.091 105.496,211.139 98.237 L 211.183 91.785 211.766 90.839 C 212.446 89.737,213.449 88.455,213.922 88.086 C 214.552 87.593,216.268 86.709,216.907 86.548 C 217.260 86.459,217.882 86.294,218.290 86.180 C 219.280 85.905,219.313 85.965,219.455 88.227 C 219.613 90.745,219.890 91.245,221.167 91.317 C 222.891 91.415,223.402 90.360,223.271 86.981 C 223.137 83.546,222.370 82.420,220.082 82.302 C 219.446 82.270,218.847 82.271,218.753 82.306 M192.172 82.877 C 191.935 82.919,191.668 83.025,191.578 83.111 C 191.489 83.198,191.271 83.269,191.094 83.269 C 190.918 83.269,190.333 83.470,189.795 83.716 C 183.026 86.811,181.210 97.886,186.631 103.007 C 187.496 103.823,189.380 104.946,189.886 104.946 C 190.065 104.946,190.305 105.041,190.421 105.156 C 190.690 105.425,194.267 105.446,194.603 105.180 C 194.733 105.078,195.084 104.948,195.384 104.892 C 198.755 104.254,201.992 98.889,201.993 93.937 C 201.995 86.332,197.999 81.831,192.172 82.877 M251.027 82.970 C 250.025 83.485,249.926 83.844,249.696 87.786 C 249.385 93.113,249.390 102.932,249.704 103.535 C 250.532 105.126,252.365 105.305,253.250 103.881 C 253.590 103.334,253.602 103.099,253.564 97.892 C 253.542 94.912,253.588 90.557,253.666 88.216 L 253.809 83.959 253.150 83.356 C 252.440 82.705,251.777 82.585,251.027 82.970 M267.785 83.016 C 267.406 83.152,266.996 83.265,266.872 83.266 C 264.751 83.291,260.909 87.589,260.128 90.810 C 258.843 96.116,259.315 99.828,261.630 102.610 C 262.614 103.792,264.753 105.007,266.667 105.472 C 268.816 105.994,270.733 106.113,272.086 105.809 C 272.465 105.724,273.161 105.569,273.634 105.465 C 274.108 105.361,274.629 105.202,274.793 105.111 C 274.958 105.021,275.178 104.946,275.283 104.946 C 276.349 104.946,279.715 102.567,280.107 101.537 C 281.029 99.113,278.902 97.467,277.149 99.248 C 275.967 100.449,274.876 100.926,271.914 101.537 C 269.310 102.074,266.089 101.190,264.154 99.406 C 263.254 98.577,263.311 98.362,264.579 97.792 C 265.112 97.552,266.052 97.122,266.667 96.836 C 268.153 96.144,268.654 95.918,269.677 95.481 C 276.573 92.537,278.022 91.315,278.022 88.443 C 278.022 86.623,276.461 83.957,275.396 83.957 C 275.307 83.957,274.991 83.844,274.693 83.705 C 274.180 83.466,273.488 83.271,271.914 82.921 C 270.857 82.686,268.555 82.738,267.785 83.016 M195.936 87.760 C 198.868 89.674,198.976 97.128,196.109 99.727 C 194.425 101.254,191.110 101.486,189.782 100.170 C 189.651 100.040,189.360 99.813,189.136 99.667 C 188.452 99.219,187.749 97.476,187.620 95.914 C 187.277 91.732,189.139 88.400,192.516 87.155 C 193.289 86.870,195.050 87.181,195.936 87.760 M272.225 87.361 C 272.338 87.450,272.640 87.572,272.896 87.634 C 275.936 88.359,274.778 89.395,267.097 92.819 C 266.813 92.945,266.077 93.276,265.462 93.554 C 262.756 94.775,262.751 94.774,263.380 92.903 C 264.245 90.332,265.725 88.286,267.130 87.718 C 267.396 87.610,267.884 87.415,268.215 87.284 C 268.885 87.018,271.861 87.075,272.225 87.361 M296.688 89.571 C 299.115 90.368,300.187 91.641,300.468 94.063 C 300.792 96.856,298.656 101.485,297.032 101.505 C 296.938 101.507,296.628 101.635,296.344 101.790 C 295.283 102.372,292.844 102.319,291.544 101.686 C 289.773 100.823,289.046 99.867,288.004 97.032 C 287.882 96.701,287.746 95.340,287.701 94.008 L 287.619 91.586 288.455 91.061 C 289.338 90.505,290.275 90.010,291.269 89.576 C 292.135 89.197,295.539 89.194,296.688 89.571 M113.583 130.271 C 113.469 130.385,113.376 130.613,113.376 130.779 C 113.376 131.024,113.195 131.089,112.387 131.131 L 111.398 131.183 111.312 132.208 C 111.235 133.129,111.182 133.244,110.796 133.334 L 110.366 133.435 110.366 136.610 L 110.366 139.785 110.829 139.838 C 111.241 139.886,111.299 139.974,111.345 140.613 L 111.398 141.333 115.355 141.333 L 119.312 141.333 119.365 140.871 C 119.407 140.513,119.524 140.396,119.881 140.355 L 120.344 140.301 120.344 136.868 L 120.344 133.435 119.914 133.334 C 119.525 133.243,119.479 133.138,119.432 132.245 C 119.383 131.304,119.356 131.252,118.873 131.155 C 118.553 131.091,118.366 130.947,118.366 130.766 C 118.366 130.167,118.002 130.065,115.871 130.065 C 114.481 130.065,113.721 130.133,113.583 130.271 "
       stroke="none"
       fill="#040506"
       fill-rule="evenodd" />
  </g>
  <g
     inkscape:groupmode="layer"
     id="layer1"
     inkscape:label="F.SilkS">
    <path
       id="path149"
       d="M0.000 86.022 L 0.000 172.043 200.000 172.043 L 400.000 172.043 400.000 86.022 L 400.000 0.000 200.000 0.000 L 0.000 0.000 0.000 86.022 M77.387 1.581 C 77.428 1.938,77.545 2.056,77.902 2.097 C 78.264 2.139,78.383 2.262,78.452 2.665 C 78.522 3.075,78.646 3.198,79.055 3.268 C 79.458 3.337,79.581 3.457,79.623 3.818 C 79.665 4.175,79.782 4.292,80.139 4.334 C 80.497 4.375,80.614 4.492,80.656 4.850 C 80.697 5.207,80.814 5.325,81.172 5.366 C 81.529 5.407,81.647 5.524,81.688 5.882 C 81.729 6.239,81.846 6.357,82.203 6.398 C 82.565 6.440,82.684 6.563,82.753 6.966 C 82.824 7.376,82.947 7.499,83.356 7.569 C 83.849 7.654,83.873 7.699,83.922 8.638 L 83.974 9.618 84.955 9.669 C 85.882 9.718,85.938 9.746,85.990 10.194 C 86.032 10.555,86.137 10.667,86.436 10.667 C 86.652 10.667,86.965 10.817,87.131 11.001 C 87.298 11.185,87.600 11.359,87.803 11.388 C 88.060 11.425,88.188 11.583,88.226 11.909 L 88.280 12.377 90.377 12.425 L 92.473 12.473 92.527 12.938 C 92.577 13.375,92.639 13.406,93.559 13.454 C 94.479 13.502,94.541 13.533,94.591 13.970 C 94.642 14.406,94.705 14.438,95.606 14.486 C 96.563 14.537,96.705 14.631,96.928 15.355 C 97.068 15.807,100.265 15.807,100.405 15.355 C 100.644 14.580,100.732 14.539,102.244 14.488 C 103.707 14.439,103.721 14.434,103.774 13.972 C 103.825 13.534,103.891 13.500,104.860 13.419 C 105.834 13.338,105.896 13.306,105.947 12.860 L 106.001 12.387 111.828 12.387 L 117.655 12.387 117.709 11.914 C 117.763 11.448,117.784 11.440,119.097 11.391 L 120.430 11.340 120.430 12.368 C 120.430 13.362,120.414 13.398,119.957 13.451 C 119.584 13.494,119.472 13.606,119.429 13.985 C 119.386 14.362,119.263 14.487,118.860 14.568 C 117.820 14.776,118.244 15.559,119.430 15.621 C 120.351 15.669,120.412 15.700,120.462 16.137 C 120.548 16.877,122.441 16.956,122.525 16.224 C 122.569 15.842,122.686 15.726,123.097 15.656 C 123.591 15.572,123.617 15.524,123.699 14.537 C 123.780 13.569,123.814 13.502,124.250 13.452 C 124.687 13.401,124.718 13.340,124.766 12.421 C 124.809 11.601,124.872 11.434,125.161 11.382 C 125.351 11.348,125.660 11.181,125.849 11.011 C 126.039 10.840,126.345 10.674,126.530 10.640 C 126.718 10.606,126.911 10.392,126.966 10.156 C 127.028 9.894,127.225 9.695,127.484 9.634 C 127.740 9.574,127.939 9.375,128.000 9.118 C 128.061 8.862,128.260 8.663,128.516 8.602 C 128.773 8.542,128.972 8.342,129.032 8.086 C 129.093 7.828,129.292 7.630,129.554 7.569 C 129.789 7.513,130.004 7.320,130.039 7.132 C 130.129 6.650,130.401 6.366,130.774 6.366 C 130.975 6.366,131.097 6.244,131.097 6.043 C 131.097 5.670,131.381 5.397,131.863 5.308 C 132.051 5.273,132.244 5.058,132.300 4.823 C 132.362 4.561,132.559 4.362,132.817 4.301 C 133.076 4.240,133.272 4.042,133.334 3.779 C 133.423 3.400,133.543 3.346,134.458 3.269 C 135.437 3.187,135.486 3.160,135.570 2.667 C 135.639 2.262,135.757 2.139,136.119 2.097 C 136.476 2.056,136.593 1.938,136.635 1.581 C 136.695 1.059,139.593 0.760,140.146 1.219 C 140.504 1.516,140.498 7.319,140.139 7.519 C 139.983 7.607,139.872 8.005,139.838 8.602 C 139.794 9.387,139.727 9.556,139.441 9.608 C 138.750 9.735,138.667 9.960,138.667 11.709 L 138.667 13.396 138.194 13.451 L 137.720 13.505 137.634 18.839 L 137.548 24.172 137.084 24.226 C 136.647 24.276,136.616 24.338,136.567 25.251 C 136.521 26.127,136.474 26.232,136.086 26.322 C 135.708 26.410,135.645 26.534,135.570 27.344 C 135.485 28.249,135.373 28.409,134.667 28.627 C 134.428 28.701,134.366 28.915,134.366 29.661 C 134.366 30.558,134.344 30.603,133.892 30.655 C 133.181 30.737,133.100 31.607,133.796 31.687 C 134.231 31.736,134.288 31.820,134.366 32.515 C 134.443 33.215,134.501 33.297,134.968 33.376 C 135.463 33.461,135.486 33.504,135.535 34.446 L 135.587 35.428 137.076 35.477 C 138.506 35.525,138.570 35.544,138.666 35.957 C 138.745 36.297,138.890 36.399,139.361 36.444 C 140.069 36.512,140.348 36.713,140.420 37.210 C 140.453 37.437,140.637 37.616,140.903 37.678 C 141.322 37.776,141.333 37.818,141.333 39.320 L 141.333 40.860 140.856 40.915 L 140.378 40.970 140.426 43.574 L 140.473 46.178 140.903 46.279 C 141.291 46.370,141.338 46.475,141.385 47.351 C 141.433 48.264,141.464 48.326,141.901 48.376 C 142.360 48.429,142.367 48.449,142.452 49.978 C 142.535 51.472,142.553 51.529,142.968 51.587 C 143.617 51.678,143.650 51.831,143.653 54.753 C 143.656 57.246,143.681 57.462,143.966 57.462 C 144.684 57.462,144.688 57.517,144.688 66.409 C 144.688 75.300,144.684 75.355,143.966 75.355 C 143.676 75.355,143.656 75.622,143.656 79.463 C 143.656 83.766,143.643 83.843,142.882 83.984 C 142.561 84.043,142.538 84.184,142.538 86.022 C 142.538 87.859,142.561 88.000,142.882 88.059 C 143.605 88.193,143.656 88.377,143.653 90.817 C 143.650 93.362,143.610 93.527,142.968 93.617 C 142.574 93.672,142.533 93.760,142.486 94.656 C 142.438 95.576,142.407 95.638,141.970 95.688 L 141.505 95.742 141.460 101.271 C 141.422 105.915,141.374 106.834,141.159 107.013 C 140.947 107.189,140.903 107.879,140.903 111.080 C 140.903 114.348,140.864 114.951,140.645 115.035 C 140.451 115.109,140.387 115.422,140.387 116.298 C 140.387 117.124,140.312 117.526,140.129 117.677 C 139.908 117.861,139.871 118.833,139.871 124.473 C 139.871 130.113,139.908 131.085,140.129 131.269 C 140.271 131.387,140.387 131.619,140.387 131.785 C 140.387 131.951,140.503 132.183,140.645 132.301 C 140.858 132.478,140.903 133.087,140.903 135.774 L 140.903 139.033 140.387 139.467 C 139.878 139.895,139.871 139.926,139.871 141.586 C 139.871 143.326,139.787 143.555,139.104 143.681 C 138.917 143.716,138.724 143.931,138.668 144.167 C 138.606 144.431,138.409 144.627,138.144 144.689 C 137.764 144.778,137.715 144.888,137.669 145.760 C 137.621 146.673,137.590 146.735,137.153 146.785 C 136.788 146.827,136.676 146.942,136.633 147.319 C 136.590 147.693,136.467 147.821,136.074 147.899 C 135.757 147.963,135.570 148.107,135.570 148.288 C 135.570 148.785,135.188 148.989,134.257 148.989 C 133.402 148.989,133.353 149.013,133.302 149.462 C 133.250 149.910,133.194 149.938,132.269 149.987 C 131.348 150.035,131.287 150.066,131.236 150.503 L 131.183 150.968 129.120 151.054 C 127.229 151.133,127.052 151.168,126.994 151.484 C 126.853 152.247,126.786 152.258,122.323 152.258 C 117.860 152.258,117.792 152.247,117.651 151.484 C 117.590 151.154,117.432 151.138,113.933 151.093 L 110.280 151.047 110.280 150.542 C 110.280 150.044,110.267 150.037,109.204 149.987 C 108.179 149.938,108.127 149.914,108.075 149.471 C 108.025 149.033,107.964 149.003,107.043 148.955 C 106.118 148.906,106.062 148.877,106.010 148.430 C 105.969 148.071,105.863 147.957,105.571 147.957 C 105.081 147.957,104.774 147.650,104.774 147.160 C 104.774 146.869,104.660 146.762,104.301 146.721 C 103.932 146.679,103.816 146.564,103.775 146.204 C 103.733 145.846,103.616 145.729,103.258 145.688 C 102.901 145.647,102.784 145.529,102.742 145.172 C 102.701 144.814,102.584 144.697,102.226 144.656 C 101.785 144.605,101.761 144.552,101.712 143.516 C 101.661 142.449,101.653 142.431,101.196 142.484 L 100.731 142.538 100.645 153.462 L 100.559 164.387 96.105 164.473 C 91.390 164.564,91.547 164.535,91.286 165.377 C 91.198 165.663,90.196 165.677,72.564 165.635 L 53.935 165.591 53.882 165.032 L 53.828 164.473 50.054 164.473 L 46.280 164.473 46.280 163.961 L 46.280 163.448 43.054 163.402 L 39.828 163.355 39.774 162.882 L 39.719 162.409 37.661 162.409 C 35.990 162.409,35.583 162.360,35.503 162.151 C 35.422 161.939,34.989 161.892,33.096 161.892 L 30.787 161.892 30.684 161.376 L 30.581 160.860 29.174 160.860 C 27.673 160.860,27.355 160.719,27.355 160.052 C 27.355 159.668,27.307 159.656,25.806 159.656 L 24.258 159.656 24.258 159.146 L 24.258 158.637 22.667 158.587 L 21.075 158.538 21.021 158.065 C 20.969 157.616,20.920 157.591,20.066 157.591 C 19.127 157.591,18.753 157.388,18.753 156.876 C 18.753 156.613,18.551 156.566,17.247 156.523 L 15.742 156.473 15.742 154.323 L 15.742 152.172 16.222 152.117 L 16.701 152.062 16.652 150.569 C 16.603 149.092,16.597 149.075,16.141 149.022 C 15.749 148.977,15.673 149.040,15.625 149.452 C 15.573 149.911,15.517 149.940,14.538 150.022 C 13.564 150.103,13.502 150.134,13.451 150.581 C 13.397 151.046,13.378 151.054,12.198 151.054 C 11.207 151.054,10.984 151.106,10.907 151.355 C 10.652 152.178,10.045 152.442,9.002 152.180 C 8.356 152.018,8.455 149.145,9.112 148.990 C 9.371 148.929,9.573 148.732,9.632 148.483 C 9.727 148.082,9.941 147.901,10.538 147.717 C 10.703 147.666,10.839 147.476,10.839 147.295 C 10.839 147.115,10.955 146.870,11.097 146.753 C 11.267 146.612,11.355 146.227,11.355 145.625 C 11.355 144.756,11.378 144.708,11.828 144.657 C 12.297 144.603,12.302 144.590,12.387 143.061 C 12.469 141.589,12.492 141.515,12.903 141.419 C 13.290 141.329,13.338 141.224,13.378 140.380 C 13.448 138.910,13.539 138.667,14.025 138.667 L 14.452 138.667 14.454 136.215 C 14.457 133.559,14.495 133.398,15.140 133.308 C 15.554 133.249,15.573 133.192,15.656 131.706 C 15.738 130.234,15.761 130.160,16.172 130.064 L 16.602 129.963 16.688 126.882 L 16.774 123.800 17.204 123.699 C 17.615 123.603,17.638 123.529,17.720 122.057 C 17.806 120.528,17.810 120.516,18.280 120.462 C 18.729 120.410,18.753 120.362,18.753 119.494 C 18.753 118.554,18.913 118.280,19.527 118.167 C 19.783 118.120,19.893 117.930,19.957 117.425 C 20.026 116.878,20.126 116.726,20.467 116.646 C 20.730 116.584,20.928 116.388,20.989 116.129 C 21.050 115.870,21.249 115.674,21.512 115.612 C 21.881 115.526,21.942 115.404,21.989 114.664 C 22.049 113.728,22.248 113.376,22.719 113.376 C 22.905 113.376,23.052 113.228,23.085 113.007 C 23.139 112.644,23.357 112.461,23.957 112.276 C 24.137 112.220,24.258 112.013,24.258 111.759 C 24.258 111.424,24.358 111.323,24.731 111.280 L 25.204 111.226 25.204 102.968 L 25.204 94.710 24.782 94.710 C 24.473 94.710,24.332 94.825,24.258 95.140 C 24.161 95.556,24.105 95.572,22.561 95.620 L 20.965 95.669 21.020 95.189 C 21.064 94.811,21.175 94.698,21.548 94.655 C 22.020 94.601,22.022 94.596,22.022 93.250 C 22.022 91.631,22.109 91.355,22.621 91.355 C 22.914 91.355,23.036 91.230,23.112 90.851 C 23.190 90.458,23.318 90.335,23.692 90.292 C 24.068 90.249,24.184 90.136,24.225 89.774 C 24.267 89.417,24.384 89.299,24.741 89.258 C 25.103 89.216,25.222 89.093,25.290 88.688 C 25.359 88.283,25.478 88.161,25.842 88.118 C 26.278 88.068,26.309 88.006,26.357 87.086 C 26.406 86.161,26.435 86.105,26.882 86.053 C 27.332 86.001,27.355 85.954,27.355 85.085 C 27.355 84.146,27.515 83.871,28.129 83.759 C 28.410 83.708,28.489 83.523,28.559 82.758 C 28.635 81.935,28.697 81.808,29.069 81.721 C 29.332 81.659,29.530 81.463,29.591 81.204 C 29.652 80.946,29.851 80.749,30.114 80.687 L 30.538 80.587 30.624 76.638 L 30.710 72.688 31.183 72.634 L 31.656 72.579 31.656 70.532 C 31.656 68.679,31.688 68.468,31.991 68.306 C 32.253 68.166,32.338 67.909,32.379 67.138 C 32.427 66.203,32.455 66.148,32.903 66.096 L 33.376 66.042 33.376 64.516 L 33.376 62.991 33.849 62.936 C 34.296 62.885,34.327 62.823,34.409 61.849 C 34.489 60.882,34.524 60.814,34.957 60.764 C 35.315 60.722,35.432 60.605,35.473 60.248 C 35.524 59.814,35.592 59.780,36.559 59.699 C 37.526 59.618,37.595 59.584,37.645 59.150 C 37.686 58.793,37.803 58.675,38.161 58.634 C 38.523 58.592,38.636 58.477,38.679 58.101 C 38.722 57.726,38.845 57.599,39.238 57.520 C 39.623 57.443,39.742 57.324,39.742 57.016 C 39.742 56.705,39.870 56.579,40.301 56.467 L 40.860 56.323 40.946 52.893 L 41.032 49.462 41.499 49.409 C 41.962 49.355,41.966 49.343,42.015 47.867 C 42.063 46.440,42.082 46.376,42.495 46.280 C 42.881 46.190,42.934 46.075,43.011 45.154 C 43.091 44.193,43.126 44.126,43.562 44.075 C 43.999 44.025,44.030 43.964,44.078 43.044 C 44.127 42.108,44.151 42.063,44.644 41.978 C 45.053 41.908,45.176 41.784,45.247 41.375 C 45.316 40.971,45.435 40.849,45.799 40.807 C 46.235 40.756,46.266 40.694,46.314 39.781 C 46.360 38.910,46.409 38.800,46.789 38.710 C 47.052 38.649,47.251 38.453,47.312 38.194 C 47.373 37.935,47.571 37.738,47.834 37.677 C 48.094 37.616,48.279 37.435,48.311 37.210 C 48.373 36.785,48.634 36.536,49.111 36.448 C 49.298 36.413,49.492 36.198,49.547 35.962 C 49.609 35.701,49.806 35.502,50.065 35.441 C 50.321 35.380,50.520 35.181,50.581 34.925 C 50.641 34.668,50.840 34.469,51.097 34.409 C 51.353 34.348,51.552 34.149,51.613 33.892 C 51.673 33.636,51.873 33.437,52.129 33.376 C 52.382 33.317,52.585 33.117,52.643 32.870 C 52.737 32.470,52.952 32.288,53.548 32.104 C 53.758 32.039,53.849 31.833,53.849 31.424 C 53.849 31.102,53.966 30.741,54.108 30.624 C 54.249 30.506,54.366 30.231,54.366 30.012 C 54.366 29.706,54.475 29.602,54.839 29.560 C 55.210 29.517,55.324 29.404,55.366 29.032 C 55.409 28.659,55.510 28.559,55.845 28.559 C 56.099 28.559,56.306 28.438,56.362 28.258 C 56.546 27.661,56.729 27.440,57.082 27.387 C 57.291 27.356,57.464 27.184,57.495 26.975 C 57.547 26.622,57.769 26.439,58.366 26.254 C 58.546 26.199,58.667 25.991,58.667 25.737 C 58.667 25.403,58.766 25.302,59.140 25.259 C 59.511 25.216,59.625 25.103,59.667 24.731 C 59.710 24.358,59.811 24.258,60.146 24.258 C 60.400 24.258,60.607 24.137,60.663 23.957 C 60.847 23.360,61.031 23.139,61.383 23.086 C 61.592 23.055,61.765 22.883,61.796 22.674 C 61.849 22.321,62.070 22.138,62.667 21.953 C 62.847 21.898,62.968 21.690,62.968 21.436 C 62.968 21.101,63.067 21.001,63.441 20.958 C 63.809 20.915,63.926 20.801,63.967 20.441 C 64.009 20.083,64.126 19.966,64.482 19.924 C 64.783 19.890,64.965 19.751,65.006 19.527 C 65.129 18.854,65.371 18.753,66.848 18.753 L 68.278 18.753 68.333 18.280 C 68.384 17.832,68.441 17.804,69.366 17.755 C 70.286 17.707,70.348 17.676,70.398 17.239 C 70.448 16.803,70.515 16.769,71.484 16.688 C 72.452 16.607,72.519 16.573,72.570 16.137 C 72.620 15.700,72.682 15.669,73.602 15.621 L 74.581 15.570 74.629 13.462 L 74.677 11.355 74.260 11.355 C 73.654 11.355,73.634 11.210,73.634 6.644 C 73.634 2.325,73.675 2.065,74.357 2.065 C 74.541 2.065,74.667 1.938,74.667 1.755 C 74.667 0.854,77.284 0.687,77.387 1.581 M78.644 9.868 C 78.508 10.032,78.455 10.658,78.488 11.714 L 78.538 13.312 79.097 13.457 L 79.656 13.601 79.656 16.155 L 79.656 18.710 80.168 18.812 L 80.679 18.914 80.727 21.543 L 80.774 24.172 81.254 24.227 L 81.733 24.282 81.684 25.861 L 81.634 27.441 80.688 27.441 C 79.784 27.441,79.740 27.420,79.688 26.968 C 79.629 26.462,79.418 26.364,78.200 26.282 C 77.632 26.244,77.502 26.165,77.419 25.806 C 77.255 25.100,75.404 25.054,75.324 25.755 C 75.274 26.187,75.190 26.245,74.496 26.323 C 73.796 26.400,73.714 26.458,73.634 26.925 C 73.566 27.329,73.447 27.452,73.085 27.494 C 72.728 27.536,72.611 27.653,72.570 28.010 C 72.519 28.445,72.457 28.476,71.538 28.524 C 70.618 28.573,70.556 28.603,70.505 29.040 C 70.463 29.404,70.341 29.523,69.935 29.591 C 69.531 29.660,69.408 29.779,69.366 30.141 C 69.325 30.497,69.207 30.615,68.851 30.656 C 68.488 30.698,68.370 30.821,68.301 31.226 C 68.232 31.630,68.114 31.754,67.754 31.795 C 67.501 31.824,67.201 31.960,67.088 32.096 C 66.975 32.233,66.747 32.344,66.581 32.344 C 66.385 32.344,66.244 32.521,66.179 32.848 C 66.100 33.241,65.972 33.364,65.598 33.407 C 65.222 33.450,65.107 33.563,65.065 33.925 C 65.024 34.283,64.906 34.400,64.549 34.441 C 64.115 34.491,64.081 34.560,64.000 35.527 C 63.919 36.494,63.885 36.563,63.451 36.613 C 63.094 36.654,62.976 36.771,62.935 37.129 C 62.894 37.487,62.777 37.604,62.417 37.645 C 61.980 37.695,61.949 37.757,61.901 38.677 C 61.852 39.601,61.823 39.659,61.378 39.710 C 61.012 39.752,60.876 39.886,60.766 40.312 C 60.659 40.731,60.518 40.873,60.173 40.914 C 59.826 40.955,59.707 41.075,59.666 41.430 C 59.625 41.788,59.508 41.905,59.148 41.946 C 58.711 41.997,58.680 42.059,58.632 42.971 C 58.586 43.843,58.537 43.953,58.157 44.042 C 57.898 44.103,57.696 44.300,57.637 44.549 C 57.542 44.950,57.328 45.131,56.731 45.316 C 56.493 45.389,56.430 45.603,56.430 46.349 C 56.430 47.243,56.407 47.292,55.964 47.343 C 55.632 47.382,55.469 47.520,55.398 47.822 C 55.336 48.087,55.141 48.283,54.875 48.345 C 54.494 48.434,54.446 48.543,54.400 49.435 C 54.365 50.105,54.267 50.457,54.099 50.522 C 53.909 50.595,53.849 50.957,53.849 52.040 C 53.849 53.511,53.748 53.752,53.075 53.876 C 52.764 53.933,52.723 54.110,52.645 55.744 L 52.559 57.548 52.091 57.602 L 51.623 57.656 51.575 59.753 L 51.527 61.849 51.054 61.904 L 50.581 61.958 50.581 70.710 C 50.581 79.449,50.580 79.461,50.219 79.575 C 49.815 79.704,49.611 79.556,49.522 79.072 C 49.463 78.749,49.225 78.563,48.645 78.383 C 48.407 78.310,48.344 78.095,48.344 77.350 C 48.344 76.452,48.323 76.407,47.871 76.356 C 47.411 76.303,47.396 76.266,47.312 75.011 L 47.226 73.720 46.280 73.720 L 45.333 73.720 45.247 74.391 C 45.165 75.034,45.003 75.219,44.344 75.423 C 44.070 75.508,44.043 75.838,44.043 79.123 L 44.043 82.730 43.570 82.784 L 43.097 82.839 43.049 84.935 L 43.000 87.032 42.532 87.086 L 42.065 87.140 41.978 89.197 C 41.894 91.220,41.885 91.256,41.462 91.355 C 41.052 91.451,41.028 91.524,40.946 92.995 L 40.860 94.535 40.344 94.624 C 39.834 94.711,39.827 94.728,39.742 95.994 C 39.662 97.189,39.627 97.283,39.226 97.376 C 38.838 97.467,38.791 97.572,38.744 98.448 C 38.696 99.361,38.665 99.423,38.228 99.473 C 37.769 99.526,37.762 99.545,37.677 101.075 C 37.592 102.612,37.588 102.624,37.118 102.678 L 36.645 102.733 36.645 104.162 C 36.645 105.640,36.544 105.881,35.871 106.005 C 35.582 106.058,35.519 106.225,35.476 107.045 C 35.427 107.963,35.397 108.025,34.959 108.075 L 34.495 108.129 34.409 111.312 L 34.323 114.495 33.852 114.549 L 33.382 114.603 33.336 119.108 L 33.290 123.613 32.828 123.666 C 32.470 123.708,32.353 123.825,32.311 124.182 C 32.204 125.111,31.746 124.723,31.690 123.656 C 31.647 122.831,31.586 122.667,31.324 122.667 C 30.958 122.667,30.687 122.378,30.597 121.892 C 30.487 121.299,29.700 121.434,29.592 122.065 C 29.522 122.472,29.405 122.592,29.031 122.635 L 28.559 122.690 28.559 124.622 C 28.559 126.616,28.451 126.968,27.837 126.968 C 27.556 126.968,27.527 127.155,27.527 128.925 C 27.527 130.957,27.459 131.165,26.753 131.295 C 26.445 131.352,26.403 131.515,26.359 132.851 C 26.310 134.333,26.306 134.344,25.843 134.398 C 25.382 134.451,25.375 134.469,25.290 135.993 C 25.208 137.465,25.185 137.539,24.774 137.634 C 24.378 137.727,24.340 137.821,24.292 138.839 C 24.236 140.018,24.061 140.387,23.557 140.387 C 23.295 140.387,23.234 140.552,23.191 141.375 C 23.142 142.324,23.119 142.367,22.624 142.451 C 22.130 142.536,22.104 142.584,22.022 143.571 C 21.941 144.537,21.906 144.606,21.473 144.656 C 21.115 144.697,20.998 144.814,20.957 145.172 C 20.915 145.532,20.799 145.646,20.430 145.689 C 19.981 145.741,19.957 145.789,19.957 146.644 C 19.957 147.587,19.753 147.957,19.234 147.957 C 19.046 147.957,18.925 148.084,18.925 148.280 C 18.925 148.655,18.640 148.926,18.151 149.015 C 17.845 149.072,17.797 149.250,17.720 150.625 C 17.635 152.161,17.631 152.172,17.161 152.226 L 16.688 152.281 16.688 153.818 L 16.688 155.355 17.600 155.355 C 18.549 155.355,18.925 155.557,18.925 156.069 C 18.925 156.315,19.106 156.379,19.914 156.422 C 20.890 156.472,20.904 156.481,20.957 157.026 L 21.010 157.579 22.591 157.628 C 24.169 157.677,24.172 157.678,24.226 158.144 C 24.280 158.610,24.283 158.611,25.860 158.660 L 27.441 158.710 27.495 159.183 L 27.550 159.656 29.482 159.656 C 31.476 159.656,31.828 159.764,31.828 160.378 C 31.828 160.656,32.006 160.688,33.527 160.688 C 34.812 160.688,35.278 160.750,35.436 160.941 C 35.594 161.131,36.143 161.206,37.651 161.242 L 39.656 161.290 39.710 161.846 L 39.763 162.401 42.978 162.448 L 46.194 162.495 46.248 162.964 L 46.302 163.434 50.033 163.481 L 53.763 163.527 53.818 164.000 L 53.872 164.473 59.968 164.473 L 66.065 164.473 66.065 163.966 C 66.065 163.468,66.044 163.457,65.075 163.406 C 64.135 163.357,64.083 163.331,64.031 162.875 L 63.976 162.395 65.579 162.445 L 67.183 162.495 67.234 163.484 L 67.286 164.473 78.181 164.473 C 87.656 164.473,89.104 164.439,89.290 164.215 C 89.411 164.069,89.786 163.957,90.153 163.957 C 90.567 163.957,90.837 163.865,90.899 163.703 C 90.980 163.494,91.557 163.440,94.144 163.402 L 97.290 163.355 97.344 162.890 C 97.394 162.453,97.456 162.422,98.376 162.374 L 99.355 162.323 99.399 151.108 L 99.443 139.894 98.969 139.840 C 98.498 139.785,98.494 139.774,98.409 138.244 C 98.326 136.772,98.303 136.698,97.892 136.602 C 97.515 136.515,97.456 136.398,97.408 135.649 C 97.374 135.106,97.235 134.669,97.027 134.447 C 96.752 134.154,96.692 133.784,96.651 132.132 C 96.603 130.193,96.596 130.164,96.172 130.065 C 95.742 129.964,95.742 129.963,95.656 127.398 C 95.570 124.832,95.570 124.832,95.140 124.731 C 94.710 124.630,94.710 124.630,94.624 122.065 C 94.538 119.499,94.538 119.499,94.108 119.398 C 93.690 119.300,93.675 119.245,93.591 117.499 L 93.505 115.701 92.989 115.613 L 92.473 115.525 92.387 113.985 C 92.305 112.514,92.282 112.440,91.871 112.344 C 91.483 112.254,91.436 112.148,91.390 111.272 C 91.341 110.360,91.310 110.298,90.873 110.247 C 90.514 110.206,90.397 110.089,90.355 109.731 C 90.314 109.373,90.197 109.256,89.839 109.215 C 89.406 109.165,89.371 109.096,89.290 108.130 C 89.208 107.143,89.182 107.095,88.688 107.011 C 88.192 106.926,88.170 106.884,88.120 105.934 C 88.077 105.111,88.016 104.946,87.754 104.946 C 87.390 104.946,87.117 104.658,87.028 104.180 C 86.994 103.992,86.778 103.799,86.543 103.743 C 86.279 103.681,86.083 103.484,86.021 103.220 C 85.931 102.839,85.822 102.790,84.939 102.744 C 84.022 102.696,83.957 102.664,83.957 102.266 C 83.957 102.009,83.837 101.802,83.656 101.746 C 83.062 101.562,82.838 101.379,82.786 101.034 C 82.752 100.806,82.562 100.650,82.239 100.585 C 81.856 100.509,81.732 100.379,81.689 100.007 C 81.646 99.628,81.535 99.515,81.161 99.472 C 80.693 99.419,80.688 99.405,80.688 98.151 C 80.688 96.896,80.683 96.883,80.215 96.829 C 79.745 96.775,79.741 96.763,79.656 95.227 L 79.570 93.680 79.054 93.591 L 78.538 93.503 78.452 91.963 C 78.369 90.492,78.346 90.418,77.935 90.323 C 77.525 90.227,77.502 90.153,77.419 88.681 C 77.334 87.156,77.329 87.139,76.865 87.086 L 76.396 87.032 76.349 84.419 L 76.301 81.806 75.570 81.754 L 74.839 81.701 74.839 82.636 C 74.839 83.597,74.682 83.869,74.065 83.984 C 73.734 84.045,73.717 84.218,73.634 88.260 L 73.548 92.473 73.082 92.527 C 72.619 92.580,72.615 92.593,72.566 94.068 C 72.518 95.495,72.499 95.559,72.086 95.656 C 71.685 95.749,71.650 95.843,71.570 97.039 C 71.487 98.283,71.470 98.324,71.016 98.377 L 70.548 98.430 70.500 100.526 L 70.452 102.621 69.935 102.709 L 69.419 102.798 69.333 104.345 C 69.248 105.877,69.242 105.893,68.779 105.946 L 68.311 106.000 68.263 108.097 L 68.215 110.194 67.742 110.248 L 67.269 110.302 67.269 112.235 C 67.269 114.229,67.160 114.581,66.546 114.581 C 66.269 114.581,66.237 114.758,66.237 116.280 C 66.237 118.040,66.154 118.264,65.462 118.392 C 65.154 118.449,65.113 118.612,65.069 119.948 C 65.020 121.429,65.016 121.441,64.553 121.495 C 64.091 121.548,64.085 121.566,64.000 123.090 C 63.918 124.562,63.895 124.635,63.484 124.731 C 63.073 124.827,63.050 124.901,62.968 126.373 C 62.882 127.902,62.878 127.914,62.409 127.968 L 61.935 128.023 61.935 129.453 C 61.935 130.930,61.834 131.171,61.161 131.295 C 60.846 131.353,60.810 131.530,60.731 133.421 L 60.645 135.484 60.177 135.538 L 59.708 135.592 59.661 137.946 L 59.613 140.301 59.140 140.356 L 58.667 140.410 58.667 144.086 L 58.667 147.762 59.140 147.817 L 59.613 147.871 59.659 152.118 L 59.705 156.365 60.175 156.419 C 60.641 156.473,60.646 156.487,60.731 158.020 C 60.808 159.395,60.855 159.573,61.161 159.630 C 61.650 159.720,61.935 159.991,61.935 160.365 C 61.935 160.566,62.057 160.688,62.259 160.688 C 62.436 160.688,62.674 160.800,62.787 160.936 C 62.900 161.072,63.200 161.208,63.453 161.237 C 63.834 161.281,63.923 161.388,63.968 161.849 L 64.022 162.409 62.974 162.409 C 61.948 162.409,61.925 162.398,61.824 161.892 C 61.756 161.555,61.616 161.376,61.419 161.376 C 61.253 161.376,61.025 161.265,60.912 161.128 C 60.799 160.992,60.499 160.857,60.245 160.827 C 59.792 160.775,59.784 160.751,59.699 159.233 C 59.617 157.761,59.594 157.687,59.183 157.591 L 58.753 157.490 58.667 153.285 C 58.584 149.250,58.567 149.077,58.237 149.016 C 57.474 148.875,57.462 148.807,57.462 144.344 C 57.462 139.881,57.474 139.813,58.237 139.672 C 58.558 139.613,58.586 139.438,58.667 137.038 L 58.753 134.466 59.183 134.366 C 59.606 134.267,59.614 134.231,59.699 132.208 L 59.785 130.151 60.258 130.096 L 60.731 130.042 60.731 128.625 C 60.731 127.168,60.877 126.796,61.447 126.796 C 61.709 126.796,61.757 126.594,61.800 125.292 L 61.849 123.787 62.366 123.699 L 62.882 123.611 62.968 122.071 C 63.050 120.600,63.073 120.526,63.484 120.430 C 63.885 120.337,63.920 120.243,64.000 119.047 C 64.084 117.799,64.099 117.762,64.559 117.709 L 65.032 117.655 65.032 115.722 C 65.032 113.728,65.141 113.376,65.755 113.376 C 66.035 113.376,66.065 113.189,66.065 111.419 C 66.065 109.387,66.133 109.179,66.839 109.049 C 67.154 108.991,67.190 108.814,67.269 106.923 L 67.355 104.860 67.828 104.806 L 68.301 104.751 68.301 103.226 L 68.301 101.700 68.774 101.646 L 69.247 101.591 69.333 99.534 C 69.418 97.511,69.427 97.475,69.849 97.377 C 70.236 97.287,70.284 97.181,70.324 96.337 C 70.394 94.871,70.480 94.653,71.011 94.592 C 71.480 94.538,71.485 94.525,71.570 92.996 C 71.652 91.524,71.675 91.451,72.086 91.354 L 72.516 91.254 72.602 87.046 L 72.688 82.839 73.153 82.785 C 73.590 82.735,73.621 82.673,73.669 81.753 C 73.718 80.828,73.746 80.771,74.194 80.720 C 74.555 80.678,74.667 80.573,74.667 80.273 C 74.667 80.058,74.817 79.745,75.001 79.579 C 75.185 79.412,75.359 79.110,75.388 78.907 C 75.524 77.955,76.295 78.462,76.387 79.563 C 76.464 80.484,76.517 80.599,76.903 80.689 C 77.333 80.789,77.333 80.789,77.419 83.355 C 77.505 85.921,77.505 85.921,77.935 86.021 C 78.346 86.117,78.369 86.191,78.452 87.662 L 78.538 89.202 79.054 89.291 L 79.570 89.379 79.619 90.863 L 79.669 92.347 80.178 92.449 L 80.688 92.551 80.688 94.092 L 80.688 95.633 81.161 95.687 C 81.622 95.740,81.637 95.777,81.720 97.032 C 81.804 98.280,81.822 98.324,82.269 98.376 C 82.624 98.417,82.744 98.535,82.785 98.882 C 82.826 99.230,82.968 99.368,83.398 99.479 C 83.829 99.590,83.957 99.715,83.957 100.026 C 83.957 100.335,84.076 100.454,84.461 100.531 C 84.854 100.610,84.977 100.737,85.020 101.112 C 85.072 101.567,85.125 101.594,86.054 101.643 C 86.974 101.691,87.036 101.722,87.086 102.158 C 87.128 102.522,87.250 102.641,87.656 102.710 C 88.061 102.778,88.184 102.897,88.225 103.259 C 88.267 103.616,88.384 103.733,88.742 103.775 C 89.099 103.816,89.216 103.933,89.258 104.291 C 89.299 104.648,89.416 104.765,89.774 104.807 C 90.230 104.859,90.238 104.881,90.323 106.401 C 90.404 107.867,90.429 107.948,90.832 108.042 C 91.097 108.104,91.294 108.300,91.356 108.565 C 91.412 108.800,91.605 109.015,91.792 109.050 C 92.399 109.162,92.559 109.439,92.559 110.375 C 92.559 111.244,92.582 111.292,93.032 111.343 C 93.502 111.397,93.506 111.409,93.591 112.946 C 93.677 114.483,93.681 114.495,94.151 114.549 L 94.624 114.604 94.624 116.387 L 94.624 118.171 95.097 118.225 L 95.570 118.280 95.656 120.945 L 95.742 123.610 96.258 123.699 L 96.774 123.788 96.822 126.363 C 96.860 128.415,96.921 128.967,97.123 129.080 C 97.324 129.192,97.376 129.645,97.376 131.266 L 97.376 133.310 97.849 133.365 C 98.297 133.416,98.325 133.473,98.374 134.398 C 98.422 135.318,98.453 135.380,98.890 135.430 C 99.349 135.483,99.356 135.502,99.441 137.032 C 99.520 138.460,99.556 138.585,99.901 138.634 C 100.405 138.706,100.606 138.981,100.674 139.693 C 100.719 140.163,100.821 140.308,101.161 140.387 C 101.549 140.477,101.596 140.583,101.643 141.459 C 101.691 142.372,101.722 142.434,102.159 142.484 C 102.602 142.535,102.626 142.587,102.675 143.613 C 102.726 144.678,102.731 144.688,103.234 144.688 C 103.681 144.688,103.742 144.749,103.742 145.193 C 103.742 145.638,103.809 145.705,104.301 145.753 C 104.760 145.797,104.870 145.887,104.913 146.260 C 104.953 146.606,105.085 146.737,105.472 146.815 C 105.869 146.894,105.978 147.008,105.978 147.342 C 105.978 147.740,106.044 147.771,106.968 147.819 C 107.943 147.870,107.958 147.879,108.010 148.422 C 108.063 148.971,108.068 148.974,109.129 149.024 C 110.146 149.073,110.196 149.096,110.248 149.546 L 110.302 150.016 114.807 150.062 L 119.312 150.108 119.366 150.581 L 119.421 151.054 122.065 151.054 L 124.708 151.054 124.763 150.581 L 124.817 150.108 127.946 150.061 L 131.075 150.014 131.129 149.545 C 131.180 149.096,131.230 149.073,132.258 149.024 C 133.325 148.973,133.333 148.969,133.333 148.461 C 133.333 148.029,133.415 147.932,133.849 147.845 C 134.247 147.766,134.366 147.649,134.366 147.338 C 134.366 147.027,134.494 146.902,134.925 146.790 C 135.460 146.652,135.486 146.606,135.536 145.710 C 135.594 144.657,136.485 143.501,137.247 143.490 C 137.620 143.484,137.634 143.425,137.634 141.935 C 137.634 140.393,137.633 140.387,137.199 140.387 C 136.959 140.387,136.719 140.271,136.664 140.129 C 136.536 139.795,135.675 139.795,135.398 140.129 C 135.088 140.503,131.579 140.503,131.269 140.129 C 131.151 139.987,130.919 139.871,130.753 139.871 C 130.400 139.871,130.127 139.578,130.039 139.104 C 130.004 138.915,129.788 138.723,129.547 138.666 L 129.118 138.565 129.118 134.358 L 129.118 130.151 130.088 130.100 C 131.011 130.051,131.062 130.024,131.160 129.534 L 131.263 129.019 132.764 129.069 C 134.206 129.116,134.269 129.135,134.365 129.548 C 134.461 129.959,134.535 129.982,136.007 130.065 L 137.548 130.151 137.634 134.366 L 137.720 138.581 138.181 138.634 C 138.574 138.679,138.650 138.616,138.697 138.205 C 138.741 137.820,138.858 137.704,139.269 137.634 L 139.785 137.545 139.785 135.484 L 139.785 133.423 139.269 133.333 L 138.753 133.244 138.708 121.843 C 138.667 111.095,138.682 110.436,138.967 110.348 C 139.809 110.088,139.782 110.227,139.831 105.884 C 139.868 102.573,139.926 101.730,140.129 101.505 C 140.334 101.279,140.390 100.404,140.427 96.850 L 140.473 92.473 140.944 92.419 L 141.414 92.365 141.460 87.602 L 141.505 82.839 141.978 82.784 L 142.452 82.730 142.452 79.163 C 142.452 75.470,142.504 75.183,143.174 75.183 C 143.463 75.183,143.484 74.921,143.484 71.214 L 143.484 67.246 143.018 67.300 C 142.686 67.339,142.523 67.477,142.452 67.779 C 142.391 68.042,142.195 68.240,141.935 68.301 C 141.679 68.362,141.480 68.561,141.419 68.817 C 141.358 69.076,141.160 69.272,140.897 69.334 C 140.637 69.395,140.453 69.575,140.420 69.801 C 140.323 70.469,140.014 70.551,137.782 70.500 L 135.656 70.452 135.602 69.979 C 135.543 69.473,135.332 69.375,134.114 69.293 C 133.550 69.255,133.416 69.175,133.334 68.823 C 133.272 68.558,133.076 68.362,132.811 68.300 L 132.387 68.200 132.387 65.025 L 132.387 61.849 132.850 61.796 C 133.207 61.755,133.325 61.637,133.366 61.280 C 133.407 60.922,133.524 60.805,133.884 60.764 C 134.321 60.713,134.352 60.651,134.400 59.738 C 134.446 58.873,134.497 58.756,134.865 58.670 C 135.272 58.575,135.453 58.362,135.638 57.763 C 135.766 57.349,138.844 57.312,139.183 57.720 C 139.301 57.862,139.530 57.978,139.693 57.978 C 139.856 57.978,140.126 58.129,140.292 58.313 C 140.459 58.497,140.758 58.671,140.957 58.700 C 141.179 58.732,141.358 58.919,141.420 59.183 C 141.494 59.497,141.634 59.613,141.943 59.613 L 142.366 59.613 142.413 57.001 L 142.460 54.389 141.983 54.334 C 141.517 54.281,141.503 54.248,141.419 52.989 C 141.336 51.740,141.319 51.697,140.868 51.645 C 140.432 51.595,140.400 51.532,140.352 50.627 C 140.298 49.606,139.937 49.172,139.840 50.011 C 139.786 50.481,139.756 50.495,138.753 50.495 L 137.720 50.495 137.634 49.462 C 137.554 48.494,137.520 48.427,137.084 48.376 C 136.646 48.326,136.616 48.265,136.567 47.344 C 136.519 46.425,136.488 46.362,136.053 46.312 C 135.698 46.271,135.578 46.153,135.537 45.803 C 135.500 45.486,135.358 45.318,135.070 45.250 C 134.664 45.155,134.482 44.943,134.297 44.344 C 134.224 44.105,134.009 44.043,133.264 44.043 C 132.366 44.043,132.321 44.022,132.269 43.570 C 132.218 43.124,132.156 43.092,131.183 43.011 C 130.216 42.930,130.147 42.896,130.097 42.462 C 130.056 42.104,129.939 41.987,129.581 41.946 C 129.220 41.904,129.106 41.788,129.064 41.419 C 129.012 40.968,128.967 40.946,128.069 40.946 C 127.324 40.946,127.110 40.884,127.036 40.645 C 126.818 39.939,126.658 39.826,125.753 39.742 C 124.943 39.666,124.819 39.604,124.731 39.226 C 124.642 38.840,124.527 38.787,123.606 38.710 C 122.635 38.628,122.578 38.598,122.525 38.142 C 122.445 37.442,120.595 37.487,120.429 38.194 C 120.268 38.883,118.306 38.853,118.226 38.160 C 118.179 37.749,118.091 37.690,117.452 37.644 C 116.809 37.597,116.725 37.540,116.677 37.118 C 116.625 36.667,116.580 36.645,115.682 36.645 C 114.937 36.645,114.723 36.583,114.649 36.344 C 114.431 35.638,114.271 35.525,113.366 35.441 C 112.560 35.366,112.431 35.301,112.345 34.931 C 112.283 34.668,112.087 34.470,111.828 34.409 C 111.569 34.347,111.373 34.149,111.311 33.886 C 111.222 33.506,111.112 33.457,110.238 33.411 L 109.265 33.360 109.213 34.357 L 109.161 35.355 108.098 35.406 C 107.048 35.456,107.034 35.451,106.980 34.976 C 106.937 34.599,106.825 34.483,106.462 34.441 C 106.104 34.400,105.987 34.283,105.946 33.925 C 105.904 33.563,105.788 33.450,105.413 33.407 C 105.038 33.364,104.911 33.241,104.832 32.848 C 104.769 32.532,104.624 32.344,104.443 32.344 C 103.915 32.344,103.742 31.957,103.742 30.773 C 103.742 29.641,103.731 29.613,103.276 29.560 C 102.944 29.521,102.781 29.383,102.710 29.082 C 102.648 28.816,102.453 28.621,102.187 28.558 C 101.806 28.469,101.758 28.360,101.712 27.480 C 101.662 26.537,101.639 26.495,101.110 26.358 C 100.688 26.250,100.547 26.110,100.505 25.762 C 100.455 25.337,100.387 25.303,99.480 25.256 C 98.604 25.209,98.499 25.162,98.409 24.774 C 98.247 24.080,96.908 24.035,96.830 24.721 C 96.785 25.105,96.669 25.221,96.258 25.290 C 95.853 25.359,95.730 25.478,95.689 25.840 C 95.647 26.197,95.530 26.314,95.172 26.355 C 94.739 26.405,94.704 26.474,94.624 27.441 C 94.543 28.414,94.511 28.476,94.065 28.528 L 93.591 28.582 93.591 30.101 C 93.591 31.784,93.561 31.828,92.407 31.828 C 91.435 31.828,91.355 31.650,91.355 29.492 L 91.355 27.570 90.847 27.468 C 90.364 27.372,90.338 27.320,90.288 26.379 C 90.242 25.485,90.195 25.381,89.806 25.290 C 89.396 25.195,89.372 25.121,89.290 23.650 L 89.204 22.110 88.688 22.022 C 88.284 21.953,88.160 21.834,88.119 21.472 C 88.077 21.115,87.960 20.998,87.602 20.957 C 87.168 20.907,87.137 20.843,87.089 19.934 C 87.041 19.017,87.011 18.959,86.538 18.865 C 86.065 18.770,86.036 18.714,85.987 17.777 C 85.941 16.887,85.893 16.778,85.512 16.689 C 85.249 16.627,85.050 16.431,84.989 16.172 C 84.929 15.916,84.730 15.716,84.473 15.656 C 84.215 15.595,84.017 15.396,83.956 15.134 C 83.900 14.899,83.707 14.684,83.519 14.649 C 82.913 14.537,82.753 14.260,82.753 13.324 C 82.753 12.455,82.729 12.407,82.280 12.356 C 81.908 12.313,81.795 12.200,81.752 11.828 C 81.709 11.455,81.608 11.355,81.273 11.355 C 81.040 11.355,80.805 11.239,80.750 11.097 C 80.696 10.955,80.464 10.839,80.234 10.839 C 79.987 10.839,79.779 10.716,79.724 10.538 C 79.463 9.692,79.019 9.416,78.644 9.868 M136.724 9.742 C 136.657 9.809,136.602 10.046,136.602 10.270 C 136.602 10.581,136.484 10.699,136.095 10.777 C 135.643 10.867,135.582 10.956,135.536 11.589 C 135.489 12.229,135.433 12.308,134.968 12.387 C 134.563 12.456,134.440 12.574,134.398 12.937 C 134.357 13.293,134.239 13.411,133.882 13.452 C 133.448 13.502,133.414 13.570,133.333 14.538 C 133.253 15.506,133.219 15.573,132.782 15.624 C 132.346 15.674,132.315 15.736,132.266 16.649 C 132.220 17.525,132.173 17.630,131.785 17.721 C 131.362 17.819,131.353 17.856,131.269 19.868 L 131.183 21.915 130.624 22.059 L 130.065 22.203 130.065 24.698 C 130.065 26.925,130.097 27.204,130.366 27.287 C 130.964 27.472,131.177 27.653,131.273 28.059 C 131.361 28.434,131.459 28.473,132.309 28.473 L 133.247 28.473 133.333 27.441 C 133.414 26.467,133.446 26.406,133.892 26.354 C 134.344 26.302,134.366 26.257,134.366 25.360 C 134.366 24.614,134.428 24.400,134.667 24.326 C 135.373 24.108,135.485 23.948,135.570 23.043 C 135.645 22.233,135.708 22.109,136.086 22.021 L 136.516 21.920 136.602 17.204 L 136.688 12.488 137.118 12.387 C 137.724 12.244,137.796 9.756,137.197 9.670 C 137.004 9.643,136.791 9.675,136.724 9.742 M93.359 57.594 C 93.468 57.664,93.584 57.914,93.617 58.151 C 93.672 58.545,93.760 58.585,94.656 58.632 C 95.576 58.680,95.638 58.711,95.688 59.147 C 95.730 59.512,95.853 59.630,96.258 59.699 C 96.669 59.769,96.785 59.885,96.830 60.269 C 96.860 60.534,96.996 60.794,97.131 60.846 C 97.494 60.985,97.495 68.046,97.131 68.250 C 96.996 68.325,96.861 68.697,96.830 69.075 C 96.776 69.742,96.753 69.765,96.093 69.819 C 95.663 69.854,95.327 69.996,95.180 70.206 C 94.963 70.516,94.706 70.538,91.194 70.538 C 87.272 70.538,87.167 70.518,87.028 69.771 C 86.994 69.584,86.778 69.390,86.543 69.335 C 86.281 69.273,86.082 69.076,86.022 68.817 C 85.960 68.559,85.762 68.362,85.499 68.300 L 85.075 68.200 85.075 64.508 L 85.075 60.817 85.538 60.764 C 85.893 60.723,86.013 60.605,86.054 60.254 C 86.092 59.934,86.233 59.769,86.531 59.699 C 86.794 59.638,86.993 59.442,87.054 59.183 C 87.115 58.924,87.314 58.727,87.575 58.665 C 87.811 58.610,88.026 58.416,88.061 58.229 C 88.193 57.514,88.381 57.462,90.817 57.465 C 92.106 57.466,93.250 57.525,93.359 57.594 M137.757 59.806 C 137.689 59.873,137.634 60.104,137.634 60.318 C 137.634 60.616,137.522 60.721,137.161 60.763 C 136.431 60.847,136.422 62.851,137.151 62.935 C 137.508 62.976,137.626 63.094,137.667 63.451 C 137.741 64.094,138.517 64.119,138.666 63.484 C 138.745 63.144,138.891 63.042,139.361 62.997 C 139.688 62.965,140.053 62.859,140.171 62.761 C 140.478 62.506,140.454 60.966,140.141 60.846 C 140.006 60.794,139.871 60.534,139.840 60.268 C 139.785 59.786,138.141 59.421,137.757 59.806 M91.587 60.860 C 91.478 60.931,91.362 61.183,91.329 61.419 C 91.274 61.814,91.187 61.854,90.280 61.901 L 89.290 61.953 89.290 63.481 L 89.290 65.009 89.763 65.064 C 90.135 65.107,90.248 65.220,90.291 65.591 C 90.366 66.245,92.322 66.340,92.418 65.695 C 92.472 65.332,92.690 65.149,93.290 64.964 C 93.833 64.796,93.731 61.935,93.182 61.935 C 92.728 61.935,92.457 61.680,92.361 61.163 C 92.293 60.798,91.912 60.649,91.587 60.860 M163.597 70.871 C 164.576 71.568,164.904 74.453,164.632 80.000 C 164.419 84.372,164.466 86.796,164.764 86.796 C 164.877 86.796,165.497 86.286,166.141 85.662 C 169.801 82.119,175.539 81.788,177.021 85.035 C 177.951 87.070,177.930 86.920,178.401 94.624 C 178.597 97.820,178.953 100.799,179.381 102.826 C 179.758 104.609,179.157 105.679,177.641 105.925 C 175.431 106.283,174.525 102.915,174.298 93.505 C 174.170 88.214,174.128 87.995,173.118 87.371 C 171.055 86.096,167.634 88.569,165.325 93.005 L 164.645 94.311 164.635 96.747 C 164.625 99.342,164.423 102.144,164.158 103.373 C 163.734 105.341,161.973 105.966,160.633 104.626 L 160.138 104.132 160.329 100.711 C 160.554 96.661,160.646 75.164,160.446 73.257 C 160.202 70.929,161.887 69.653,163.597 70.871 M329.322 72.092 C 330.569 72.438,331.084 74.144,330.244 75.143 C 329.293 76.273,328.545 76.387,322.082 76.387 C 317.707 76.387,316.211 76.440,315.997 76.602 C 315.721 76.811,315.519 78.283,315.239 82.117 L 315.154 83.288 316.085 82.762 C 316.598 82.473,317.137 82.237,317.283 82.237 C 317.430 82.237,317.646 82.120,317.763 81.978 C 317.881 81.837,318.220 81.720,318.516 81.719 C 318.812 81.718,319.434 81.601,319.898 81.461 C 321.038 81.115,324.100 81.116,324.930 81.462 C 325.269 81.604,325.677 81.720,325.835 81.720 C 326.499 81.720,328.761 83.447,329.555 84.560 C 332.628 88.866,332.535 96.293,329.355 100.487 C 328.011 102.260,325.575 104.258,324.757 104.258 C 324.643 104.258,324.382 104.376,324.176 104.520 C 323.439 105.036,320.211 105.524,318.538 105.372 C 313.102 104.878,308.320 100.120,311.022 97.893 C 312.225 96.901,312.743 97.102,314.901 99.400 C 317.259 101.910,322.475 101.544,325.227 98.675 C 328.890 94.857,328.527 87.770,324.570 85.855 C 323.126 85.156,319.972 85.473,318.305 86.485 C 317.806 86.788,314.495 90.159,314.495 90.363 C 314.494 91.050,312.241 91.577,311.469 91.071 C 310.513 90.445,310.357 87.546,311.054 83.355 C 311.511 80.605,311.614 75.819,311.238 74.829 C 310.205 72.112,310.104 72.143,319.915 72.106 C 324.257 72.089,327.846 72.039,327.891 71.995 C 328.023 71.862,328.647 71.904,329.322 72.092 M297.259 72.443 C 298.988 73.802,298.472 74.911,294.219 78.986 C 293.022 80.132,291.712 81.468,291.308 81.954 C 290.175 83.318,288.806 86.373,289.333 86.363 C 289.509 86.360,290.858 85.886,291.228 85.698 C 294.198 84.188,299.592 85.209,302.004 87.738 C 304.910 90.785,305.394 96.826,303.083 101.226 C 302.018 103.255,299.173 105.559,297.214 105.979 C 296.830 106.061,296.206 106.209,295.828 106.307 C 293.918 106.804,290.772 106.346,288.822 105.288 C 285.817 103.657,284.099 100.430,283.716 95.696 C 283.502 93.056,283.730 89.639,284.228 88.000 C 284.315 87.716,284.536 86.967,284.721 86.336 C 284.905 85.704,285.127 85.046,285.214 84.873 C 285.302 84.701,285.618 84.065,285.918 83.461 C 286.661 81.966,287.731 80.191,288.255 79.586 C 288.493 79.311,288.688 79.025,288.688 78.951 C 288.688 78.751,293.982 73.407,294.882 72.699 C 295.791 71.983,296.569 71.899,297.259 72.443 M254.015 74.220 C 255.246 75.159,255.153 76.799,253.824 77.584 C 251.753 78.806,249.130 76.740,250.371 74.864 C 251.225 73.575,252.803 73.296,254.015 74.220 M242.567 81.134 C 242.859 81.379,243.097 81.722,243.097 81.898 C 243.097 82.073,243.163 82.257,243.244 82.307 C 243.324 82.357,243.441 82.961,243.503 83.650 C 243.565 84.339,243.705 85.309,243.813 85.805 C 244.293 87.991,241.996 89.693,240.600 88.186 C 240.240 87.797,239.905 86.695,239.785 85.505 C 239.754 85.196,239.645 85.081,239.398 85.096 C 238.831 85.129,237.367 85.522,236.846 85.780 C 236.578 85.913,236.203 86.022,236.013 86.022 C 235.822 86.022,235.460 86.128,235.209 86.258 C 234.958 86.388,234.366 86.673,233.892 86.892 C 232.810 87.391,231.787 88.353,231.586 89.058 C 231.405 89.694,232.071 90.052,233.931 90.317 C 234.477 90.395,235.118 90.535,235.355 90.627 C 235.591 90.719,236.249 90.934,236.817 91.105 C 242.805 92.911,245.350 99.246,241.583 102.968 C 239.140 105.381,232.474 106.212,229.211 104.511 C 228.947 104.373,228.633 104.260,228.513 104.259 C 228.194 104.258,227.033 103.492,226.376 102.850 C 225.462 101.956,225.519 100.337,226.495 99.512 C 227.431 98.720,227.906 98.752,229.118 99.690 C 231.340 101.410,237.044 101.489,238.709 99.825 C 240.444 98.090,237.171 94.624,233.798 94.624 C 233.531 94.624,233.095 94.536,232.828 94.428 C 232.562 94.320,232.034 94.174,231.656 94.102 C 228.071 93.425,226.499 90.577,227.814 87.141 C 228.455 85.466,231.081 83.269,232.443 83.269 C 232.587 83.269,232.782 83.192,232.876 83.098 C 232.970 83.004,233.392 82.854,233.814 82.763 C 235.105 82.487,236.102 82.208,236.694 81.959 C 237.005 81.828,237.445 81.720,237.673 81.720 C 237.901 81.720,238.135 81.643,238.194 81.548 C 238.252 81.454,238.645 81.289,239.067 81.183 C 239.489 81.077,239.876 80.922,239.927 80.839 C 240.156 80.468,242.025 80.677,242.567 81.134 M221.825 82.808 C 222.888 83.620,223.172 84.437,223.271 86.981 C 223.402 90.360,222.891 91.415,221.167 91.317 C 219.890 91.245,219.613 90.745,219.455 88.227 C 219.313 85.965,219.280 85.905,218.290 86.180 C 217.882 86.294,217.260 86.459,216.907 86.548 C 216.268 86.709,214.552 87.593,213.922 88.086 C 213.449 88.455,212.446 89.737,211.766 90.839 L 211.183 91.785 211.139 98.237 C 211.091 105.496,211.109 105.313,210.363 105.995 C 209.365 106.906,207.906 106.540,207.347 105.239 C 207.103 104.673,207.067 88.944,207.301 85.686 C 207.554 82.170,209.964 81.510,211.088 84.649 C 211.474 85.726,211.500 85.729,212.701 84.831 C 213.512 84.225,214.638 83.603,216.000 83.006 C 216.284 82.882,216.981 82.688,217.548 82.575 C 218.116 82.462,218.658 82.341,218.753 82.306 C 219.369 82.079,221.277 82.390,221.825 82.808 M196.038 83.109 C 200.019 84.509,201.995 88.100,201.993 93.937 C 201.992 98.889,198.755 104.254,195.384 104.892 C 195.084 104.948,194.733 105.078,194.603 105.180 C 194.267 105.446,190.690 105.425,190.421 105.156 C 190.305 105.041,190.065 104.946,189.886 104.946 C 189.380 104.946,187.496 103.823,186.631 103.007 C 181.210 97.886,183.026 86.811,189.795 83.716 C 190.333 83.470,190.918 83.269,191.094 83.269 C 191.271 83.269,191.489 83.198,191.578 83.111 C 192.054 82.653,194.736 82.652,196.038 83.109 M253.150 83.356 L 253.809 83.959 253.666 88.216 C 253.588 90.557,253.542 94.912,253.564 97.892 C 253.602 103.099,253.590 103.334,253.250 103.881 C 252.365 105.305,250.532 105.126,249.704 103.535 C 249.079 102.335,249.577 84.579,250.261 83.657 C 251.064 82.577,252.174 82.461,253.150 83.356 M271.914 82.921 C 273.488 83.271,274.180 83.466,274.693 83.705 C 274.991 83.844,275.307 83.957,275.396 83.957 C 276.461 83.957,278.022 86.623,278.022 88.443 C 278.022 91.315,276.573 92.537,269.677 95.481 C 268.654 95.918,268.153 96.144,266.667 96.836 C 266.052 97.122,265.112 97.552,264.579 97.792 C 263.311 98.362,263.254 98.577,264.154 99.406 C 265.171 100.343,265.607 100.606,266.957 101.097 C 270.253 102.296,274.996 101.436,277.149 99.248 C 278.902 97.467,281.029 99.113,280.107 101.537 C 279.715 102.567,276.349 104.946,275.283 104.946 C 275.178 104.946,274.958 105.021,274.793 105.111 C 274.629 105.202,274.108 105.361,273.634 105.465 C 273.161 105.569,272.465 105.724,272.086 105.809 C 270.733 106.113,268.816 105.994,266.667 105.472 C 264.753 105.007,262.614 103.792,261.630 102.610 C 259.315 99.828,258.843 96.116,260.128 90.810 C 260.909 87.589,264.751 83.291,266.872 83.266 C 266.996 83.265,267.406 83.152,267.785 83.016 C 268.555 82.738,270.857 82.686,271.914 82.921 M192.516 87.155 C 189.139 88.400,187.277 91.732,187.620 95.914 C 187.749 97.476,188.452 99.219,189.136 99.667 C 189.360 99.813,189.651 100.040,189.782 100.170 C 191.110 101.486,194.425 101.254,196.109 99.727 C 198.976 97.128,198.868 89.674,195.936 87.760 C 195.050 87.181,193.289 86.870,192.516 87.155 M268.215 87.284 C 267.884 87.415,267.396 87.610,267.130 87.718 C 265.725 88.286,264.245 90.332,263.380 92.903 C 262.751 94.774,262.756 94.775,265.462 93.554 C 266.077 93.276,266.813 92.945,267.097 92.819 C 274.778 89.395,275.936 88.359,272.896 87.634 C 272.640 87.572,272.338 87.450,272.225 87.361 C 271.861 87.075,268.885 87.018,268.215 87.284 M291.269 89.576 C 290.275 90.010,289.338 90.505,288.455 91.061 L 287.619 91.586 287.701 94.008 C 287.746 95.340,287.882 96.701,288.004 97.032 C 289.046 99.867,289.773 100.823,291.544 101.686 C 292.844 102.319,295.283 102.372,296.344 101.790 C 296.628 101.635,296.938 101.507,297.032 101.505 C 297.127 101.504,297.572 101.188,298.021 100.803 C 301.319 97.976,301.291 91.541,297.973 90.045 C 296.189 89.240,292.608 88.990,291.269 89.576 M118.159 130.271 C 118.273 130.385,118.366 130.607,118.366 130.766 C 118.366 130.947,118.553 131.091,118.873 131.155 C 119.356 131.252,119.383 131.304,119.432 132.245 C 119.479 133.138,119.525 133.243,119.914 133.334 L 120.344 133.435 120.344 136.868 L 120.344 140.301 119.881 140.355 C 119.524 140.396,119.407 140.513,119.365 140.871 L 119.312 141.333 115.355 141.333 L 111.398 141.333 111.345 140.613 C 111.299 139.974,111.241 139.886,110.829 139.838 L 110.366 139.785 110.366 136.610 L 110.366 133.435 110.796 133.334 C 111.182 133.244,111.235 133.129,111.312 132.208 L 111.398 131.183 112.387 131.131 C 113.195 131.089,113.376 131.024,113.376 130.779 C 113.376 130.166,113.730 130.065,115.871 130.065 C 117.261 130.065,118.021 130.133,118.159 130.271 "
       stroke="none"
       fill="#fcfcfb"
       fill-rule="evenodd" />
  </g>
</svg>
