G04 #@! TF.GenerationSoftware,KiCad,Pcbnew,(5.1.4)-1*
G04 #@! TF.CreationDate,2022-05-12T21:47:59-04:00*
G04 #@! TF.ProjectId,horsie-65,686f7273-6965-42d3-9635-2e6b69636164,rev?*
G04 #@! TF.SameCoordinates,Original*
G04 #@! TF.FileFunction,Legend,Top*
G04 #@! TF.FilePolarity,Positive*
%FSLAX46Y46*%
G04 Gerber Fmt 4.6, Leading zero omitted, Abs format (unit mm)*
G04 Created by KiCad (PCBNEW (5.1.4)-1) date 2022-05-12 21:47:59*
%MOMM*%
%LPD*%
G04 APERTURE LIST*
%ADD10C,0.010000*%
%ADD11C,0.150000*%
G04 APERTURE END LIST*
D10*
G36*
X170407102Y-132725961D02*
G01*
X170841216Y-132859496D01*
X170898553Y-132940592D01*
X171117427Y-133172116D01*
X171335086Y-133207960D01*
X171816232Y-133396768D01*
X172295138Y-133809539D01*
X172567037Y-134208236D01*
X172712185Y-134713916D01*
X172754621Y-135474395D01*
X172726535Y-136461960D01*
X172655278Y-137470282D01*
X172550792Y-138267621D01*
X172433576Y-138705481D01*
X172412776Y-138734591D01*
X172057814Y-138845425D01*
X171310897Y-138943555D01*
X170314786Y-139011840D01*
X170007477Y-139023375D01*
X168908316Y-139044062D01*
X168202007Y-139003766D01*
X167747564Y-138872518D01*
X167404001Y-138620353D01*
X167222237Y-138431350D01*
X166862293Y-137919279D01*
X166678403Y-137276018D01*
X166621331Y-136314823D01*
X166620658Y-136149655D01*
X166640644Y-135470904D01*
X168744819Y-135470904D01*
X168846259Y-136051664D01*
X169139472Y-136584325D01*
X169585756Y-136907115D01*
X169781335Y-136940948D01*
X170251610Y-136775278D01*
X170516598Y-136569163D01*
X170835481Y-135991746D01*
X170898553Y-135614276D01*
X170778439Y-135101461D01*
X170497400Y-134640244D01*
X170174391Y-134365053D01*
X169928368Y-134410313D01*
X169895125Y-134480348D01*
X169570590Y-134757731D01*
X169272062Y-134812171D01*
X168873853Y-135003816D01*
X168744819Y-135470904D01*
X166640644Y-135470904D01*
X166648457Y-135205579D01*
X166782904Y-134584760D01*
X167100574Y-134076565D01*
X167547535Y-133600101D01*
X168227785Y-133007583D01*
X168861376Y-132736670D01*
X169686483Y-132673224D01*
X170407102Y-132725961D01*
X170407102Y-132725961D01*
G37*
X170407102Y-132725961D02*
X170841216Y-132859496D01*
X170898553Y-132940592D01*
X171117427Y-133172116D01*
X171335086Y-133207960D01*
X171816232Y-133396768D01*
X172295138Y-133809539D01*
X172567037Y-134208236D01*
X172712185Y-134713916D01*
X172754621Y-135474395D01*
X172726535Y-136461960D01*
X172655278Y-137470282D01*
X172550792Y-138267621D01*
X172433576Y-138705481D01*
X172412776Y-138734591D01*
X172057814Y-138845425D01*
X171310897Y-138943555D01*
X170314786Y-139011840D01*
X170007477Y-139023375D01*
X168908316Y-139044062D01*
X168202007Y-139003766D01*
X167747564Y-138872518D01*
X167404001Y-138620353D01*
X167222237Y-138431350D01*
X166862293Y-137919279D01*
X166678403Y-137276018D01*
X166621331Y-136314823D01*
X166620658Y-136149655D01*
X166640644Y-135470904D01*
X168744819Y-135470904D01*
X168846259Y-136051664D01*
X169139472Y-136584325D01*
X169585756Y-136907115D01*
X169781335Y-136940948D01*
X170251610Y-136775278D01*
X170516598Y-136569163D01*
X170835481Y-135991746D01*
X170898553Y-135614276D01*
X170778439Y-135101461D01*
X170497400Y-134640244D01*
X170174391Y-134365053D01*
X169928368Y-134410313D01*
X169895125Y-134480348D01*
X169570590Y-134757731D01*
X169272062Y-134812171D01*
X168873853Y-135003816D01*
X168744819Y-135470904D01*
X166640644Y-135470904D01*
X166648457Y-135205579D01*
X166782904Y-134584760D01*
X167100574Y-134076565D01*
X167547535Y-133600101D01*
X168227785Y-133007583D01*
X168861376Y-132736670D01*
X169686483Y-132673224D01*
X170407102Y-132725961D01*
G36*
X182282740Y-168807028D02*
G01*
X182939596Y-168939395D01*
X183350282Y-169149915D01*
X183672666Y-169667826D01*
X183732237Y-169952021D01*
X183870865Y-170319915D01*
X183999605Y-170372171D01*
X184170252Y-170608745D01*
X184258424Y-171209742D01*
X184269273Y-172012080D01*
X184207948Y-172852673D01*
X184079599Y-173568436D01*
X183889377Y-173996285D01*
X183885019Y-174000742D01*
X183425760Y-174219941D01*
X182671912Y-174355779D01*
X181776034Y-174408957D01*
X180890685Y-174380173D01*
X180168423Y-174270128D01*
X179761806Y-174079521D01*
X179721711Y-173981645D01*
X179577339Y-173625839D01*
X179454342Y-173580592D01*
X179311926Y-173337057D01*
X179215374Y-172700858D01*
X179186974Y-171976381D01*
X179227563Y-171121887D01*
X179333596Y-170542570D01*
X179454342Y-170372171D01*
X179671575Y-170148237D01*
X179721711Y-169837434D01*
X179910769Y-169390579D01*
X180256448Y-169302697D01*
X180690912Y-169190730D01*
X180791184Y-169035329D01*
X181019818Y-168846545D01*
X181579909Y-168773261D01*
X182282740Y-168807028D01*
X182282740Y-168807028D01*
G37*
X182282740Y-168807028D02*
X182939596Y-168939395D01*
X183350282Y-169149915D01*
X183672666Y-169667826D01*
X183732237Y-169952021D01*
X183870865Y-170319915D01*
X183999605Y-170372171D01*
X184170252Y-170608745D01*
X184258424Y-171209742D01*
X184269273Y-172012080D01*
X184207948Y-172852673D01*
X184079599Y-173568436D01*
X183889377Y-173996285D01*
X183885019Y-174000742D01*
X183425760Y-174219941D01*
X182671912Y-174355779D01*
X181776034Y-174408957D01*
X180890685Y-174380173D01*
X180168423Y-174270128D01*
X179761806Y-174079521D01*
X179721711Y-173981645D01*
X179577339Y-173625839D01*
X179454342Y-173580592D01*
X179311926Y-173337057D01*
X179215374Y-172700858D01*
X179186974Y-171976381D01*
X179227563Y-171121887D01*
X179333596Y-170542570D01*
X179454342Y-170372171D01*
X179671575Y-170148237D01*
X179721711Y-169837434D01*
X179910769Y-169390579D01*
X180256448Y-169302697D01*
X180690912Y-169190730D01*
X180791184Y-169035329D01*
X181019818Y-168846545D01*
X181579909Y-168773261D01*
X182282740Y-168807028D01*
G36*
X250726966Y-140935028D02*
G01*
X251210008Y-141289104D01*
X251214318Y-141295855D01*
X251357161Y-141906667D01*
X251035791Y-142411887D01*
X250320261Y-142728333D01*
X249963172Y-142781479D01*
X249234701Y-142759760D01*
X248818954Y-142485062D01*
X248710843Y-142313584D01*
X248538586Y-141582810D01*
X248821842Y-141033457D01*
X249489415Y-140754643D01*
X249963172Y-140746021D01*
X250726966Y-140935028D01*
X250726966Y-140935028D01*
G37*
X250726966Y-140935028D02*
X251210008Y-141289104D01*
X251214318Y-141295855D01*
X251357161Y-141906667D01*
X251035791Y-142411887D01*
X250320261Y-142728333D01*
X249963172Y-142781479D01*
X249234701Y-142759760D01*
X248818954Y-142485062D01*
X248710843Y-142313584D01*
X248538586Y-141582810D01*
X248821842Y-141033457D01*
X249489415Y-140754643D01*
X249963172Y-140746021D01*
X250726966Y-140935028D01*
G36*
X250232556Y-145374627D02*
G01*
X250543211Y-145603081D01*
X250653081Y-145931956D01*
X250715900Y-146625515D01*
X250732471Y-147727315D01*
X250703593Y-149280913D01*
X250642791Y-151017292D01*
X250440658Y-156067960D01*
X249589475Y-156150418D01*
X248901134Y-156109771D01*
X248486167Y-155751220D01*
X248414267Y-155627430D01*
X248320237Y-155173161D01*
X248257584Y-154297662D01*
X248224457Y-153113407D01*
X248219009Y-151732870D01*
X248239388Y-150268524D01*
X248283746Y-148832842D01*
X248350233Y-147538300D01*
X248436999Y-146497370D01*
X248542194Y-145822526D01*
X248577397Y-145707434D01*
X248961316Y-145357917D01*
X249592744Y-145242750D01*
X250232556Y-145374627D01*
X250232556Y-145374627D01*
G37*
X250232556Y-145374627D02*
X250543211Y-145603081D01*
X250653081Y-145931956D01*
X250715900Y-146625515D01*
X250732471Y-147727315D01*
X250703593Y-149280913D01*
X250642791Y-151017292D01*
X250440658Y-156067960D01*
X249589475Y-156150418D01*
X248901134Y-156109771D01*
X248486167Y-155751220D01*
X248414267Y-155627430D01*
X248320237Y-155173161D01*
X248257584Y-154297662D01*
X248224457Y-153113407D01*
X248219009Y-151732870D01*
X248239388Y-150268524D01*
X248283746Y-148832842D01*
X248350233Y-147538300D01*
X248436999Y-146497370D01*
X248542194Y-145822526D01*
X248577397Y-145707434D01*
X248961316Y-145357917D01*
X249592744Y-145242750D01*
X250232556Y-145374627D01*
G36*
X285163808Y-139844430D02*
G01*
X286464261Y-139875963D01*
X287552189Y-139937547D01*
X288320909Y-140030198D01*
X288646374Y-140136328D01*
X289035602Y-140667511D01*
X288907774Y-141224063D01*
X288558724Y-141613716D01*
X288222417Y-141827359D01*
X287702104Y-141975801D01*
X286897720Y-142074146D01*
X285709197Y-142137501D01*
X284933651Y-142160930D01*
X283704765Y-142199969D01*
X282688552Y-142246550D01*
X281994198Y-142294688D01*
X281732174Y-142336367D01*
X281642354Y-142633789D01*
X281516853Y-143285509D01*
X281444343Y-143740207D01*
X281249587Y-145048243D01*
X282020912Y-144809680D01*
X282666811Y-144692510D01*
X283645239Y-144607396D01*
X284754201Y-144571371D01*
X284849969Y-144571118D01*
X285906975Y-144584195D01*
X286596464Y-144657825D01*
X287085584Y-144843607D01*
X287541480Y-145193139D01*
X287868694Y-145503011D01*
X288845357Y-146797219D01*
X289409108Y-148305947D01*
X289579476Y-149929171D01*
X289375990Y-151566867D01*
X288818179Y-153119010D01*
X287925573Y-154485578D01*
X286717700Y-155566544D01*
X285808719Y-156053777D01*
X284629202Y-156361752D01*
X283233184Y-156455916D01*
X281842291Y-156341531D01*
X280678147Y-156023859D01*
X280474283Y-155927112D01*
X279666531Y-155364852D01*
X278963122Y-154643293D01*
X278496216Y-153917333D01*
X278380658Y-153473318D01*
X278591362Y-152867989D01*
X279117196Y-152539877D01*
X279798743Y-152519728D01*
X280476586Y-152838286D01*
X280678693Y-153030125D01*
X281691544Y-153841394D01*
X282796010Y-154193313D01*
X283916789Y-154134550D01*
X284978577Y-153713771D01*
X285906072Y-152979645D01*
X286623973Y-151980840D01*
X287056977Y-150766023D01*
X287129781Y-149383861D01*
X287062822Y-148904081D01*
X286644585Y-147752947D01*
X285941708Y-147013128D01*
X285019674Y-146691763D01*
X283943968Y-146795994D01*
X282780072Y-147332960D01*
X281595328Y-148307909D01*
X280720078Y-149092769D01*
X280015287Y-149466630D01*
X279666926Y-149517434D01*
X279228734Y-149451025D01*
X278930516Y-149205252D01*
X278760341Y-148710297D01*
X278706277Y-147896342D01*
X278756391Y-146693570D01*
X278898751Y-145032161D01*
X278899341Y-145026051D01*
X279031426Y-143327884D01*
X279059494Y-142072003D01*
X278983061Y-141295124D01*
X278950052Y-141186484D01*
X278819108Y-140585724D01*
X278872215Y-140229406D01*
X279207511Y-140101969D01*
X279970370Y-139998487D01*
X281054111Y-139919976D01*
X282352052Y-139867452D01*
X283757511Y-139841932D01*
X285163808Y-139844430D01*
X285163808Y-139844430D01*
G37*
X285163808Y-139844430D02*
X286464261Y-139875963D01*
X287552189Y-139937547D01*
X288320909Y-140030198D01*
X288646374Y-140136328D01*
X289035602Y-140667511D01*
X288907774Y-141224063D01*
X288558724Y-141613716D01*
X288222417Y-141827359D01*
X287702104Y-141975801D01*
X286897720Y-142074146D01*
X285709197Y-142137501D01*
X284933651Y-142160930D01*
X283704765Y-142199969D01*
X282688552Y-142246550D01*
X281994198Y-142294688D01*
X281732174Y-142336367D01*
X281642354Y-142633789D01*
X281516853Y-143285509D01*
X281444343Y-143740207D01*
X281249587Y-145048243D01*
X282020912Y-144809680D01*
X282666811Y-144692510D01*
X283645239Y-144607396D01*
X284754201Y-144571371D01*
X284849969Y-144571118D01*
X285906975Y-144584195D01*
X286596464Y-144657825D01*
X287085584Y-144843607D01*
X287541480Y-145193139D01*
X287868694Y-145503011D01*
X288845357Y-146797219D01*
X289409108Y-148305947D01*
X289579476Y-149929171D01*
X289375990Y-151566867D01*
X288818179Y-153119010D01*
X287925573Y-154485578D01*
X286717700Y-155566544D01*
X285808719Y-156053777D01*
X284629202Y-156361752D01*
X283233184Y-156455916D01*
X281842291Y-156341531D01*
X280678147Y-156023859D01*
X280474283Y-155927112D01*
X279666531Y-155364852D01*
X278963122Y-154643293D01*
X278496216Y-153917333D01*
X278380658Y-153473318D01*
X278591362Y-152867989D01*
X279117196Y-152539877D01*
X279798743Y-152519728D01*
X280476586Y-152838286D01*
X280678693Y-153030125D01*
X281691544Y-153841394D01*
X282796010Y-154193313D01*
X283916789Y-154134550D01*
X284978577Y-153713771D01*
X285906072Y-152979645D01*
X286623973Y-151980840D01*
X287056977Y-150766023D01*
X287129781Y-149383861D01*
X287062822Y-148904081D01*
X286644585Y-147752947D01*
X285941708Y-147013128D01*
X285019674Y-146691763D01*
X283943968Y-146795994D01*
X282780072Y-147332960D01*
X281595328Y-148307909D01*
X280720078Y-149092769D01*
X280015287Y-149466630D01*
X279666926Y-149517434D01*
X279228734Y-149451025D01*
X278930516Y-149205252D01*
X278760341Y-148710297D01*
X278706277Y-147896342D01*
X278756391Y-146693570D01*
X278898751Y-145032161D01*
X278899341Y-145026051D01*
X279031426Y-143327884D01*
X279059494Y-142072003D01*
X278983061Y-141295124D01*
X278950052Y-141186484D01*
X278819108Y-140585724D01*
X278872215Y-140229406D01*
X279207511Y-140101969D01*
X279970370Y-139998487D01*
X281054111Y-139919976D01*
X282352052Y-139867452D01*
X283757511Y-139841932D01*
X285163808Y-139844430D01*
G36*
X245258871Y-144401066D02*
G01*
X245428102Y-144637960D01*
X245533683Y-145161697D01*
X245604034Y-145995520D01*
X245620237Y-146576381D01*
X245611352Y-147418316D01*
X245521325Y-147864735D01*
X245272357Y-148054847D01*
X244786651Y-148127863D01*
X244751279Y-148131272D01*
X244116649Y-148122377D01*
X243774390Y-147836102D01*
X243588808Y-147396009D01*
X243386085Y-146878919D01*
X243148212Y-146644000D01*
X242731186Y-146659351D01*
X241991005Y-146893067D01*
X241731231Y-146984474D01*
X240823812Y-147380910D01*
X240090434Y-147838807D01*
X239666298Y-148265922D01*
X239612237Y-148430180D01*
X239850649Y-148573018D01*
X240479045Y-148794273D01*
X241367164Y-149048709D01*
X241471521Y-149075854D01*
X243159063Y-149658653D01*
X244366625Y-150430079D01*
X245125590Y-151422395D01*
X245467341Y-152667862D01*
X245494342Y-153211258D01*
X245243254Y-154407123D01*
X244534821Y-155404160D01*
X243452775Y-156100360D01*
X242366855Y-156372161D01*
X240999952Y-156462794D01*
X239571983Y-156378294D01*
X238302863Y-156124696D01*
X237816935Y-155945701D01*
X236929242Y-155397871D01*
X236521338Y-154761403D01*
X236517079Y-154744943D01*
X236511046Y-153959101D01*
X236883330Y-153458406D01*
X237532663Y-153291492D01*
X238357774Y-153506990D01*
X238695574Y-153698763D01*
X239412130Y-153979401D01*
X240377332Y-154129709D01*
X241388256Y-154143455D01*
X242241980Y-154014410D01*
X242656778Y-153820389D01*
X243016015Y-153305829D01*
X243088026Y-152979891D01*
X242880275Y-152496969D01*
X242384838Y-151953955D01*
X241793443Y-151527627D01*
X241362602Y-151389013D01*
X240671402Y-151280681D01*
X239750851Y-151006335D01*
X238805375Y-150641951D01*
X238039400Y-150263503D01*
X237725925Y-150037438D01*
X237296412Y-149255816D01*
X237252020Y-148258473D01*
X237588807Y-147196530D01*
X237809937Y-146816447D01*
X238173935Y-146358367D01*
X238648266Y-145988394D01*
X239352356Y-145639774D01*
X240405636Y-145245751D01*
X240951516Y-145060462D01*
X242633490Y-144542155D01*
X243882783Y-144262248D01*
X244743281Y-144216599D01*
X245258871Y-144401066D01*
X245258871Y-144401066D01*
G37*
X245258871Y-144401066D02*
X245428102Y-144637960D01*
X245533683Y-145161697D01*
X245604034Y-145995520D01*
X245620237Y-146576381D01*
X245611352Y-147418316D01*
X245521325Y-147864735D01*
X245272357Y-148054847D01*
X244786651Y-148127863D01*
X244751279Y-148131272D01*
X244116649Y-148122377D01*
X243774390Y-147836102D01*
X243588808Y-147396009D01*
X243386085Y-146878919D01*
X243148212Y-146644000D01*
X242731186Y-146659351D01*
X241991005Y-146893067D01*
X241731231Y-146984474D01*
X240823812Y-147380910D01*
X240090434Y-147838807D01*
X239666298Y-148265922D01*
X239612237Y-148430180D01*
X239850649Y-148573018D01*
X240479045Y-148794273D01*
X241367164Y-149048709D01*
X241471521Y-149075854D01*
X243159063Y-149658653D01*
X244366625Y-150430079D01*
X245125590Y-151422395D01*
X245467341Y-152667862D01*
X245494342Y-153211258D01*
X245243254Y-154407123D01*
X244534821Y-155404160D01*
X243452775Y-156100360D01*
X242366855Y-156372161D01*
X240999952Y-156462794D01*
X239571983Y-156378294D01*
X238302863Y-156124696D01*
X237816935Y-155945701D01*
X236929242Y-155397871D01*
X236521338Y-154761403D01*
X236517079Y-154744943D01*
X236511046Y-153959101D01*
X236883330Y-153458406D01*
X237532663Y-153291492D01*
X238357774Y-153506990D01*
X238695574Y-153698763D01*
X239412130Y-153979401D01*
X240377332Y-154129709D01*
X241388256Y-154143455D01*
X242241980Y-154014410D01*
X242656778Y-153820389D01*
X243016015Y-153305829D01*
X243088026Y-152979891D01*
X242880275Y-152496969D01*
X242384838Y-151953955D01*
X241793443Y-151527627D01*
X241362602Y-151389013D01*
X240671402Y-151280681D01*
X239750851Y-151006335D01*
X238805375Y-150641951D01*
X238039400Y-150263503D01*
X237725925Y-150037438D01*
X237296412Y-149255816D01*
X237252020Y-148258473D01*
X237588807Y-147196530D01*
X237809937Y-146816447D01*
X238173935Y-146358367D01*
X238648266Y-145988394D01*
X239352356Y-145639774D01*
X240405636Y-145245751D01*
X240951516Y-145060462D01*
X242633490Y-144542155D01*
X243882783Y-144262248D01*
X244743281Y-144216599D01*
X245258871Y-144401066D01*
G36*
X222356555Y-145490902D02*
G01*
X222932055Y-145749150D01*
X223856804Y-146614757D01*
X224516803Y-147882919D01*
X224878399Y-149473970D01*
X224938098Y-150497878D01*
X224862495Y-152010230D01*
X224587208Y-153198355D01*
X224055997Y-154253166D01*
X223671650Y-154797056D01*
X222704300Y-155756211D01*
X221535471Y-156296040D01*
X220050518Y-156468937D01*
X220013475Y-156469013D01*
X218834305Y-156366131D01*
X217915362Y-156015602D01*
X217660724Y-155857086D01*
X216582250Y-154832005D01*
X215868063Y-153528219D01*
X215507904Y-152048677D01*
X215499562Y-151258508D01*
X217955395Y-151258508D01*
X218144717Y-152616343D01*
X218709690Y-153598920D01*
X219645828Y-154199650D01*
X220036088Y-154313118D01*
X220305940Y-154231562D01*
X220880140Y-154008138D01*
X221048342Y-153938635D01*
X221911116Y-153306534D01*
X222509504Y-152313159D01*
X222763092Y-151099327D01*
X222766535Y-150929706D01*
X222628246Y-149732628D01*
X222262497Y-148663260D01*
X221735730Y-147895129D01*
X221546264Y-147742762D01*
X221033663Y-147478973D01*
X220536216Y-147477771D01*
X219919858Y-147678449D01*
X218942849Y-148324019D01*
X218284785Y-149364827D01*
X217975697Y-150746140D01*
X217955395Y-151258508D01*
X215499562Y-151258508D01*
X215491515Y-150496328D01*
X215808636Y-148974121D01*
X216449009Y-147585005D01*
X217402375Y-146431928D01*
X218658475Y-145617838D01*
X218682071Y-145607663D01*
X219856239Y-145302483D01*
X221158040Y-145266125D01*
X222356555Y-145490902D01*
X222356555Y-145490902D01*
G37*
X222356555Y-145490902D02*
X222932055Y-145749150D01*
X223856804Y-146614757D01*
X224516803Y-147882919D01*
X224878399Y-149473970D01*
X224938098Y-150497878D01*
X224862495Y-152010230D01*
X224587208Y-153198355D01*
X224055997Y-154253166D01*
X223671650Y-154797056D01*
X222704300Y-155756211D01*
X221535471Y-156296040D01*
X220050518Y-156468937D01*
X220013475Y-156469013D01*
X218834305Y-156366131D01*
X217915362Y-156015602D01*
X217660724Y-155857086D01*
X216582250Y-154832005D01*
X215868063Y-153528219D01*
X215507904Y-152048677D01*
X215499562Y-151258508D01*
X217955395Y-151258508D01*
X218144717Y-152616343D01*
X218709690Y-153598920D01*
X219645828Y-154199650D01*
X220036088Y-154313118D01*
X220305940Y-154231562D01*
X220880140Y-154008138D01*
X221048342Y-153938635D01*
X221911116Y-153306534D01*
X222509504Y-152313159D01*
X222763092Y-151099327D01*
X222766535Y-150929706D01*
X222628246Y-149732628D01*
X222262497Y-148663260D01*
X221735730Y-147895129D01*
X221546264Y-147742762D01*
X221033663Y-147478973D01*
X220536216Y-147477771D01*
X219919858Y-147678449D01*
X218942849Y-148324019D01*
X218284785Y-149364827D01*
X217975697Y-150746140D01*
X217955395Y-151258508D01*
X215499562Y-151258508D01*
X215491515Y-150496328D01*
X215808636Y-148974121D01*
X216449009Y-147585005D01*
X217402375Y-146431928D01*
X218658475Y-145617838D01*
X218682071Y-145607663D01*
X219856239Y-145302483D01*
X221158040Y-145266125D01*
X222356555Y-145490902D01*
G36*
X259972731Y-145332569D02*
G01*
X261330282Y-145716347D01*
X262281429Y-146433091D01*
X262334372Y-146498109D01*
X262822735Y-147479562D01*
X262810378Y-148480641D01*
X262325003Y-149439056D01*
X261394316Y-150292516D01*
X260406703Y-150832409D01*
X259570249Y-151202325D01*
X258485227Y-151687906D01*
X257410346Y-152173249D01*
X255556877Y-153014589D01*
X256099985Y-153557697D01*
X257051090Y-154159800D01*
X258277423Y-154440131D01*
X259626046Y-154397255D01*
X260944019Y-154029736D01*
X261720117Y-153610462D01*
X262616079Y-153151851D01*
X263329577Y-153078175D01*
X263782779Y-153385697D01*
X263892710Y-153714695D01*
X263778092Y-154634821D01*
X263184515Y-155416547D01*
X262155914Y-156033396D01*
X260736220Y-156458894D01*
X258996448Y-156665276D01*
X257812055Y-156695945D01*
X256970627Y-156631879D01*
X256284654Y-156445729D01*
X255713996Y-156186563D01*
X254517155Y-155281644D01*
X253875711Y-154418358D01*
X253519835Y-153751639D01*
X253324912Y-153153247D01*
X253258178Y-152436174D01*
X253286866Y-151413413D01*
X253301885Y-151143364D01*
X253375096Y-150655477D01*
X255461947Y-150655477D01*
X255644578Y-150706993D01*
X256097816Y-150570775D01*
X256881443Y-150226708D01*
X258055241Y-149654675D01*
X258549112Y-149407058D01*
X259458550Y-148927418D01*
X260172011Y-148510766D01*
X260560387Y-148233521D01*
X260588832Y-148199727D01*
X260481608Y-147974094D01*
X260003181Y-147753152D01*
X259315861Y-147577763D01*
X258581959Y-147488791D01*
X257963782Y-147527099D01*
X257939875Y-147532824D01*
X257415797Y-147806816D01*
X256777583Y-148321717D01*
X256174754Y-148931025D01*
X255756830Y-149488235D01*
X255654342Y-149772239D01*
X255566511Y-150210042D01*
X255490139Y-150436342D01*
X255461947Y-150655477D01*
X253375096Y-150655477D01*
X253600671Y-149152225D01*
X254240506Y-147566472D01*
X255217319Y-146390948D01*
X256527041Y-145630497D01*
X258165602Y-145289963D01*
X258223363Y-145286058D01*
X259972731Y-145332569D01*
X259972731Y-145332569D01*
G37*
X259972731Y-145332569D02*
X261330282Y-145716347D01*
X262281429Y-146433091D01*
X262334372Y-146498109D01*
X262822735Y-147479562D01*
X262810378Y-148480641D01*
X262325003Y-149439056D01*
X261394316Y-150292516D01*
X260406703Y-150832409D01*
X259570249Y-151202325D01*
X258485227Y-151687906D01*
X257410346Y-152173249D01*
X255556877Y-153014589D01*
X256099985Y-153557697D01*
X257051090Y-154159800D01*
X258277423Y-154440131D01*
X259626046Y-154397255D01*
X260944019Y-154029736D01*
X261720117Y-153610462D01*
X262616079Y-153151851D01*
X263329577Y-153078175D01*
X263782779Y-153385697D01*
X263892710Y-153714695D01*
X263778092Y-154634821D01*
X263184515Y-155416547D01*
X262155914Y-156033396D01*
X260736220Y-156458894D01*
X258996448Y-156665276D01*
X257812055Y-156695945D01*
X256970627Y-156631879D01*
X256284654Y-156445729D01*
X255713996Y-156186563D01*
X254517155Y-155281644D01*
X253875711Y-154418358D01*
X253519835Y-153751639D01*
X253324912Y-153153247D01*
X253258178Y-152436174D01*
X253286866Y-151413413D01*
X253301885Y-151143364D01*
X253375096Y-150655477D01*
X255461947Y-150655477D01*
X255644578Y-150706993D01*
X256097816Y-150570775D01*
X256881443Y-150226708D01*
X258055241Y-149654675D01*
X258549112Y-149407058D01*
X259458550Y-148927418D01*
X260172011Y-148510766D01*
X260560387Y-148233521D01*
X260588832Y-148199727D01*
X260481608Y-147974094D01*
X260003181Y-147753152D01*
X259315861Y-147577763D01*
X258581959Y-147488791D01*
X257963782Y-147527099D01*
X257939875Y-147532824D01*
X257415797Y-147806816D01*
X256777583Y-148321717D01*
X256174754Y-148931025D01*
X255756830Y-149488235D01*
X255654342Y-149772239D01*
X255566511Y-150210042D01*
X255490139Y-150436342D01*
X255461947Y-150655477D01*
X253375096Y-150655477D01*
X253600671Y-149152225D01*
X254240506Y-147566472D01*
X255217319Y-146390948D01*
X256527041Y-145630497D01*
X258165602Y-145289963D01*
X258223363Y-145286058D01*
X259972731Y-145332569D01*
G36*
X205865834Y-139310622D02*
G01*
X206181777Y-139607225D01*
X206287367Y-140063584D01*
X206374388Y-140933003D01*
X206434265Y-142093898D01*
X206458420Y-143424687D01*
X206458553Y-143530673D01*
X206458553Y-146936962D01*
X207060132Y-146389030D01*
X208031654Y-145669861D01*
X209058375Y-145317704D01*
X210124642Y-145239539D01*
X211100818Y-145306640D01*
X211840875Y-145551170D01*
X212382989Y-146037973D01*
X212765333Y-146831891D01*
X213026083Y-147997767D01*
X213203413Y-149600444D01*
X213272792Y-150586908D01*
X213369523Y-151909416D01*
X213487120Y-153170126D01*
X213607389Y-154186254D01*
X213671606Y-154593691D01*
X213764091Y-155515492D01*
X213678543Y-156185881D01*
X213643731Y-156264743D01*
X213183691Y-156635203D01*
X212510834Y-156732729D01*
X211871938Y-156557727D01*
X211570488Y-156261317D01*
X211374996Y-155664551D01*
X211178215Y-154673066D01*
X210998168Y-153426529D01*
X210852878Y-152064609D01*
X210760370Y-150726974D01*
X210736448Y-149798194D01*
X210682063Y-148579675D01*
X210490508Y-147837304D01*
X210119175Y-147520922D01*
X209525461Y-147580367D01*
X209026000Y-147784435D01*
X208237226Y-148350262D01*
X207473444Y-149218079D01*
X207299856Y-149475378D01*
X206909672Y-150154516D01*
X206661686Y-150801324D01*
X206514983Y-151584652D01*
X206428646Y-152673353D01*
X206404578Y-153169964D01*
X206308972Y-154466730D01*
X206158898Y-155446178D01*
X205970674Y-156006566D01*
X205943556Y-156044175D01*
X205426758Y-156372415D01*
X204782138Y-156456168D01*
X204261305Y-156277897D01*
X204165199Y-156168115D01*
X204118943Y-155832485D01*
X204081081Y-155042651D01*
X204051474Y-153879081D01*
X204029987Y-152422239D01*
X204016483Y-150752592D01*
X204010825Y-148950606D01*
X204012876Y-147096746D01*
X204022500Y-145271478D01*
X204039560Y-143555268D01*
X204063918Y-142028583D01*
X204095439Y-140771887D01*
X204133985Y-139865647D01*
X204179421Y-139390329D01*
X204193789Y-139344703D01*
X204612426Y-139105229D01*
X205250386Y-139104514D01*
X205865834Y-139310622D01*
X205865834Y-139310622D01*
G37*
X205865834Y-139310622D02*
X206181777Y-139607225D01*
X206287367Y-140063584D01*
X206374388Y-140933003D01*
X206434265Y-142093898D01*
X206458420Y-143424687D01*
X206458553Y-143530673D01*
X206458553Y-146936962D01*
X207060132Y-146389030D01*
X208031654Y-145669861D01*
X209058375Y-145317704D01*
X210124642Y-145239539D01*
X211100818Y-145306640D01*
X211840875Y-145551170D01*
X212382989Y-146037973D01*
X212765333Y-146831891D01*
X213026083Y-147997767D01*
X213203413Y-149600444D01*
X213272792Y-150586908D01*
X213369523Y-151909416D01*
X213487120Y-153170126D01*
X213607389Y-154186254D01*
X213671606Y-154593691D01*
X213764091Y-155515492D01*
X213678543Y-156185881D01*
X213643731Y-156264743D01*
X213183691Y-156635203D01*
X212510834Y-156732729D01*
X211871938Y-156557727D01*
X211570488Y-156261317D01*
X211374996Y-155664551D01*
X211178215Y-154673066D01*
X210998168Y-153426529D01*
X210852878Y-152064609D01*
X210760370Y-150726974D01*
X210736448Y-149798194D01*
X210682063Y-148579675D01*
X210490508Y-147837304D01*
X210119175Y-147520922D01*
X209525461Y-147580367D01*
X209026000Y-147784435D01*
X208237226Y-148350262D01*
X207473444Y-149218079D01*
X207299856Y-149475378D01*
X206909672Y-150154516D01*
X206661686Y-150801324D01*
X206514983Y-151584652D01*
X206428646Y-152673353D01*
X206404578Y-153169964D01*
X206308972Y-154466730D01*
X206158898Y-155446178D01*
X205970674Y-156006566D01*
X205943556Y-156044175D01*
X205426758Y-156372415D01*
X204782138Y-156456168D01*
X204261305Y-156277897D01*
X204165199Y-156168115D01*
X204118943Y-155832485D01*
X204081081Y-155042651D01*
X204051474Y-153879081D01*
X204029987Y-152422239D01*
X204016483Y-150752592D01*
X204010825Y-148950606D01*
X204012876Y-147096746D01*
X204022500Y-145271478D01*
X204039560Y-143555268D01*
X204063918Y-142028583D01*
X204095439Y-140771887D01*
X204133985Y-139865647D01*
X204179421Y-139390329D01*
X204193789Y-139344703D01*
X204612426Y-139105229D01*
X205250386Y-139104514D01*
X205865834Y-139310622D01*
G36*
X272467612Y-140097668D02*
G01*
X272772402Y-140439018D01*
X272865854Y-140734202D01*
X272783415Y-141070495D01*
X272469190Y-141536400D01*
X271867283Y-142220417D01*
X271210415Y-142912176D01*
X270171943Y-144055522D01*
X269332725Y-145107344D01*
X268753681Y-145983267D01*
X268495726Y-146598915D01*
X268488026Y-146682880D01*
X268706772Y-146697035D01*
X269239875Y-146553423D01*
X269304338Y-146531365D01*
X270295170Y-146346419D01*
X271494607Y-146346800D01*
X272693895Y-146510970D01*
X273684278Y-146817392D01*
X274039514Y-147019892D01*
X275051331Y-148077953D01*
X275685482Y-149394095D01*
X275956695Y-150863120D01*
X275879695Y-152379830D01*
X275469211Y-153839027D01*
X274739968Y-155135513D01*
X273706693Y-156164090D01*
X272681673Y-156719372D01*
X271740804Y-156922044D01*
X270533202Y-156983636D01*
X269298870Y-156909120D01*
X268277813Y-156703470D01*
X268064297Y-156623709D01*
X266894884Y-155831139D01*
X266043133Y-154616000D01*
X265513510Y-152989144D01*
X265310483Y-150961423D01*
X265313916Y-150722047D01*
X267685921Y-150722047D01*
X267840396Y-152114135D01*
X268267387Y-153302250D01*
X268912247Y-154166234D01*
X269398085Y-154486682D01*
X270509963Y-154710363D01*
X271685131Y-154518572D01*
X272289329Y-154231705D01*
X272915611Y-153562554D01*
X273344887Y-152569958D01*
X273542404Y-151440002D01*
X273473413Y-150358765D01*
X273157185Y-149584595D01*
X272403232Y-148945700D01*
X271339810Y-148625940D01*
X270094792Y-148636757D01*
X268796053Y-148989597D01*
X268421184Y-149160770D01*
X267952712Y-149473539D01*
X267738702Y-149912254D01*
X267685994Y-150674738D01*
X267685921Y-150722047D01*
X265313916Y-150722047D01*
X265324724Y-149968541D01*
X265405960Y-148663606D01*
X265546658Y-147689138D01*
X265794136Y-146841003D01*
X266195709Y-145915070D01*
X266326815Y-145645293D01*
X266985325Y-144500579D01*
X267825885Y-143319065D01*
X268766361Y-142188349D01*
X269724621Y-141196028D01*
X270618531Y-140429701D01*
X271365958Y-139976964D01*
X271721031Y-139892171D01*
X272467612Y-140097668D01*
X272467612Y-140097668D01*
G37*
X272467612Y-140097668D02*
X272772402Y-140439018D01*
X272865854Y-140734202D01*
X272783415Y-141070495D01*
X272469190Y-141536400D01*
X271867283Y-142220417D01*
X271210415Y-142912176D01*
X270171943Y-144055522D01*
X269332725Y-145107344D01*
X268753681Y-145983267D01*
X268495726Y-146598915D01*
X268488026Y-146682880D01*
X268706772Y-146697035D01*
X269239875Y-146553423D01*
X269304338Y-146531365D01*
X270295170Y-146346419D01*
X271494607Y-146346800D01*
X272693895Y-146510970D01*
X273684278Y-146817392D01*
X274039514Y-147019892D01*
X275051331Y-148077953D01*
X275685482Y-149394095D01*
X275956695Y-150863120D01*
X275879695Y-152379830D01*
X275469211Y-153839027D01*
X274739968Y-155135513D01*
X273706693Y-156164090D01*
X272681673Y-156719372D01*
X271740804Y-156922044D01*
X270533202Y-156983636D01*
X269298870Y-156909120D01*
X268277813Y-156703470D01*
X268064297Y-156623709D01*
X266894884Y-155831139D01*
X266043133Y-154616000D01*
X265513510Y-152989144D01*
X265310483Y-150961423D01*
X265313916Y-150722047D01*
X267685921Y-150722047D01*
X267840396Y-152114135D01*
X268267387Y-153302250D01*
X268912247Y-154166234D01*
X269398085Y-154486682D01*
X270509963Y-154710363D01*
X271685131Y-154518572D01*
X272289329Y-154231705D01*
X272915611Y-153562554D01*
X273344887Y-152569958D01*
X273542404Y-151440002D01*
X273473413Y-150358765D01*
X273157185Y-149584595D01*
X272403232Y-148945700D01*
X271339810Y-148625940D01*
X270094792Y-148636757D01*
X268796053Y-148989597D01*
X268421184Y-149160770D01*
X267952712Y-149473539D01*
X267738702Y-149912254D01*
X267685994Y-150674738D01*
X267685921Y-150722047D01*
X265313916Y-150722047D01*
X265324724Y-149968541D01*
X265405960Y-148663606D01*
X265546658Y-147689138D01*
X265794136Y-146841003D01*
X266195709Y-145915070D01*
X266326815Y-145645293D01*
X266985325Y-144500579D01*
X267825885Y-143319065D01*
X268766361Y-142188349D01*
X269724621Y-141196028D01*
X270618531Y-140429701D01*
X271365958Y-139976964D01*
X271721031Y-139892171D01*
X272467612Y-140097668D01*
G36*
X234351361Y-145046410D02*
G01*
X235067219Y-145426116D01*
X235185497Y-145566399D01*
X235438145Y-146201524D01*
X235573493Y-147088518D01*
X235586241Y-148025559D01*
X235471086Y-148810823D01*
X235280869Y-149196592D01*
X234648780Y-149545088D01*
X234022481Y-149442071D01*
X233510999Y-148960706D01*
X233223360Y-148174155D01*
X233195395Y-147797117D01*
X233038471Y-147252665D01*
X232563993Y-147129662D01*
X231766398Y-147427601D01*
X231405185Y-147634090D01*
X230735011Y-148096060D01*
X230247580Y-148603350D01*
X229909724Y-149251288D01*
X229688276Y-150135199D01*
X229550068Y-151350411D01*
X229461931Y-152992252D01*
X229452237Y-153246991D01*
X229318553Y-156870066D01*
X228447767Y-156953985D01*
X227738508Y-156911176D01*
X227439410Y-156679397D01*
X227401190Y-156313099D01*
X227374153Y-155498305D01*
X227359259Y-154321158D01*
X227357467Y-152867802D01*
X227369739Y-151224380D01*
X227374406Y-150847057D01*
X227446974Y-145373224D01*
X228336128Y-145287934D01*
X228984282Y-145297589D01*
X229294777Y-145546270D01*
X229369943Y-145755829D01*
X229499355Y-146196075D01*
X229550263Y-146307894D01*
X229786598Y-146197298D01*
X230358630Y-145913252D01*
X230901234Y-145639473D01*
X232148101Y-145155140D01*
X233338232Y-144956768D01*
X234351361Y-145046410D01*
X234351361Y-145046410D01*
G37*
X234351361Y-145046410D02*
X235067219Y-145426116D01*
X235185497Y-145566399D01*
X235438145Y-146201524D01*
X235573493Y-147088518D01*
X235586241Y-148025559D01*
X235471086Y-148810823D01*
X235280869Y-149196592D01*
X234648780Y-149545088D01*
X234022481Y-149442071D01*
X233510999Y-148960706D01*
X233223360Y-148174155D01*
X233195395Y-147797117D01*
X233038471Y-147252665D01*
X232563993Y-147129662D01*
X231766398Y-147427601D01*
X231405185Y-147634090D01*
X230735011Y-148096060D01*
X230247580Y-148603350D01*
X229909724Y-149251288D01*
X229688276Y-150135199D01*
X229550068Y-151350411D01*
X229461931Y-152992252D01*
X229452237Y-153246991D01*
X229318553Y-156870066D01*
X228447767Y-156953985D01*
X227738508Y-156911176D01*
X227439410Y-156679397D01*
X227401190Y-156313099D01*
X227374153Y-155498305D01*
X227359259Y-154321158D01*
X227357467Y-152867802D01*
X227369739Y-151224380D01*
X227374406Y-150847057D01*
X227446974Y-145373224D01*
X228336128Y-145287934D01*
X228984282Y-145297589D01*
X229294777Y-145546270D01*
X229369943Y-145755829D01*
X229499355Y-146196075D01*
X229550263Y-146307894D01*
X229786598Y-146197298D01*
X230358630Y-145913252D01*
X230901234Y-145639473D01*
X232148101Y-145155140D01*
X233338232Y-144956768D01*
X234351361Y-145046410D01*
G36*
X194097732Y-106659428D02*
G01*
X193993866Y-107706698D01*
X193846032Y-108463338D01*
X193677743Y-108812850D01*
X193661518Y-108820656D01*
X193456673Y-109128916D01*
X193358879Y-109747995D01*
X193357500Y-109835504D01*
X193288828Y-110445125D01*
X193120477Y-110743123D01*
X193090132Y-110749013D01*
X192965925Y-111003208D01*
X192876126Y-111714435D01*
X192828439Y-112805655D01*
X192822763Y-113422697D01*
X192797344Y-114664760D01*
X192726221Y-115562750D01*
X192617099Y-116039629D01*
X192555395Y-116096381D01*
X192338162Y-116320316D01*
X192288026Y-116631118D01*
X192176059Y-117065583D01*
X192020658Y-117165855D01*
X191803426Y-117389789D01*
X191753290Y-117700592D01*
X191641323Y-118135057D01*
X191485921Y-118235329D01*
X191265633Y-118458255D01*
X191218553Y-118747785D01*
X191064415Y-119250877D01*
X190884342Y-119416206D01*
X190687718Y-119591794D01*
X190884342Y-119728136D01*
X191192193Y-120103532D01*
X191218553Y-120262873D01*
X191370261Y-120604138D01*
X191485921Y-120641645D01*
X191703154Y-120865579D01*
X191753290Y-121176381D01*
X191879339Y-121567792D01*
X192348341Y-121705602D01*
X192555395Y-121711118D01*
X193118579Y-121788563D01*
X193357439Y-121975160D01*
X193357500Y-121978487D01*
X193563453Y-122235039D01*
X193643966Y-122245855D01*
X194159892Y-122480545D01*
X194556287Y-123054758D01*
X194694342Y-123697284D01*
X194605139Y-124208816D01*
X194426974Y-124384803D01*
X194274455Y-124625266D01*
X194177649Y-125240094D01*
X194159605Y-125721645D01*
X194207698Y-126484237D01*
X194330664Y-126968271D01*
X194426974Y-127058487D01*
X194644206Y-127282421D01*
X194694342Y-127593224D01*
X194806309Y-128027688D01*
X194961711Y-128127960D01*
X195149439Y-128360295D01*
X195229059Y-128920086D01*
X195229079Y-128930066D01*
X195306524Y-129493250D01*
X195493121Y-129732109D01*
X195496448Y-129732171D01*
X195642868Y-129973914D01*
X195739982Y-130597511D01*
X195763816Y-131202697D01*
X195807769Y-132008008D01*
X195921151Y-132542139D01*
X196031184Y-132673224D01*
X196136578Y-132933656D01*
X196217652Y-133688108D01*
X196271966Y-134896307D01*
X196297078Y-136517983D01*
X196298553Y-137084803D01*
X196282769Y-138823799D01*
X196237045Y-140161520D01*
X196163820Y-141057693D01*
X196065537Y-141472048D01*
X196031184Y-141496381D01*
X195898777Y-141746538D01*
X195805732Y-142429495D01*
X195764707Y-143443983D01*
X195763816Y-143635329D01*
X195732546Y-144694588D01*
X195647177Y-145438951D01*
X195520366Y-145767147D01*
X195496448Y-145774276D01*
X195329021Y-146011472D01*
X195235897Y-146604017D01*
X195229079Y-146843750D01*
X195288378Y-147513457D01*
X195436514Y-147885952D01*
X195496448Y-147913224D01*
X195648966Y-148153687D01*
X195745773Y-148768515D01*
X195763816Y-149250066D01*
X195715723Y-150012658D01*
X195592758Y-150496692D01*
X195496448Y-150586908D01*
X195279215Y-150810842D01*
X195229079Y-151121645D01*
X195134079Y-151556361D01*
X195002581Y-151656381D01*
X194918315Y-151909238D01*
X194825990Y-152610225D01*
X194733377Y-153672974D01*
X194648247Y-155011112D01*
X194589906Y-156242676D01*
X194511264Y-157860970D01*
X194413435Y-159389100D01*
X194305916Y-160705752D01*
X194198207Y-161689613D01*
X194131362Y-162098980D01*
X194024614Y-162991100D01*
X193978997Y-164314628D01*
X193992613Y-165969963D01*
X194063565Y-167857503D01*
X194189956Y-169877648D01*
X194306066Y-171270478D01*
X194364854Y-172457383D01*
X194285516Y-173196504D01*
X194183719Y-173396057D01*
X193974697Y-173855991D01*
X193892237Y-174510831D01*
X193691858Y-175336258D01*
X193357500Y-175719539D01*
X192943015Y-176149325D01*
X192822763Y-176459138D01*
X192621085Y-176929954D01*
X192140096Y-177484440D01*
X191565864Y-177942892D01*
X191097022Y-178125855D01*
X190733485Y-178266518D01*
X190683816Y-178393224D01*
X190459882Y-178610456D01*
X190149079Y-178660592D01*
X189714614Y-178772559D01*
X189614342Y-178927960D01*
X189377146Y-179095387D01*
X188784601Y-179188511D01*
X188544869Y-179195329D01*
X187875161Y-179254628D01*
X187502666Y-179402764D01*
X187475395Y-179462697D01*
X187224052Y-179592905D01*
X186532771Y-179685112D01*
X185495670Y-179728246D01*
X185202763Y-179730066D01*
X184096001Y-179700496D01*
X183312241Y-179619169D01*
X182945602Y-179497157D01*
X182930132Y-179462697D01*
X182682837Y-179325544D01*
X182020040Y-179230772D01*
X181060369Y-179195329D01*
X181058553Y-179195329D01*
X180098478Y-179160001D01*
X179435076Y-179065316D01*
X179186975Y-178928220D01*
X179186974Y-178927960D01*
X178963040Y-178710728D01*
X178652237Y-178660592D01*
X178217772Y-178548625D01*
X178117500Y-178393224D01*
X177900457Y-178157166D01*
X177709411Y-178125855D01*
X177287839Y-177935685D01*
X176673385Y-177453410D01*
X175998403Y-176811385D01*
X175395247Y-176141964D01*
X174996271Y-175577501D01*
X174909079Y-175325523D01*
X174766879Y-174965225D01*
X174641711Y-174917434D01*
X174544314Y-175179626D01*
X174467499Y-175946180D01*
X174412731Y-177187062D01*
X174381474Y-178872241D01*
X174374342Y-180398487D01*
X174374342Y-185879539D01*
X172101711Y-185879539D01*
X170994948Y-185909109D01*
X170211188Y-185990436D01*
X169844549Y-186112448D01*
X169829079Y-186146908D01*
X169564162Y-186225828D01*
X168778911Y-186291543D01*
X167487576Y-186343648D01*
X165704405Y-186381734D01*
X163443649Y-186405395D01*
X160719558Y-186414223D01*
X160471184Y-186414276D01*
X157708988Y-186406707D01*
X155408935Y-186384271D01*
X153585277Y-186347376D01*
X152252261Y-186296428D01*
X151424138Y-186231835D01*
X151115158Y-186154004D01*
X151113290Y-186146908D01*
X150865995Y-186009754D01*
X150203198Y-185914982D01*
X149243527Y-185879539D01*
X149241711Y-185879539D01*
X148281636Y-185844212D01*
X147618233Y-185749526D01*
X147370132Y-185612430D01*
X147370132Y-185612171D01*
X147126597Y-185469755D01*
X146490397Y-185373202D01*
X145765921Y-185344803D01*
X144919859Y-185307956D01*
X144338570Y-185212184D01*
X144161711Y-185101436D01*
X143915223Y-184971004D01*
X143257395Y-184832123D01*
X142310680Y-184708106D01*
X141889079Y-184668759D01*
X140862824Y-184557705D01*
X140077630Y-184424064D01*
X139655939Y-184290736D01*
X139616448Y-184243705D01*
X139383982Y-184078142D01*
X138823923Y-184007977D01*
X138814342Y-184007960D01*
X138251158Y-183930515D01*
X138012299Y-183743918D01*
X138012237Y-183740592D01*
X137779902Y-183552864D01*
X137220111Y-183473244D01*
X137210132Y-183473224D01*
X136646947Y-183395779D01*
X136408088Y-183209182D01*
X136408026Y-183205855D01*
X136175692Y-183018127D01*
X135615900Y-182938507D01*
X135605921Y-182938487D01*
X135042737Y-182861042D01*
X134803878Y-182674445D01*
X134803816Y-182671118D01*
X134579882Y-182453886D01*
X134269079Y-182403750D01*
X133834614Y-182291783D01*
X133734342Y-182136381D01*
X133502008Y-181948653D01*
X132942216Y-181869034D01*
X132932237Y-181869013D01*
X132417921Y-181826780D01*
X132189285Y-181597920D01*
X132131397Y-181029187D01*
X132130132Y-180799539D01*
X132153806Y-180532171D01*
X132664869Y-180532171D01*
X132748902Y-181119287D01*
X133061569Y-181326001D01*
X133199605Y-181334276D01*
X133634070Y-181446243D01*
X133734342Y-181601645D01*
X133958276Y-181818877D01*
X134269079Y-181869013D01*
X134703544Y-181980980D01*
X134803816Y-182136381D01*
X135036151Y-182324110D01*
X135595942Y-182403729D01*
X135605921Y-182403750D01*
X136169105Y-182481195D01*
X136407965Y-182667792D01*
X136408026Y-182671118D01*
X136640361Y-182858846D01*
X137200153Y-182938466D01*
X137210132Y-182938487D01*
X137773316Y-183015932D01*
X138012175Y-183202529D01*
X138012237Y-183205855D01*
X138249433Y-183373282D01*
X138841978Y-183466406D01*
X139081711Y-183473224D01*
X139751487Y-183527476D01*
X140123955Y-183663001D01*
X140151184Y-183717780D01*
X140396249Y-183857540D01*
X141044596Y-184004742D01*
X141965949Y-184131291D01*
X142156448Y-184150245D01*
X143114093Y-184268819D01*
X143822918Y-184411526D01*
X144152660Y-184550835D01*
X144161711Y-184574110D01*
X144404600Y-184698555D01*
X145035923Y-184784054D01*
X145765921Y-184810066D01*
X146620416Y-184850655D01*
X147199733Y-184956688D01*
X147370132Y-185077434D01*
X147617426Y-185214588D01*
X148280223Y-185309359D01*
X149239895Y-185344802D01*
X149241711Y-185344803D01*
X150201786Y-185380130D01*
X150865188Y-185474816D01*
X151113289Y-185611911D01*
X151113290Y-185612171D01*
X151369585Y-185731138D01*
X152095424Y-185818688D01*
X153226237Y-185869205D01*
X154188026Y-185879539D01*
X155556147Y-185857253D01*
X156562968Y-185794136D01*
X157143919Y-185695805D01*
X157262763Y-185612171D01*
X157038829Y-185394938D01*
X156728026Y-185344803D01*
X156293562Y-185232835D01*
X156193290Y-185077434D01*
X155969355Y-184860202D01*
X155658553Y-184810066D01*
X155223972Y-184705569D01*
X155123816Y-184560715D01*
X154903150Y-184289188D01*
X154589079Y-184141645D01*
X154162469Y-183790334D01*
X154054342Y-183187838D01*
X153975261Y-182632490D01*
X153786974Y-182403750D01*
X153654566Y-182153593D01*
X153561521Y-181470636D01*
X153520497Y-180456148D01*
X153519605Y-180264803D01*
X153488336Y-179205543D01*
X153402966Y-178461180D01*
X153276155Y-178132985D01*
X153252237Y-178125855D01*
X153122030Y-177874513D01*
X153029823Y-177183231D01*
X152986689Y-176146131D01*
X152984869Y-175853224D01*
X152988440Y-175719539D01*
X153519605Y-175719539D01*
X153554933Y-176679614D01*
X153649618Y-177343017D01*
X153786714Y-177591118D01*
X153786974Y-177591118D01*
X153919381Y-177841275D01*
X154012427Y-178524232D01*
X154053451Y-179538720D01*
X154054342Y-179730066D01*
X154085612Y-180789325D01*
X154170981Y-181533688D01*
X154297792Y-181861884D01*
X154321711Y-181869013D01*
X154514976Y-182099915D01*
X154589079Y-182612094D01*
X154816287Y-183390991D01*
X155156576Y-183748410D01*
X155740359Y-184188752D01*
X156073268Y-184475855D01*
X156599391Y-184735212D01*
X157109981Y-184810066D01*
X157641085Y-184925686D01*
X157797328Y-185337293D01*
X157797500Y-185359538D01*
X157812703Y-185540850D01*
X157902924Y-185675149D01*
X158135081Y-185767313D01*
X158576092Y-185822218D01*
X159292876Y-185844742D01*
X160352350Y-185839764D01*
X161821432Y-185812160D01*
X163479079Y-185773673D01*
X165302870Y-185724143D01*
X167067391Y-185665138D01*
X168658480Y-185601308D01*
X169961973Y-185537303D01*
X170863708Y-185477772D01*
X170965395Y-185468756D01*
X171868664Y-185350826D01*
X172515986Y-185203246D01*
X172770006Y-185057535D01*
X172770132Y-185054620D01*
X172994268Y-184855857D01*
X173304869Y-184810066D01*
X173482692Y-184789793D01*
X173615994Y-184684137D01*
X173711180Y-184425842D01*
X173774655Y-183947652D01*
X173812824Y-183182309D01*
X173832093Y-182062557D01*
X173838867Y-180521141D01*
X173839605Y-179195329D01*
X173827112Y-177168353D01*
X173790555Y-175565434D01*
X173731317Y-174415630D01*
X173650783Y-173748001D01*
X173572237Y-173580592D01*
X173382473Y-173348778D01*
X173304869Y-172800767D01*
X173219499Y-172213193D01*
X173024638Y-171927533D01*
X172847800Y-171631879D01*
X172680607Y-170963945D01*
X172586180Y-170301042D01*
X172464853Y-169477052D01*
X172313457Y-168920545D01*
X172197989Y-168767960D01*
X172066794Y-168527438D01*
X171983533Y-167912477D01*
X171968026Y-167431118D01*
X171919934Y-166668526D01*
X171796968Y-166184492D01*
X171700658Y-166094276D01*
X171548140Y-165853812D01*
X171451333Y-165238985D01*
X171433290Y-164757434D01*
X171385197Y-163994842D01*
X171262231Y-163510808D01*
X171165921Y-163420592D01*
X170989199Y-163185554D01*
X170900862Y-162607612D01*
X170898553Y-162484803D01*
X170831399Y-161866274D01*
X170666273Y-161557095D01*
X170631184Y-161549013D01*
X170443456Y-161316678D01*
X170363836Y-160756887D01*
X170363816Y-160746908D01*
X170286371Y-160183723D01*
X170099774Y-159944864D01*
X170096448Y-159944803D01*
X169870881Y-159723705D01*
X169829079Y-159469090D01*
X169627351Y-158952168D01*
X169294342Y-158607960D01*
X168876721Y-158127494D01*
X168759605Y-157746831D01*
X168635340Y-157345495D01*
X168492237Y-157271118D01*
X168257008Y-157053731D01*
X168224869Y-156857913D01*
X168039138Y-156394806D01*
X167597157Y-155828674D01*
X167071740Y-155345801D01*
X166635700Y-155132467D01*
X166623899Y-155132171D01*
X166198517Y-154930814D01*
X165631892Y-154431091D01*
X165063882Y-153789525D01*
X164634350Y-153162640D01*
X164481711Y-152734767D01*
X164371390Y-152295487D01*
X164214342Y-152191118D01*
X164026614Y-151958784D01*
X163946994Y-151398992D01*
X163946974Y-151389013D01*
X163869529Y-150825829D01*
X163682932Y-150586969D01*
X163679605Y-150586908D01*
X163491877Y-150354573D01*
X163412258Y-149794782D01*
X163412237Y-149784803D01*
X163334792Y-149221618D01*
X163148195Y-148982759D01*
X163144869Y-148982697D01*
X162957140Y-148750363D01*
X162877521Y-148190571D01*
X162877500Y-148180592D01*
X162800055Y-147617408D01*
X162613458Y-147378548D01*
X162610132Y-147378487D01*
X162457613Y-147138023D01*
X162360807Y-146523195D01*
X162342763Y-146041645D01*
X162299829Y-145200954D01*
X162151180Y-144790348D01*
X161941711Y-144704803D01*
X161615095Y-144927706D01*
X161540658Y-145239539D01*
X161428691Y-145674004D01*
X161273290Y-145774276D01*
X161140882Y-146024433D01*
X161047837Y-146707390D01*
X161006812Y-147721878D01*
X161005921Y-147913224D01*
X160974652Y-148972483D01*
X160889282Y-149716846D01*
X160762471Y-150045041D01*
X160738553Y-150052171D01*
X160550825Y-150284506D01*
X160471205Y-150844297D01*
X160471184Y-150854276D01*
X160393739Y-151417460D01*
X160207142Y-151656320D01*
X160203816Y-151656381D01*
X160002829Y-151885190D01*
X159936448Y-152324803D01*
X159844924Y-152827271D01*
X159669079Y-152993224D01*
X159501652Y-153230420D01*
X159408528Y-153822965D01*
X159401711Y-154062697D01*
X159342412Y-154732404D01*
X159194275Y-155104900D01*
X159134342Y-155132171D01*
X158946614Y-155364506D01*
X158866994Y-155924297D01*
X158866974Y-155934276D01*
X158789529Y-156497460D01*
X158602932Y-156736320D01*
X158599605Y-156736381D01*
X158432179Y-156973577D01*
X158339055Y-157566123D01*
X158332237Y-157805855D01*
X158272938Y-158475562D01*
X158124802Y-158848058D01*
X158064869Y-158875329D01*
X157897442Y-159112525D01*
X157804318Y-159705070D01*
X157797500Y-159944803D01*
X157738201Y-160614510D01*
X157590065Y-160987005D01*
X157530132Y-161014276D01*
X157353409Y-161249314D01*
X157265073Y-161827256D01*
X157262763Y-161950066D01*
X157195610Y-162568594D01*
X157030483Y-162877773D01*
X156995395Y-162885855D01*
X156807667Y-163118190D01*
X156728047Y-163677981D01*
X156728026Y-163687960D01*
X156650582Y-164251145D01*
X156463984Y-164490004D01*
X156460658Y-164490066D01*
X156272930Y-164722400D01*
X156193310Y-165282192D01*
X156193290Y-165292171D01*
X156115845Y-165855355D01*
X155929248Y-166094215D01*
X155925921Y-166094276D01*
X155738193Y-166326611D01*
X155658573Y-166886402D01*
X155658553Y-166896381D01*
X155581108Y-167459566D01*
X155394511Y-167698425D01*
X155391184Y-167698487D01*
X155203456Y-167930821D01*
X155123836Y-168490613D01*
X155123816Y-168500592D01*
X155046371Y-169063776D01*
X154859774Y-169302636D01*
X154856448Y-169302697D01*
X154689021Y-169539893D01*
X154595897Y-170132438D01*
X154589079Y-170372171D01*
X154529780Y-171041878D01*
X154381644Y-171414374D01*
X154321711Y-171441645D01*
X154162258Y-171680615D01*
X154066611Y-172285238D01*
X154054342Y-172644803D01*
X154001238Y-173362337D01*
X153866877Y-173792753D01*
X153786974Y-173847960D01*
X153649820Y-174095255D01*
X153555049Y-174758052D01*
X153519606Y-175717723D01*
X153519605Y-175719539D01*
X152988440Y-175719539D01*
X153014438Y-174746461D01*
X153095765Y-173962701D01*
X153217777Y-173596062D01*
X153252237Y-173580592D01*
X153404755Y-173340128D01*
X153501562Y-172725301D01*
X153519605Y-172243750D01*
X153567698Y-171481157D01*
X153690664Y-170997124D01*
X153786974Y-170906908D01*
X153954401Y-170669712D01*
X154047524Y-170077167D01*
X154054342Y-169837434D01*
X154113641Y-169167727D01*
X154261778Y-168795231D01*
X154321711Y-168767960D01*
X154509439Y-168535626D01*
X154589059Y-167975834D01*
X154589079Y-167965855D01*
X154666524Y-167402671D01*
X154853121Y-167163811D01*
X154856448Y-167163750D01*
X155044176Y-166931415D01*
X155123795Y-166371624D01*
X155123816Y-166361645D01*
X155201261Y-165798460D01*
X155387858Y-165559601D01*
X155391184Y-165559539D01*
X155578912Y-165327205D01*
X155658532Y-164767413D01*
X155658553Y-164757434D01*
X155735998Y-164194250D01*
X155922595Y-163955390D01*
X155925921Y-163955329D01*
X156126908Y-163726520D01*
X156193290Y-163286908D01*
X156284813Y-162784440D01*
X156460658Y-162618487D01*
X156628085Y-162381291D01*
X156721209Y-161788746D01*
X156728026Y-161549013D01*
X156787325Y-160879306D01*
X156935462Y-160506810D01*
X156995395Y-160479539D01*
X157162822Y-160242343D01*
X157255946Y-159649798D01*
X157262763Y-159410066D01*
X157322062Y-158740358D01*
X157470199Y-158367863D01*
X157530132Y-158340592D01*
X157697559Y-158103396D01*
X157790682Y-157510851D01*
X157797500Y-157271118D01*
X157856799Y-156601411D01*
X158004935Y-156228916D01*
X158064869Y-156201645D01*
X158252597Y-155969310D01*
X158332216Y-155409519D01*
X158332237Y-155399539D01*
X158409682Y-154836355D01*
X158596279Y-154597496D01*
X158599605Y-154597434D01*
X158767032Y-154360238D01*
X158860156Y-153767693D01*
X158866974Y-153527960D01*
X158926273Y-152858253D01*
X159074409Y-152485758D01*
X159134342Y-152458487D01*
X159335330Y-152229678D01*
X159401711Y-151790066D01*
X159493234Y-151287597D01*
X159669079Y-151121645D01*
X159856807Y-150889310D01*
X159936427Y-150329519D01*
X159936448Y-150319539D01*
X160013892Y-149756355D01*
X160200490Y-149517496D01*
X160203816Y-149517434D01*
X160336223Y-149267277D01*
X160429269Y-148584321D01*
X160470293Y-147569833D01*
X160471184Y-147378487D01*
X160502454Y-146319227D01*
X160587824Y-145574865D01*
X160714635Y-145246669D01*
X160738553Y-145239539D01*
X160955785Y-145015605D01*
X161005921Y-144704803D01*
X161110418Y-144270222D01*
X161255272Y-144170066D01*
X161526799Y-143949399D01*
X161674342Y-143635329D01*
X161941130Y-143177426D01*
X162212057Y-143168073D01*
X162342512Y-143607268D01*
X162342763Y-143635329D01*
X162454730Y-144069794D01*
X162610132Y-144170066D01*
X162762650Y-144410529D01*
X162859457Y-145025357D01*
X162877500Y-145506908D01*
X162925593Y-146269500D01*
X163048558Y-146753534D01*
X163144869Y-146843750D01*
X163332597Y-147076085D01*
X163412216Y-147635876D01*
X163412237Y-147645855D01*
X163489682Y-148209039D01*
X163676279Y-148447899D01*
X163679605Y-148447960D01*
X163867333Y-148680295D01*
X163946953Y-149240086D01*
X163946974Y-149250066D01*
X164024419Y-149813250D01*
X164211016Y-150052109D01*
X164214342Y-150052171D01*
X164402070Y-150284506D01*
X164481690Y-150844297D01*
X164481711Y-150854276D01*
X164559156Y-151417460D01*
X164745753Y-151656320D01*
X164749079Y-151656381D01*
X164965119Y-151880700D01*
X165016448Y-152200031D01*
X165196068Y-152674990D01*
X165641820Y-153308596D01*
X166214045Y-153944312D01*
X166773081Y-154425603D01*
X167155395Y-154597434D01*
X167596194Y-154803042D01*
X168166705Y-155314726D01*
X168730472Y-155974778D01*
X169151038Y-156625488D01*
X169294342Y-157069498D01*
X169500442Y-157704937D01*
X169829079Y-158073224D01*
X170246700Y-158553690D01*
X170363816Y-158934353D01*
X170488081Y-159335689D01*
X170631184Y-159410066D01*
X170818912Y-159642400D01*
X170898532Y-160202192D01*
X170898553Y-160212171D01*
X170975998Y-160775355D01*
X171162595Y-161014215D01*
X171165921Y-161014276D01*
X171342644Y-161249314D01*
X171430980Y-161827256D01*
X171433290Y-161950066D01*
X171500443Y-162568594D01*
X171665569Y-162877773D01*
X171700658Y-162885855D01*
X171853177Y-163126319D01*
X171949983Y-163741146D01*
X171968026Y-164222697D01*
X172009925Y-164985367D01*
X172117052Y-165469393D01*
X172200909Y-165559539D01*
X172322728Y-165806640D01*
X172453998Y-166468588D01*
X172573888Y-167426353D01*
X172622033Y-167965855D01*
X172730276Y-169024883D01*
X172862560Y-169846217D01*
X172997340Y-170310814D01*
X173057572Y-170372171D01*
X173258556Y-170596284D01*
X173304869Y-170906908D01*
X173416836Y-171341373D01*
X173572237Y-171441645D01*
X173759965Y-171673979D01*
X173839585Y-172233771D01*
X173839605Y-172243750D01*
X173917050Y-172806934D01*
X174103647Y-173045794D01*
X174106974Y-173045855D01*
X174344178Y-173262412D01*
X174374342Y-173446908D01*
X174518714Y-173802713D01*
X174641711Y-173847960D01*
X174858943Y-174071895D01*
X174909079Y-174382697D01*
X175021046Y-174817162D01*
X175176448Y-174917434D01*
X175412201Y-175134604D01*
X175443816Y-175327399D01*
X175638099Y-175782529D01*
X176118914Y-176389090D01*
X176733207Y-176994030D01*
X177327928Y-177444296D01*
X177707535Y-177591118D01*
X178069023Y-177732751D01*
X178117500Y-177858487D01*
X178341434Y-178075719D01*
X178652237Y-178125855D01*
X179086702Y-178237822D01*
X179186974Y-178393224D01*
X179438316Y-178523431D01*
X180129598Y-178615638D01*
X181166698Y-178658772D01*
X181459605Y-178660592D01*
X182566368Y-178690162D01*
X183350128Y-178771489D01*
X183716767Y-178893501D01*
X183732237Y-178927960D01*
X183972701Y-179080479D01*
X184587528Y-179177286D01*
X185069079Y-179195329D01*
X185831672Y-179147236D01*
X186315705Y-179024271D01*
X186405921Y-178927960D01*
X186649456Y-178785545D01*
X187285655Y-178688992D01*
X188010132Y-178660592D01*
X188864626Y-178620003D01*
X189443943Y-178513970D01*
X189614342Y-178393224D01*
X189831730Y-178157994D01*
X190027548Y-178125855D01*
X190535566Y-177922992D01*
X191116180Y-177438225D01*
X191583414Y-176857286D01*
X191753290Y-176402379D01*
X191960108Y-175949190D01*
X192288026Y-175657490D01*
X192637932Y-175239834D01*
X192811758Y-174659870D01*
X192787454Y-174120374D01*
X192542970Y-173824123D01*
X192488553Y-173813457D01*
X192030461Y-173803786D01*
X191274655Y-173820330D01*
X190948158Y-173833323D01*
X189906955Y-173785567D01*
X189203230Y-173483916D01*
X188780247Y-172856968D01*
X188581274Y-171833323D01*
X188544869Y-170808705D01*
X188557081Y-169772586D01*
X188612920Y-169161073D01*
X188741190Y-168864239D01*
X188970695Y-168772159D01*
X189079605Y-168767960D01*
X189514070Y-168655993D01*
X189614342Y-168500592D01*
X189846677Y-168312864D01*
X190406468Y-168233244D01*
X190416448Y-168233224D01*
X190979632Y-168310668D01*
X191218491Y-168497266D01*
X191218553Y-168500592D01*
X191450887Y-168688320D01*
X192010679Y-168767940D01*
X192020658Y-168767960D01*
X192822763Y-168767960D01*
X192822763Y-170906908D01*
X192840352Y-171900264D01*
X192887094Y-172648273D01*
X192953950Y-173024401D01*
X192975545Y-173045855D01*
X193267273Y-172879940D01*
X193510282Y-172663900D01*
X193740263Y-172219809D01*
X193866386Y-171575649D01*
X193878839Y-170927670D01*
X193767808Y-170472123D01*
X193624869Y-170372171D01*
X193529196Y-170109652D01*
X193453343Y-169340856D01*
X193398617Y-168093920D01*
X193366328Y-166396983D01*
X193357500Y-164623750D01*
X193368095Y-162911029D01*
X193397811Y-161408439D01*
X193443548Y-160190593D01*
X193502205Y-159332102D01*
X193570681Y-158907579D01*
X193596406Y-158875329D01*
X193687037Y-158622774D01*
X193786158Y-157923811D01*
X193885118Y-156866495D01*
X193975262Y-155538882D01*
X194029909Y-154463750D01*
X194108105Y-152995910D01*
X194200949Y-151734893D01*
X194299868Y-150768751D01*
X194396289Y-150185540D01*
X194459424Y-150052171D01*
X194562873Y-149804745D01*
X194643080Y-149141984D01*
X194688399Y-148183165D01*
X194694342Y-147645855D01*
X194722387Y-146492848D01*
X194800018Y-145670369D01*
X194917483Y-145266194D01*
X194961711Y-145239539D01*
X195098864Y-144992245D01*
X195193636Y-144329448D01*
X195229079Y-143369776D01*
X195229079Y-143367960D01*
X195264407Y-142407886D01*
X195359092Y-141744483D01*
X195496188Y-141496382D01*
X195496448Y-141496381D01*
X195631168Y-141247564D01*
X195725068Y-140574030D01*
X195763566Y-139585154D01*
X195763816Y-139491118D01*
X195744212Y-138532566D01*
X195692355Y-137823502D01*
X195618678Y-137494601D01*
X195603718Y-137485855D01*
X195337749Y-137663358D01*
X194867617Y-138106902D01*
X194694342Y-138287960D01*
X194018901Y-138857384D01*
X193267135Y-139073254D01*
X192849177Y-139090066D01*
X192169775Y-139032104D01*
X191785448Y-138886913D01*
X191753290Y-138822697D01*
X191535445Y-138588583D01*
X191333139Y-138555329D01*
X190686954Y-138326350D01*
X190293642Y-137635327D01*
X190149897Y-136476135D01*
X190149079Y-136360819D01*
X190198231Y-135430698D01*
X190377363Y-134867545D01*
X190523710Y-134713419D01*
X192314189Y-134713419D01*
X192482124Y-135303857D01*
X192622237Y-135481707D01*
X193051801Y-135830295D01*
X193319323Y-135787192D01*
X193357500Y-135614276D01*
X193574057Y-135377072D01*
X193758553Y-135346908D01*
X194101402Y-135141235D01*
X194121210Y-134577230D01*
X193997316Y-134165617D01*
X193630720Y-133791450D01*
X193083740Y-133834430D01*
X192669981Y-134124652D01*
X192314189Y-134713419D01*
X190523710Y-134713419D01*
X190683816Y-134544803D01*
X191098484Y-134112163D01*
X191218553Y-133798260D01*
X191455435Y-133218440D01*
X192044708Y-132798474D01*
X192657401Y-132673224D01*
X193349124Y-132769543D01*
X194045020Y-133005297D01*
X194552712Y-133300679D01*
X194694342Y-133518245D01*
X194899028Y-133736427D01*
X194961711Y-133742697D01*
X195114229Y-133502233D01*
X195211036Y-132887406D01*
X195229079Y-132405855D01*
X195180986Y-131643263D01*
X195058021Y-131159229D01*
X194961711Y-131069013D01*
X194760723Y-130840204D01*
X194694342Y-130400592D01*
X194602819Y-129898124D01*
X194426974Y-129732171D01*
X194210110Y-129504995D01*
X194138497Y-129130592D01*
X194076813Y-128793214D01*
X193982532Y-128863224D01*
X193641295Y-129177857D01*
X193183485Y-129161211D01*
X192859132Y-128856516D01*
X192822763Y-128662697D01*
X192710796Y-128228232D01*
X192555395Y-128127960D01*
X192320165Y-127910573D01*
X192288026Y-127714755D01*
X192084836Y-127205926D01*
X191599246Y-126625061D01*
X191017232Y-126158132D01*
X190562285Y-125989013D01*
X190198748Y-125848350D01*
X190149079Y-125721645D01*
X189927982Y-125496079D01*
X189673366Y-125454276D01*
X189156444Y-125252548D01*
X188812237Y-124919539D01*
X188331771Y-124501918D01*
X187951108Y-124384803D01*
X187549771Y-124260538D01*
X187475395Y-124117434D01*
X187251461Y-123900202D01*
X186940658Y-123850066D01*
X186506193Y-123738099D01*
X186405921Y-123582697D01*
X186181987Y-123365465D01*
X185871184Y-123315329D01*
X185436719Y-123203362D01*
X185336448Y-123047960D01*
X185112513Y-122830728D01*
X184801711Y-122780592D01*
X184367246Y-122892559D01*
X184266974Y-123047960D01*
X184043040Y-123265193D01*
X183732237Y-123315329D01*
X183297772Y-123203362D01*
X183197500Y-123047960D01*
X182980943Y-122810757D01*
X182796448Y-122780592D01*
X182440642Y-122636221D01*
X182395395Y-122513224D01*
X182171461Y-122295991D01*
X181860658Y-122245855D01*
X181426193Y-122133888D01*
X181325921Y-121978487D01*
X181104824Y-121752921D01*
X180850208Y-121711118D01*
X180333286Y-121509390D01*
X179989079Y-121176381D01*
X179508613Y-120758760D01*
X179127950Y-120641645D01*
X178726875Y-120855733D01*
X178652237Y-121176381D01*
X178480960Y-121615253D01*
X178242272Y-121711118D01*
X177768472Y-121511948D01*
X177155824Y-121017752D01*
X176554352Y-120383500D01*
X176114079Y-119764165D01*
X175978553Y-119372739D01*
X175776545Y-118848452D01*
X175443816Y-118502697D01*
X175029147Y-118070058D01*
X174909079Y-117756154D01*
X174686475Y-117205864D01*
X174173187Y-116761918D01*
X173725019Y-116631118D01*
X173357125Y-116492490D01*
X173304869Y-116363750D01*
X173099789Y-116106069D01*
X173025347Y-116096381D01*
X172601214Y-116296404D01*
X172079974Y-116772259D01*
X171633515Y-117337624D01*
X171433725Y-117806179D01*
X171433290Y-117822123D01*
X171292627Y-118185660D01*
X171165921Y-118235329D01*
X170978193Y-118467664D01*
X170898573Y-119027455D01*
X170898553Y-119037434D01*
X170814520Y-119624550D01*
X170501852Y-119831264D01*
X170363816Y-119839539D01*
X170013972Y-119749854D01*
X169859354Y-119387363D01*
X169829079Y-118770066D01*
X169769780Y-118100358D01*
X169621644Y-117727863D01*
X169561711Y-117700592D01*
X169344478Y-117476658D01*
X169294342Y-117165855D01*
X169182375Y-116731390D01*
X169026974Y-116631118D01*
X168833708Y-116400216D01*
X168759605Y-115888037D01*
X168744800Y-115833746D01*
X189092038Y-115833746D01*
X189101397Y-116567413D01*
X189196159Y-117276906D01*
X189371962Y-117778969D01*
X189413816Y-117835391D01*
X189924403Y-118182224D01*
X190403299Y-118175539D01*
X190670950Y-117834394D01*
X190683816Y-117700592D01*
X190795783Y-117266127D01*
X190951184Y-117165855D01*
X191168417Y-116941921D01*
X191218553Y-116631118D01*
X191330520Y-116196653D01*
X191485921Y-116096381D01*
X191703154Y-115872447D01*
X191753290Y-115561645D01*
X191865257Y-115127180D01*
X192020658Y-115026908D01*
X192148770Y-114774509D01*
X192240156Y-114075829D01*
X192285065Y-113018644D01*
X192288026Y-112620592D01*
X192316071Y-111467585D01*
X192393702Y-110645106D01*
X192511167Y-110240931D01*
X192555395Y-110214276D01*
X192756382Y-109985468D01*
X192822763Y-109545855D01*
X192770337Y-109042900D01*
X192669981Y-108877434D01*
X192341388Y-109065682D01*
X191961527Y-109468029D01*
X191755646Y-109840884D01*
X191753290Y-109868786D01*
X191559603Y-110183226D01*
X191218553Y-110481645D01*
X190800931Y-110962111D01*
X190683816Y-111342774D01*
X190559551Y-111744110D01*
X190416448Y-111818487D01*
X190199215Y-112042421D01*
X190149079Y-112353224D01*
X190037112Y-112787688D01*
X189881711Y-112887960D01*
X189714284Y-113125156D01*
X189621160Y-113717702D01*
X189614342Y-113957434D01*
X189555043Y-114627141D01*
X189406907Y-114999637D01*
X189346974Y-115026908D01*
X189172443Y-115259160D01*
X189092038Y-115833746D01*
X168744800Y-115833746D01*
X168556006Y-115141433D01*
X168224869Y-114759539D01*
X167807247Y-114279073D01*
X167690132Y-113898410D01*
X167565867Y-113497074D01*
X167422763Y-113422697D01*
X167189813Y-113204385D01*
X167155395Y-112995231D01*
X166971708Y-112552182D01*
X166514628Y-111977947D01*
X166353290Y-111818487D01*
X165845587Y-111260478D01*
X165568515Y-110793074D01*
X165551184Y-110700766D01*
X165350394Y-110281006D01*
X164983687Y-109939090D01*
X164399905Y-109498748D01*
X164066995Y-109211645D01*
X163676206Y-108918653D01*
X163477254Y-109041939D01*
X163413676Y-109633377D01*
X163412237Y-109813224D01*
X163479391Y-110431752D01*
X163644517Y-110740931D01*
X163679605Y-110749013D01*
X163832124Y-110989477D01*
X163928931Y-111604304D01*
X163946974Y-112085855D01*
X163995067Y-112848448D01*
X164118032Y-113332481D01*
X164214342Y-113422697D01*
X164366861Y-113663161D01*
X164463667Y-114277989D01*
X164481711Y-114759539D01*
X164529803Y-115522132D01*
X164652769Y-116006165D01*
X164749079Y-116096381D01*
X164936807Y-116328716D01*
X165016427Y-116888508D01*
X165016448Y-116898487D01*
X164932414Y-117485603D01*
X164619747Y-117692317D01*
X164481711Y-117700592D01*
X164047246Y-117588625D01*
X163946974Y-117433224D01*
X163723040Y-117215991D01*
X163412237Y-117165855D01*
X162977772Y-117053888D01*
X162877500Y-116898487D01*
X162653566Y-116681254D01*
X162342763Y-116631118D01*
X161908298Y-116743085D01*
X161808026Y-116898487D01*
X161596187Y-117145616D01*
X161465998Y-117165855D01*
X161058777Y-117363305D01*
X160738553Y-117700592D01*
X160310097Y-118114991D01*
X160002195Y-118235329D01*
X159611902Y-118408283D01*
X159029053Y-118845774D01*
X158742864Y-119104276D01*
X157975495Y-119813138D01*
X157196596Y-120495617D01*
X157021879Y-120641645D01*
X156495680Y-121170036D01*
X156215100Y-121637515D01*
X156201287Y-121718936D01*
X155994988Y-122181446D01*
X155658553Y-122513224D01*
X155243692Y-122948875D01*
X155123816Y-123267082D01*
X154941504Y-123670597D01*
X154487424Y-124222043D01*
X154321711Y-124384803D01*
X153814008Y-124942812D01*
X153536936Y-125410215D01*
X153519605Y-125502523D01*
X153321299Y-125931300D01*
X152984869Y-126256381D01*
X152568751Y-126712039D01*
X152450132Y-127058487D01*
X152250286Y-127527135D01*
X151916920Y-127859493D01*
X151472650Y-128483433D01*
X151214053Y-129522727D01*
X151072020Y-130265114D01*
X150899899Y-130726540D01*
X150811476Y-130801645D01*
X150657491Y-131036789D01*
X150580554Y-131614956D01*
X150578553Y-131737434D01*
X150511399Y-132355963D01*
X150346273Y-132665141D01*
X150311184Y-132673224D01*
X150143758Y-132910420D01*
X150050634Y-133502965D01*
X150043816Y-133742697D01*
X149984517Y-134412404D01*
X149836381Y-134784900D01*
X149776448Y-134812171D01*
X149671054Y-135072604D01*
X149589980Y-135827055D01*
X149535666Y-137035254D01*
X149510554Y-138656930D01*
X149509079Y-139223750D01*
X149500328Y-140691928D01*
X149476111Y-141953161D01*
X149439479Y-142919330D01*
X149393483Y-143502316D01*
X149356297Y-143635329D01*
X148986324Y-143425181D01*
X148618247Y-142956696D01*
X148440152Y-142472817D01*
X148439605Y-142451269D01*
X148300977Y-142083374D01*
X148172237Y-142031118D01*
X147971250Y-141802310D01*
X147904869Y-141362697D01*
X147779541Y-140838547D01*
X147370132Y-140694276D01*
X146934645Y-140861454D01*
X146835395Y-141095329D01*
X146691024Y-141451134D01*
X146568026Y-141496381D01*
X146430873Y-141743676D01*
X146336101Y-142406473D01*
X146300658Y-143366144D01*
X146300658Y-143367960D01*
X146265330Y-144328035D01*
X146170645Y-144991438D01*
X146033549Y-145239539D01*
X146033290Y-145239539D01*
X145865863Y-145476735D01*
X145772739Y-146069280D01*
X145765921Y-146309013D01*
X145706622Y-146978720D01*
X145558486Y-147351216D01*
X145498553Y-147378487D01*
X145331126Y-147615683D01*
X145238002Y-148208228D01*
X145231184Y-148447960D01*
X145171885Y-149117668D01*
X145023749Y-149490163D01*
X144963816Y-149517434D01*
X144776088Y-149749769D01*
X144696468Y-150309560D01*
X144696448Y-150319539D01*
X144619003Y-150882724D01*
X144432405Y-151121583D01*
X144429079Y-151121645D01*
X144228092Y-151350453D01*
X144161711Y-151790066D01*
X144070187Y-152292534D01*
X143894342Y-152458487D01*
X143677110Y-152682421D01*
X143626974Y-152993224D01*
X143515007Y-153427688D01*
X143359605Y-153527960D01*
X143171877Y-153760295D01*
X143092258Y-154320086D01*
X143092237Y-154330066D01*
X143014792Y-154893250D01*
X142828195Y-155132109D01*
X142824869Y-155132171D01*
X142637140Y-155364506D01*
X142557521Y-155924297D01*
X142557500Y-155934276D01*
X142480055Y-156497460D01*
X142293458Y-156736320D01*
X142290132Y-156736381D01*
X142072899Y-156960316D01*
X142022763Y-157271118D01*
X141910796Y-157705583D01*
X141755395Y-157805855D01*
X141612979Y-158049390D01*
X141516426Y-158685589D01*
X141488026Y-159410066D01*
X141447437Y-160264560D01*
X141341404Y-160843877D01*
X141220658Y-161014276D01*
X141088572Y-161264611D01*
X140995647Y-161948820D01*
X140954298Y-162966710D01*
X140953290Y-163172321D01*
X140916631Y-164428409D01*
X140797526Y-165241558D01*
X140582286Y-165699127D01*
X140552237Y-165731419D01*
X140243187Y-165989449D01*
X140154299Y-165830649D01*
X140151184Y-165693224D01*
X139972658Y-165149767D01*
X139750132Y-164852923D01*
X139384441Y-164588534D01*
X139052623Y-164751935D01*
X138948026Y-164852923D01*
X138674975Y-165383037D01*
X138548103Y-166135983D01*
X138546974Y-166208863D01*
X138481069Y-166834935D01*
X138318608Y-167153543D01*
X138279605Y-167163750D01*
X138112179Y-167400946D01*
X138019055Y-167993491D01*
X138012237Y-168233224D01*
X137952938Y-168902931D01*
X137804802Y-169275426D01*
X137744869Y-169302697D01*
X137557140Y-169535032D01*
X137477521Y-170094823D01*
X137477500Y-170104803D01*
X137400055Y-170667987D01*
X137213458Y-170906846D01*
X137210132Y-170906908D01*
X137022404Y-171139242D01*
X136942784Y-171699034D01*
X136942763Y-171709013D01*
X136865318Y-172272197D01*
X136678721Y-172511057D01*
X136675395Y-172511118D01*
X136474408Y-172739927D01*
X136408026Y-173179539D01*
X136316503Y-173682008D01*
X136140658Y-173847960D01*
X135923426Y-174071895D01*
X135873290Y-174382697D01*
X135761323Y-174817162D01*
X135605921Y-174917434D01*
X135380355Y-175138531D01*
X135338553Y-175393147D01*
X135136824Y-175910069D01*
X134803816Y-176254276D01*
X134387698Y-176709934D01*
X134269079Y-177056381D01*
X134069222Y-177524687D01*
X133734342Y-177858487D01*
X133302672Y-178452543D01*
X133199605Y-178986984D01*
X133116524Y-179524116D01*
X132932237Y-179730066D01*
X132744509Y-179962400D01*
X132664889Y-180522192D01*
X132664869Y-180532171D01*
X132153806Y-180532171D01*
X132189431Y-180129832D01*
X132337567Y-179757337D01*
X132397500Y-179730066D01*
X132585228Y-179497731D01*
X132664848Y-178937940D01*
X132664869Y-178927960D01*
X132587424Y-178364776D01*
X132400827Y-178125917D01*
X132397500Y-178125855D01*
X132137901Y-178329316D01*
X132130132Y-178393224D01*
X131906198Y-178610456D01*
X131595395Y-178660592D01*
X131160930Y-178772559D01*
X131060658Y-178927960D01*
X130831849Y-179128948D01*
X130392237Y-179195329D01*
X129889769Y-179286852D01*
X129723816Y-179462697D01*
X129499882Y-179679930D01*
X129189079Y-179730066D01*
X128769577Y-179535799D01*
X128651674Y-179046206D01*
X128826160Y-178401094D01*
X129283826Y-177740270D01*
X129322763Y-177700496D01*
X129778524Y-177103560D01*
X129989446Y-176548976D01*
X129991184Y-176509491D01*
X130105478Y-176081669D01*
X130258553Y-175986908D01*
X130446281Y-175754573D01*
X130525901Y-175194782D01*
X130525921Y-175184803D01*
X130603366Y-174621618D01*
X130789963Y-174382759D01*
X130793290Y-174382697D01*
X130994277Y-174153889D01*
X131060658Y-173714276D01*
X131152181Y-173211808D01*
X131328026Y-173045855D01*
X131480545Y-172805391D01*
X131577352Y-172190564D01*
X131595395Y-171709013D01*
X131643488Y-170946421D01*
X131766453Y-170462387D01*
X131862763Y-170372171D01*
X132050491Y-170139836D01*
X132130111Y-169580045D01*
X132130132Y-169570066D01*
X132207577Y-169006881D01*
X132394174Y-168768022D01*
X132397500Y-168767960D01*
X132539916Y-168524425D01*
X132636469Y-167888226D01*
X132664869Y-167163750D01*
X132705458Y-166309255D01*
X132811491Y-165729938D01*
X132932237Y-165559539D01*
X133119965Y-165327205D01*
X133199585Y-164767413D01*
X133199605Y-164757434D01*
X133277050Y-164194250D01*
X133463647Y-163955390D01*
X133466974Y-163955329D01*
X133684206Y-163731395D01*
X133734342Y-163420592D01*
X133846309Y-162986127D01*
X134001711Y-162885855D01*
X134248840Y-162674016D01*
X134269079Y-162543827D01*
X134466529Y-162136605D01*
X134803816Y-161816381D01*
X135218677Y-161380730D01*
X135338553Y-161062523D01*
X135520865Y-160659008D01*
X135974945Y-160107562D01*
X136140658Y-159944803D01*
X136942763Y-159195524D01*
X136942763Y-155158584D01*
X136925572Y-153517146D01*
X136875999Y-152267798D01*
X136797044Y-151455857D01*
X136691711Y-151126637D01*
X136675395Y-151121645D01*
X136415796Y-151325105D01*
X136408026Y-151389013D01*
X136175692Y-151576741D01*
X135615900Y-151656361D01*
X135605921Y-151656381D01*
X135042737Y-151578937D01*
X134803878Y-151392339D01*
X134803816Y-151389013D01*
X135007277Y-151129414D01*
X135071184Y-151121645D01*
X135269916Y-150892212D01*
X135338553Y-150432262D01*
X135587965Y-149691303D01*
X136326273Y-148794968D01*
X136408026Y-148715329D01*
X137002844Y-148072050D01*
X137391136Y-147514426D01*
X137477500Y-147265764D01*
X137615592Y-146896708D01*
X137744869Y-146843750D01*
X137962101Y-146619816D01*
X138012237Y-146309013D01*
X138124204Y-145874548D01*
X138279605Y-145774276D01*
X138505171Y-145553179D01*
X138546974Y-145298563D01*
X138748702Y-144781641D01*
X139081711Y-144437434D01*
X139367433Y-144148205D01*
X139530822Y-143704699D01*
X139603143Y-142970586D01*
X139616448Y-142105778D01*
X139645417Y-141163049D01*
X139721879Y-140471715D01*
X139830166Y-140164380D01*
X139846410Y-140159539D01*
X139994975Y-139917645D01*
X140143100Y-139291255D01*
X140234601Y-138626458D01*
X140364973Y-137782495D01*
X140538320Y-137187173D01*
X140673059Y-136999967D01*
X140873979Y-136695427D01*
X140953290Y-136126732D01*
X141032769Y-135573254D01*
X141220658Y-135346908D01*
X141454773Y-135129063D01*
X141488026Y-134926757D01*
X141683445Y-134377349D01*
X142128797Y-133905813D01*
X142547315Y-133742697D01*
X142895642Y-133566922D01*
X143449001Y-133119958D01*
X143769570Y-132815820D01*
X144294444Y-132241623D01*
X144572207Y-131726112D01*
X144680236Y-131057245D01*
X144696448Y-130275820D01*
X144736836Y-129417691D01*
X144842453Y-128835517D01*
X144963816Y-128662697D01*
X145151544Y-128430363D01*
X145231164Y-127870571D01*
X145231184Y-127860592D01*
X145308629Y-127297408D01*
X145495226Y-127058548D01*
X145498553Y-127058487D01*
X145715785Y-126834553D01*
X145765921Y-126523750D01*
X145877888Y-126089285D01*
X146033290Y-125989013D01*
X146258856Y-125767916D01*
X146300658Y-125513300D01*
X146502386Y-124996378D01*
X146835395Y-124652171D01*
X147249900Y-124222076D01*
X147370132Y-123911819D01*
X147550567Y-123582264D01*
X148035946Y-122984267D01*
X148742376Y-122216473D01*
X149241711Y-121711118D01*
X150039350Y-120898410D01*
X150667735Y-120208541D01*
X151043593Y-119735724D01*
X151113290Y-119593652D01*
X151292917Y-119319572D01*
X151788479Y-118741579D01*
X152534992Y-117931055D01*
X153467473Y-116959383D01*
X154045818Y-116372324D01*
X155286428Y-115149712D01*
X156226076Y-114286784D01*
X156916479Y-113741278D01*
X157409352Y-113470933D01*
X157655291Y-113422697D01*
X158161823Y-113332225D01*
X158332237Y-113155329D01*
X158556171Y-112938096D01*
X158866974Y-112887960D01*
X159301439Y-112775993D01*
X159401711Y-112620592D01*
X159625645Y-112403360D01*
X159936448Y-112353224D01*
X160370912Y-112241256D01*
X160471184Y-112085855D01*
X160695118Y-111868623D01*
X161005921Y-111818487D01*
X161355765Y-111728802D01*
X161510383Y-111366311D01*
X161540658Y-110749013D01*
X161481359Y-110079306D01*
X161333223Y-109706810D01*
X161273290Y-109679539D01*
X161141203Y-109429205D01*
X161048279Y-108744996D01*
X161006929Y-107727106D01*
X161005921Y-107521494D01*
X161059585Y-106174016D01*
X161239091Y-105283959D01*
X161572210Y-104783077D01*
X162086713Y-104603124D01*
X162194933Y-104599539D01*
X162581708Y-104785976D01*
X163204712Y-105273692D01*
X163956024Y-105955295D01*
X164727722Y-106723394D01*
X165411884Y-107470595D01*
X165900589Y-108089509D01*
X166085921Y-108471430D01*
X166301321Y-108825619D01*
X166506072Y-108877434D01*
X167059914Y-109046724D01*
X167298898Y-109211645D01*
X168003669Y-109802982D01*
X168537333Y-110103198D01*
X169099324Y-110206712D01*
X169416742Y-110214276D01*
X170039738Y-110280686D01*
X170354505Y-110444227D01*
X170363816Y-110481645D01*
X170587750Y-110698877D01*
X170898553Y-110749013D01*
X171333018Y-110860980D01*
X171433290Y-111016381D01*
X171657224Y-111233614D01*
X171968026Y-111283750D01*
X172402491Y-111395717D01*
X172502763Y-111551118D01*
X172737801Y-111727841D01*
X173315743Y-111816177D01*
X173438553Y-111818487D01*
X174057081Y-111751333D01*
X174366260Y-111586207D01*
X174374342Y-111551118D01*
X174606677Y-111363390D01*
X175166468Y-111283770D01*
X175176448Y-111283750D01*
X175739632Y-111206305D01*
X175978491Y-111019708D01*
X175978553Y-111016381D01*
X176202487Y-110799149D01*
X176513290Y-110749013D01*
X176947754Y-110637046D01*
X177048026Y-110481645D01*
X177303687Y-110361006D01*
X178025117Y-110272724D01*
X179143990Y-110223010D01*
X179989079Y-110214276D01*
X181316102Y-110191034D01*
X182287206Y-110125450D01*
X182834064Y-110023734D01*
X182930132Y-109946908D01*
X183158940Y-109745920D01*
X183598553Y-109679539D01*
X184125119Y-109848186D01*
X184265869Y-110259797D01*
X184006653Y-110772881D01*
X183732237Y-111016381D01*
X183321704Y-111387495D01*
X183197500Y-111610142D01*
X183421922Y-111779555D01*
X183732237Y-111818487D01*
X184166702Y-111930454D01*
X184266974Y-112085855D01*
X184461839Y-112323392D01*
X184908919Y-112305075D01*
X185401937Y-112050241D01*
X185489229Y-111971269D01*
X185811613Y-111453358D01*
X185871184Y-111169163D01*
X186009813Y-110801269D01*
X186138553Y-110749013D01*
X186355785Y-110525079D01*
X186405921Y-110214276D01*
X186516102Y-109779783D01*
X186668977Y-109679539D01*
X186955785Y-109500945D01*
X187525218Y-109018121D01*
X188287419Y-108310502D01*
X188937296Y-107674276D01*
X189794930Y-106847626D01*
X190539679Y-106186617D01*
X191077740Y-105771237D01*
X191288901Y-105669013D01*
X191699637Y-105471423D01*
X192020658Y-105134276D01*
X192666987Y-104687582D01*
X193318001Y-104599539D01*
X194229927Y-104599539D01*
X194097732Y-106659428D01*
X194097732Y-106659428D01*
G37*
X194097732Y-106659428D02*
X193993866Y-107706698D01*
X193846032Y-108463338D01*
X193677743Y-108812850D01*
X193661518Y-108820656D01*
X193456673Y-109128916D01*
X193358879Y-109747995D01*
X193357500Y-109835504D01*
X193288828Y-110445125D01*
X193120477Y-110743123D01*
X193090132Y-110749013D01*
X192965925Y-111003208D01*
X192876126Y-111714435D01*
X192828439Y-112805655D01*
X192822763Y-113422697D01*
X192797344Y-114664760D01*
X192726221Y-115562750D01*
X192617099Y-116039629D01*
X192555395Y-116096381D01*
X192338162Y-116320316D01*
X192288026Y-116631118D01*
X192176059Y-117065583D01*
X192020658Y-117165855D01*
X191803426Y-117389789D01*
X191753290Y-117700592D01*
X191641323Y-118135057D01*
X191485921Y-118235329D01*
X191265633Y-118458255D01*
X191218553Y-118747785D01*
X191064415Y-119250877D01*
X190884342Y-119416206D01*
X190687718Y-119591794D01*
X190884342Y-119728136D01*
X191192193Y-120103532D01*
X191218553Y-120262873D01*
X191370261Y-120604138D01*
X191485921Y-120641645D01*
X191703154Y-120865579D01*
X191753290Y-121176381D01*
X191879339Y-121567792D01*
X192348341Y-121705602D01*
X192555395Y-121711118D01*
X193118579Y-121788563D01*
X193357439Y-121975160D01*
X193357500Y-121978487D01*
X193563453Y-122235039D01*
X193643966Y-122245855D01*
X194159892Y-122480545D01*
X194556287Y-123054758D01*
X194694342Y-123697284D01*
X194605139Y-124208816D01*
X194426974Y-124384803D01*
X194274455Y-124625266D01*
X194177649Y-125240094D01*
X194159605Y-125721645D01*
X194207698Y-126484237D01*
X194330664Y-126968271D01*
X194426974Y-127058487D01*
X194644206Y-127282421D01*
X194694342Y-127593224D01*
X194806309Y-128027688D01*
X194961711Y-128127960D01*
X195149439Y-128360295D01*
X195229059Y-128920086D01*
X195229079Y-128930066D01*
X195306524Y-129493250D01*
X195493121Y-129732109D01*
X195496448Y-129732171D01*
X195642868Y-129973914D01*
X195739982Y-130597511D01*
X195763816Y-131202697D01*
X195807769Y-132008008D01*
X195921151Y-132542139D01*
X196031184Y-132673224D01*
X196136578Y-132933656D01*
X196217652Y-133688108D01*
X196271966Y-134896307D01*
X196297078Y-136517983D01*
X196298553Y-137084803D01*
X196282769Y-138823799D01*
X196237045Y-140161520D01*
X196163820Y-141057693D01*
X196065537Y-141472048D01*
X196031184Y-141496381D01*
X195898777Y-141746538D01*
X195805732Y-142429495D01*
X195764707Y-143443983D01*
X195763816Y-143635329D01*
X195732546Y-144694588D01*
X195647177Y-145438951D01*
X195520366Y-145767147D01*
X195496448Y-145774276D01*
X195329021Y-146011472D01*
X195235897Y-146604017D01*
X195229079Y-146843750D01*
X195288378Y-147513457D01*
X195436514Y-147885952D01*
X195496448Y-147913224D01*
X195648966Y-148153687D01*
X195745773Y-148768515D01*
X195763816Y-149250066D01*
X195715723Y-150012658D01*
X195592758Y-150496692D01*
X195496448Y-150586908D01*
X195279215Y-150810842D01*
X195229079Y-151121645D01*
X195134079Y-151556361D01*
X195002581Y-151656381D01*
X194918315Y-151909238D01*
X194825990Y-152610225D01*
X194733377Y-153672974D01*
X194648247Y-155011112D01*
X194589906Y-156242676D01*
X194511264Y-157860970D01*
X194413435Y-159389100D01*
X194305916Y-160705752D01*
X194198207Y-161689613D01*
X194131362Y-162098980D01*
X194024614Y-162991100D01*
X193978997Y-164314628D01*
X193992613Y-165969963D01*
X194063565Y-167857503D01*
X194189956Y-169877648D01*
X194306066Y-171270478D01*
X194364854Y-172457383D01*
X194285516Y-173196504D01*
X194183719Y-173396057D01*
X193974697Y-173855991D01*
X193892237Y-174510831D01*
X193691858Y-175336258D01*
X193357500Y-175719539D01*
X192943015Y-176149325D01*
X192822763Y-176459138D01*
X192621085Y-176929954D01*
X192140096Y-177484440D01*
X191565864Y-177942892D01*
X191097022Y-178125855D01*
X190733485Y-178266518D01*
X190683816Y-178393224D01*
X190459882Y-178610456D01*
X190149079Y-178660592D01*
X189714614Y-178772559D01*
X189614342Y-178927960D01*
X189377146Y-179095387D01*
X188784601Y-179188511D01*
X188544869Y-179195329D01*
X187875161Y-179254628D01*
X187502666Y-179402764D01*
X187475395Y-179462697D01*
X187224052Y-179592905D01*
X186532771Y-179685112D01*
X185495670Y-179728246D01*
X185202763Y-179730066D01*
X184096001Y-179700496D01*
X183312241Y-179619169D01*
X182945602Y-179497157D01*
X182930132Y-179462697D01*
X182682837Y-179325544D01*
X182020040Y-179230772D01*
X181060369Y-179195329D01*
X181058553Y-179195329D01*
X180098478Y-179160001D01*
X179435076Y-179065316D01*
X179186975Y-178928220D01*
X179186974Y-178927960D01*
X178963040Y-178710728D01*
X178652237Y-178660592D01*
X178217772Y-178548625D01*
X178117500Y-178393224D01*
X177900457Y-178157166D01*
X177709411Y-178125855D01*
X177287839Y-177935685D01*
X176673385Y-177453410D01*
X175998403Y-176811385D01*
X175395247Y-176141964D01*
X174996271Y-175577501D01*
X174909079Y-175325523D01*
X174766879Y-174965225D01*
X174641711Y-174917434D01*
X174544314Y-175179626D01*
X174467499Y-175946180D01*
X174412731Y-177187062D01*
X174381474Y-178872241D01*
X174374342Y-180398487D01*
X174374342Y-185879539D01*
X172101711Y-185879539D01*
X170994948Y-185909109D01*
X170211188Y-185990436D01*
X169844549Y-186112448D01*
X169829079Y-186146908D01*
X169564162Y-186225828D01*
X168778911Y-186291543D01*
X167487576Y-186343648D01*
X165704405Y-186381734D01*
X163443649Y-186405395D01*
X160719558Y-186414223D01*
X160471184Y-186414276D01*
X157708988Y-186406707D01*
X155408935Y-186384271D01*
X153585277Y-186347376D01*
X152252261Y-186296428D01*
X151424138Y-186231835D01*
X151115158Y-186154004D01*
X151113290Y-186146908D01*
X150865995Y-186009754D01*
X150203198Y-185914982D01*
X149243527Y-185879539D01*
X149241711Y-185879539D01*
X148281636Y-185844212D01*
X147618233Y-185749526D01*
X147370132Y-185612430D01*
X147370132Y-185612171D01*
X147126597Y-185469755D01*
X146490397Y-185373202D01*
X145765921Y-185344803D01*
X144919859Y-185307956D01*
X144338570Y-185212184D01*
X144161711Y-185101436D01*
X143915223Y-184971004D01*
X143257395Y-184832123D01*
X142310680Y-184708106D01*
X141889079Y-184668759D01*
X140862824Y-184557705D01*
X140077630Y-184424064D01*
X139655939Y-184290736D01*
X139616448Y-184243705D01*
X139383982Y-184078142D01*
X138823923Y-184007977D01*
X138814342Y-184007960D01*
X138251158Y-183930515D01*
X138012299Y-183743918D01*
X138012237Y-183740592D01*
X137779902Y-183552864D01*
X137220111Y-183473244D01*
X137210132Y-183473224D01*
X136646947Y-183395779D01*
X136408088Y-183209182D01*
X136408026Y-183205855D01*
X136175692Y-183018127D01*
X135615900Y-182938507D01*
X135605921Y-182938487D01*
X135042737Y-182861042D01*
X134803878Y-182674445D01*
X134803816Y-182671118D01*
X134579882Y-182453886D01*
X134269079Y-182403750D01*
X133834614Y-182291783D01*
X133734342Y-182136381D01*
X133502008Y-181948653D01*
X132942216Y-181869034D01*
X132932237Y-181869013D01*
X132417921Y-181826780D01*
X132189285Y-181597920D01*
X132131397Y-181029187D01*
X132130132Y-180799539D01*
X132153806Y-180532171D01*
X132664869Y-180532171D01*
X132748902Y-181119287D01*
X133061569Y-181326001D01*
X133199605Y-181334276D01*
X133634070Y-181446243D01*
X133734342Y-181601645D01*
X133958276Y-181818877D01*
X134269079Y-181869013D01*
X134703544Y-181980980D01*
X134803816Y-182136381D01*
X135036151Y-182324110D01*
X135595942Y-182403729D01*
X135605921Y-182403750D01*
X136169105Y-182481195D01*
X136407965Y-182667792D01*
X136408026Y-182671118D01*
X136640361Y-182858846D01*
X137200153Y-182938466D01*
X137210132Y-182938487D01*
X137773316Y-183015932D01*
X138012175Y-183202529D01*
X138012237Y-183205855D01*
X138249433Y-183373282D01*
X138841978Y-183466406D01*
X139081711Y-183473224D01*
X139751487Y-183527476D01*
X140123955Y-183663001D01*
X140151184Y-183717780D01*
X140396249Y-183857540D01*
X141044596Y-184004742D01*
X141965949Y-184131291D01*
X142156448Y-184150245D01*
X143114093Y-184268819D01*
X143822918Y-184411526D01*
X144152660Y-184550835D01*
X144161711Y-184574110D01*
X144404600Y-184698555D01*
X145035923Y-184784054D01*
X145765921Y-184810066D01*
X146620416Y-184850655D01*
X147199733Y-184956688D01*
X147370132Y-185077434D01*
X147617426Y-185214588D01*
X148280223Y-185309359D01*
X149239895Y-185344802D01*
X149241711Y-185344803D01*
X150201786Y-185380130D01*
X150865188Y-185474816D01*
X151113289Y-185611911D01*
X151113290Y-185612171D01*
X151369585Y-185731138D01*
X152095424Y-185818688D01*
X153226237Y-185869205D01*
X154188026Y-185879539D01*
X155556147Y-185857253D01*
X156562968Y-185794136D01*
X157143919Y-185695805D01*
X157262763Y-185612171D01*
X157038829Y-185394938D01*
X156728026Y-185344803D01*
X156293562Y-185232835D01*
X156193290Y-185077434D01*
X155969355Y-184860202D01*
X155658553Y-184810066D01*
X155223972Y-184705569D01*
X155123816Y-184560715D01*
X154903150Y-184289188D01*
X154589079Y-184141645D01*
X154162469Y-183790334D01*
X154054342Y-183187838D01*
X153975261Y-182632490D01*
X153786974Y-182403750D01*
X153654566Y-182153593D01*
X153561521Y-181470636D01*
X153520497Y-180456148D01*
X153519605Y-180264803D01*
X153488336Y-179205543D01*
X153402966Y-178461180D01*
X153276155Y-178132985D01*
X153252237Y-178125855D01*
X153122030Y-177874513D01*
X153029823Y-177183231D01*
X152986689Y-176146131D01*
X152984869Y-175853224D01*
X152988440Y-175719539D01*
X153519605Y-175719539D01*
X153554933Y-176679614D01*
X153649618Y-177343017D01*
X153786714Y-177591118D01*
X153786974Y-177591118D01*
X153919381Y-177841275D01*
X154012427Y-178524232D01*
X154053451Y-179538720D01*
X154054342Y-179730066D01*
X154085612Y-180789325D01*
X154170981Y-181533688D01*
X154297792Y-181861884D01*
X154321711Y-181869013D01*
X154514976Y-182099915D01*
X154589079Y-182612094D01*
X154816287Y-183390991D01*
X155156576Y-183748410D01*
X155740359Y-184188752D01*
X156073268Y-184475855D01*
X156599391Y-184735212D01*
X157109981Y-184810066D01*
X157641085Y-184925686D01*
X157797328Y-185337293D01*
X157797500Y-185359538D01*
X157812703Y-185540850D01*
X157902924Y-185675149D01*
X158135081Y-185767313D01*
X158576092Y-185822218D01*
X159292876Y-185844742D01*
X160352350Y-185839764D01*
X161821432Y-185812160D01*
X163479079Y-185773673D01*
X165302870Y-185724143D01*
X167067391Y-185665138D01*
X168658480Y-185601308D01*
X169961973Y-185537303D01*
X170863708Y-185477772D01*
X170965395Y-185468756D01*
X171868664Y-185350826D01*
X172515986Y-185203246D01*
X172770006Y-185057535D01*
X172770132Y-185054620D01*
X172994268Y-184855857D01*
X173304869Y-184810066D01*
X173482692Y-184789793D01*
X173615994Y-184684137D01*
X173711180Y-184425842D01*
X173774655Y-183947652D01*
X173812824Y-183182309D01*
X173832093Y-182062557D01*
X173838867Y-180521141D01*
X173839605Y-179195329D01*
X173827112Y-177168353D01*
X173790555Y-175565434D01*
X173731317Y-174415630D01*
X173650783Y-173748001D01*
X173572237Y-173580592D01*
X173382473Y-173348778D01*
X173304869Y-172800767D01*
X173219499Y-172213193D01*
X173024638Y-171927533D01*
X172847800Y-171631879D01*
X172680607Y-170963945D01*
X172586180Y-170301042D01*
X172464853Y-169477052D01*
X172313457Y-168920545D01*
X172197989Y-168767960D01*
X172066794Y-168527438D01*
X171983533Y-167912477D01*
X171968026Y-167431118D01*
X171919934Y-166668526D01*
X171796968Y-166184492D01*
X171700658Y-166094276D01*
X171548140Y-165853812D01*
X171451333Y-165238985D01*
X171433290Y-164757434D01*
X171385197Y-163994842D01*
X171262231Y-163510808D01*
X171165921Y-163420592D01*
X170989199Y-163185554D01*
X170900862Y-162607612D01*
X170898553Y-162484803D01*
X170831399Y-161866274D01*
X170666273Y-161557095D01*
X170631184Y-161549013D01*
X170443456Y-161316678D01*
X170363836Y-160756887D01*
X170363816Y-160746908D01*
X170286371Y-160183723D01*
X170099774Y-159944864D01*
X170096448Y-159944803D01*
X169870881Y-159723705D01*
X169829079Y-159469090D01*
X169627351Y-158952168D01*
X169294342Y-158607960D01*
X168876721Y-158127494D01*
X168759605Y-157746831D01*
X168635340Y-157345495D01*
X168492237Y-157271118D01*
X168257008Y-157053731D01*
X168224869Y-156857913D01*
X168039138Y-156394806D01*
X167597157Y-155828674D01*
X167071740Y-155345801D01*
X166635700Y-155132467D01*
X166623899Y-155132171D01*
X166198517Y-154930814D01*
X165631892Y-154431091D01*
X165063882Y-153789525D01*
X164634350Y-153162640D01*
X164481711Y-152734767D01*
X164371390Y-152295487D01*
X164214342Y-152191118D01*
X164026614Y-151958784D01*
X163946994Y-151398992D01*
X163946974Y-151389013D01*
X163869529Y-150825829D01*
X163682932Y-150586969D01*
X163679605Y-150586908D01*
X163491877Y-150354573D01*
X163412258Y-149794782D01*
X163412237Y-149784803D01*
X163334792Y-149221618D01*
X163148195Y-148982759D01*
X163144869Y-148982697D01*
X162957140Y-148750363D01*
X162877521Y-148190571D01*
X162877500Y-148180592D01*
X162800055Y-147617408D01*
X162613458Y-147378548D01*
X162610132Y-147378487D01*
X162457613Y-147138023D01*
X162360807Y-146523195D01*
X162342763Y-146041645D01*
X162299829Y-145200954D01*
X162151180Y-144790348D01*
X161941711Y-144704803D01*
X161615095Y-144927706D01*
X161540658Y-145239539D01*
X161428691Y-145674004D01*
X161273290Y-145774276D01*
X161140882Y-146024433D01*
X161047837Y-146707390D01*
X161006812Y-147721878D01*
X161005921Y-147913224D01*
X160974652Y-148972483D01*
X160889282Y-149716846D01*
X160762471Y-150045041D01*
X160738553Y-150052171D01*
X160550825Y-150284506D01*
X160471205Y-150844297D01*
X160471184Y-150854276D01*
X160393739Y-151417460D01*
X160207142Y-151656320D01*
X160203816Y-151656381D01*
X160002829Y-151885190D01*
X159936448Y-152324803D01*
X159844924Y-152827271D01*
X159669079Y-152993224D01*
X159501652Y-153230420D01*
X159408528Y-153822965D01*
X159401711Y-154062697D01*
X159342412Y-154732404D01*
X159194275Y-155104900D01*
X159134342Y-155132171D01*
X158946614Y-155364506D01*
X158866994Y-155924297D01*
X158866974Y-155934276D01*
X158789529Y-156497460D01*
X158602932Y-156736320D01*
X158599605Y-156736381D01*
X158432179Y-156973577D01*
X158339055Y-157566123D01*
X158332237Y-157805855D01*
X158272938Y-158475562D01*
X158124802Y-158848058D01*
X158064869Y-158875329D01*
X157897442Y-159112525D01*
X157804318Y-159705070D01*
X157797500Y-159944803D01*
X157738201Y-160614510D01*
X157590065Y-160987005D01*
X157530132Y-161014276D01*
X157353409Y-161249314D01*
X157265073Y-161827256D01*
X157262763Y-161950066D01*
X157195610Y-162568594D01*
X157030483Y-162877773D01*
X156995395Y-162885855D01*
X156807667Y-163118190D01*
X156728047Y-163677981D01*
X156728026Y-163687960D01*
X156650582Y-164251145D01*
X156463984Y-164490004D01*
X156460658Y-164490066D01*
X156272930Y-164722400D01*
X156193310Y-165282192D01*
X156193290Y-165292171D01*
X156115845Y-165855355D01*
X155929248Y-166094215D01*
X155925921Y-166094276D01*
X155738193Y-166326611D01*
X155658573Y-166886402D01*
X155658553Y-166896381D01*
X155581108Y-167459566D01*
X155394511Y-167698425D01*
X155391184Y-167698487D01*
X155203456Y-167930821D01*
X155123836Y-168490613D01*
X155123816Y-168500592D01*
X155046371Y-169063776D01*
X154859774Y-169302636D01*
X154856448Y-169302697D01*
X154689021Y-169539893D01*
X154595897Y-170132438D01*
X154589079Y-170372171D01*
X154529780Y-171041878D01*
X154381644Y-171414374D01*
X154321711Y-171441645D01*
X154162258Y-171680615D01*
X154066611Y-172285238D01*
X154054342Y-172644803D01*
X154001238Y-173362337D01*
X153866877Y-173792753D01*
X153786974Y-173847960D01*
X153649820Y-174095255D01*
X153555049Y-174758052D01*
X153519606Y-175717723D01*
X153519605Y-175719539D01*
X152988440Y-175719539D01*
X153014438Y-174746461D01*
X153095765Y-173962701D01*
X153217777Y-173596062D01*
X153252237Y-173580592D01*
X153404755Y-173340128D01*
X153501562Y-172725301D01*
X153519605Y-172243750D01*
X153567698Y-171481157D01*
X153690664Y-170997124D01*
X153786974Y-170906908D01*
X153954401Y-170669712D01*
X154047524Y-170077167D01*
X154054342Y-169837434D01*
X154113641Y-169167727D01*
X154261778Y-168795231D01*
X154321711Y-168767960D01*
X154509439Y-168535626D01*
X154589059Y-167975834D01*
X154589079Y-167965855D01*
X154666524Y-167402671D01*
X154853121Y-167163811D01*
X154856448Y-167163750D01*
X155044176Y-166931415D01*
X155123795Y-166371624D01*
X155123816Y-166361645D01*
X155201261Y-165798460D01*
X155387858Y-165559601D01*
X155391184Y-165559539D01*
X155578912Y-165327205D01*
X155658532Y-164767413D01*
X155658553Y-164757434D01*
X155735998Y-164194250D01*
X155922595Y-163955390D01*
X155925921Y-163955329D01*
X156126908Y-163726520D01*
X156193290Y-163286908D01*
X156284813Y-162784440D01*
X156460658Y-162618487D01*
X156628085Y-162381291D01*
X156721209Y-161788746D01*
X156728026Y-161549013D01*
X156787325Y-160879306D01*
X156935462Y-160506810D01*
X156995395Y-160479539D01*
X157162822Y-160242343D01*
X157255946Y-159649798D01*
X157262763Y-159410066D01*
X157322062Y-158740358D01*
X157470199Y-158367863D01*
X157530132Y-158340592D01*
X157697559Y-158103396D01*
X157790682Y-157510851D01*
X157797500Y-157271118D01*
X157856799Y-156601411D01*
X158004935Y-156228916D01*
X158064869Y-156201645D01*
X158252597Y-155969310D01*
X158332216Y-155409519D01*
X158332237Y-155399539D01*
X158409682Y-154836355D01*
X158596279Y-154597496D01*
X158599605Y-154597434D01*
X158767032Y-154360238D01*
X158860156Y-153767693D01*
X158866974Y-153527960D01*
X158926273Y-152858253D01*
X159074409Y-152485758D01*
X159134342Y-152458487D01*
X159335330Y-152229678D01*
X159401711Y-151790066D01*
X159493234Y-151287597D01*
X159669079Y-151121645D01*
X159856807Y-150889310D01*
X159936427Y-150329519D01*
X159936448Y-150319539D01*
X160013892Y-149756355D01*
X160200490Y-149517496D01*
X160203816Y-149517434D01*
X160336223Y-149267277D01*
X160429269Y-148584321D01*
X160470293Y-147569833D01*
X160471184Y-147378487D01*
X160502454Y-146319227D01*
X160587824Y-145574865D01*
X160714635Y-145246669D01*
X160738553Y-145239539D01*
X160955785Y-145015605D01*
X161005921Y-144704803D01*
X161110418Y-144270222D01*
X161255272Y-144170066D01*
X161526799Y-143949399D01*
X161674342Y-143635329D01*
X161941130Y-143177426D01*
X162212057Y-143168073D01*
X162342512Y-143607268D01*
X162342763Y-143635329D01*
X162454730Y-144069794D01*
X162610132Y-144170066D01*
X162762650Y-144410529D01*
X162859457Y-145025357D01*
X162877500Y-145506908D01*
X162925593Y-146269500D01*
X163048558Y-146753534D01*
X163144869Y-146843750D01*
X163332597Y-147076085D01*
X163412216Y-147635876D01*
X163412237Y-147645855D01*
X163489682Y-148209039D01*
X163676279Y-148447899D01*
X163679605Y-148447960D01*
X163867333Y-148680295D01*
X163946953Y-149240086D01*
X163946974Y-149250066D01*
X164024419Y-149813250D01*
X164211016Y-150052109D01*
X164214342Y-150052171D01*
X164402070Y-150284506D01*
X164481690Y-150844297D01*
X164481711Y-150854276D01*
X164559156Y-151417460D01*
X164745753Y-151656320D01*
X164749079Y-151656381D01*
X164965119Y-151880700D01*
X165016448Y-152200031D01*
X165196068Y-152674990D01*
X165641820Y-153308596D01*
X166214045Y-153944312D01*
X166773081Y-154425603D01*
X167155395Y-154597434D01*
X167596194Y-154803042D01*
X168166705Y-155314726D01*
X168730472Y-155974778D01*
X169151038Y-156625488D01*
X169294342Y-157069498D01*
X169500442Y-157704937D01*
X169829079Y-158073224D01*
X170246700Y-158553690D01*
X170363816Y-158934353D01*
X170488081Y-159335689D01*
X170631184Y-159410066D01*
X170818912Y-159642400D01*
X170898532Y-160202192D01*
X170898553Y-160212171D01*
X170975998Y-160775355D01*
X171162595Y-161014215D01*
X171165921Y-161014276D01*
X171342644Y-161249314D01*
X171430980Y-161827256D01*
X171433290Y-161950066D01*
X171500443Y-162568594D01*
X171665569Y-162877773D01*
X171700658Y-162885855D01*
X171853177Y-163126319D01*
X171949983Y-163741146D01*
X171968026Y-164222697D01*
X172009925Y-164985367D01*
X172117052Y-165469393D01*
X172200909Y-165559539D01*
X172322728Y-165806640D01*
X172453998Y-166468588D01*
X172573888Y-167426353D01*
X172622033Y-167965855D01*
X172730276Y-169024883D01*
X172862560Y-169846217D01*
X172997340Y-170310814D01*
X173057572Y-170372171D01*
X173258556Y-170596284D01*
X173304869Y-170906908D01*
X173416836Y-171341373D01*
X173572237Y-171441645D01*
X173759965Y-171673979D01*
X173839585Y-172233771D01*
X173839605Y-172243750D01*
X173917050Y-172806934D01*
X174103647Y-173045794D01*
X174106974Y-173045855D01*
X174344178Y-173262412D01*
X174374342Y-173446908D01*
X174518714Y-173802713D01*
X174641711Y-173847960D01*
X174858943Y-174071895D01*
X174909079Y-174382697D01*
X175021046Y-174817162D01*
X175176448Y-174917434D01*
X175412201Y-175134604D01*
X175443816Y-175327399D01*
X175638099Y-175782529D01*
X176118914Y-176389090D01*
X176733207Y-176994030D01*
X177327928Y-177444296D01*
X177707535Y-177591118D01*
X178069023Y-177732751D01*
X178117500Y-177858487D01*
X178341434Y-178075719D01*
X178652237Y-178125855D01*
X179086702Y-178237822D01*
X179186974Y-178393224D01*
X179438316Y-178523431D01*
X180129598Y-178615638D01*
X181166698Y-178658772D01*
X181459605Y-178660592D01*
X182566368Y-178690162D01*
X183350128Y-178771489D01*
X183716767Y-178893501D01*
X183732237Y-178927960D01*
X183972701Y-179080479D01*
X184587528Y-179177286D01*
X185069079Y-179195329D01*
X185831672Y-179147236D01*
X186315705Y-179024271D01*
X186405921Y-178927960D01*
X186649456Y-178785545D01*
X187285655Y-178688992D01*
X188010132Y-178660592D01*
X188864626Y-178620003D01*
X189443943Y-178513970D01*
X189614342Y-178393224D01*
X189831730Y-178157994D01*
X190027548Y-178125855D01*
X190535566Y-177922992D01*
X191116180Y-177438225D01*
X191583414Y-176857286D01*
X191753290Y-176402379D01*
X191960108Y-175949190D01*
X192288026Y-175657490D01*
X192637932Y-175239834D01*
X192811758Y-174659870D01*
X192787454Y-174120374D01*
X192542970Y-173824123D01*
X192488553Y-173813457D01*
X192030461Y-173803786D01*
X191274655Y-173820330D01*
X190948158Y-173833323D01*
X189906955Y-173785567D01*
X189203230Y-173483916D01*
X188780247Y-172856968D01*
X188581274Y-171833323D01*
X188544869Y-170808705D01*
X188557081Y-169772586D01*
X188612920Y-169161073D01*
X188741190Y-168864239D01*
X188970695Y-168772159D01*
X189079605Y-168767960D01*
X189514070Y-168655993D01*
X189614342Y-168500592D01*
X189846677Y-168312864D01*
X190406468Y-168233244D01*
X190416448Y-168233224D01*
X190979632Y-168310668D01*
X191218491Y-168497266D01*
X191218553Y-168500592D01*
X191450887Y-168688320D01*
X192010679Y-168767940D01*
X192020658Y-168767960D01*
X192822763Y-168767960D01*
X192822763Y-170906908D01*
X192840352Y-171900264D01*
X192887094Y-172648273D01*
X192953950Y-173024401D01*
X192975545Y-173045855D01*
X193267273Y-172879940D01*
X193510282Y-172663900D01*
X193740263Y-172219809D01*
X193866386Y-171575649D01*
X193878839Y-170927670D01*
X193767808Y-170472123D01*
X193624869Y-170372171D01*
X193529196Y-170109652D01*
X193453343Y-169340856D01*
X193398617Y-168093920D01*
X193366328Y-166396983D01*
X193357500Y-164623750D01*
X193368095Y-162911029D01*
X193397811Y-161408439D01*
X193443548Y-160190593D01*
X193502205Y-159332102D01*
X193570681Y-158907579D01*
X193596406Y-158875329D01*
X193687037Y-158622774D01*
X193786158Y-157923811D01*
X193885118Y-156866495D01*
X193975262Y-155538882D01*
X194029909Y-154463750D01*
X194108105Y-152995910D01*
X194200949Y-151734893D01*
X194299868Y-150768751D01*
X194396289Y-150185540D01*
X194459424Y-150052171D01*
X194562873Y-149804745D01*
X194643080Y-149141984D01*
X194688399Y-148183165D01*
X194694342Y-147645855D01*
X194722387Y-146492848D01*
X194800018Y-145670369D01*
X194917483Y-145266194D01*
X194961711Y-145239539D01*
X195098864Y-144992245D01*
X195193636Y-144329448D01*
X195229079Y-143369776D01*
X195229079Y-143367960D01*
X195264407Y-142407886D01*
X195359092Y-141744483D01*
X195496188Y-141496382D01*
X195496448Y-141496381D01*
X195631168Y-141247564D01*
X195725068Y-140574030D01*
X195763566Y-139585154D01*
X195763816Y-139491118D01*
X195744212Y-138532566D01*
X195692355Y-137823502D01*
X195618678Y-137494601D01*
X195603718Y-137485855D01*
X195337749Y-137663358D01*
X194867617Y-138106902D01*
X194694342Y-138287960D01*
X194018901Y-138857384D01*
X193267135Y-139073254D01*
X192849177Y-139090066D01*
X192169775Y-139032104D01*
X191785448Y-138886913D01*
X191753290Y-138822697D01*
X191535445Y-138588583D01*
X191333139Y-138555329D01*
X190686954Y-138326350D01*
X190293642Y-137635327D01*
X190149897Y-136476135D01*
X190149079Y-136360819D01*
X190198231Y-135430698D01*
X190377363Y-134867545D01*
X190523710Y-134713419D01*
X192314189Y-134713419D01*
X192482124Y-135303857D01*
X192622237Y-135481707D01*
X193051801Y-135830295D01*
X193319323Y-135787192D01*
X193357500Y-135614276D01*
X193574057Y-135377072D01*
X193758553Y-135346908D01*
X194101402Y-135141235D01*
X194121210Y-134577230D01*
X193997316Y-134165617D01*
X193630720Y-133791450D01*
X193083740Y-133834430D01*
X192669981Y-134124652D01*
X192314189Y-134713419D01*
X190523710Y-134713419D01*
X190683816Y-134544803D01*
X191098484Y-134112163D01*
X191218553Y-133798260D01*
X191455435Y-133218440D01*
X192044708Y-132798474D01*
X192657401Y-132673224D01*
X193349124Y-132769543D01*
X194045020Y-133005297D01*
X194552712Y-133300679D01*
X194694342Y-133518245D01*
X194899028Y-133736427D01*
X194961711Y-133742697D01*
X195114229Y-133502233D01*
X195211036Y-132887406D01*
X195229079Y-132405855D01*
X195180986Y-131643263D01*
X195058021Y-131159229D01*
X194961711Y-131069013D01*
X194760723Y-130840204D01*
X194694342Y-130400592D01*
X194602819Y-129898124D01*
X194426974Y-129732171D01*
X194210110Y-129504995D01*
X194138497Y-129130592D01*
X194076813Y-128793214D01*
X193982532Y-128863224D01*
X193641295Y-129177857D01*
X193183485Y-129161211D01*
X192859132Y-128856516D01*
X192822763Y-128662697D01*
X192710796Y-128228232D01*
X192555395Y-128127960D01*
X192320165Y-127910573D01*
X192288026Y-127714755D01*
X192084836Y-127205926D01*
X191599246Y-126625061D01*
X191017232Y-126158132D01*
X190562285Y-125989013D01*
X190198748Y-125848350D01*
X190149079Y-125721645D01*
X189927982Y-125496079D01*
X189673366Y-125454276D01*
X189156444Y-125252548D01*
X188812237Y-124919539D01*
X188331771Y-124501918D01*
X187951108Y-124384803D01*
X187549771Y-124260538D01*
X187475395Y-124117434D01*
X187251461Y-123900202D01*
X186940658Y-123850066D01*
X186506193Y-123738099D01*
X186405921Y-123582697D01*
X186181987Y-123365465D01*
X185871184Y-123315329D01*
X185436719Y-123203362D01*
X185336448Y-123047960D01*
X185112513Y-122830728D01*
X184801711Y-122780592D01*
X184367246Y-122892559D01*
X184266974Y-123047960D01*
X184043040Y-123265193D01*
X183732237Y-123315329D01*
X183297772Y-123203362D01*
X183197500Y-123047960D01*
X182980943Y-122810757D01*
X182796448Y-122780592D01*
X182440642Y-122636221D01*
X182395395Y-122513224D01*
X182171461Y-122295991D01*
X181860658Y-122245855D01*
X181426193Y-122133888D01*
X181325921Y-121978487D01*
X181104824Y-121752921D01*
X180850208Y-121711118D01*
X180333286Y-121509390D01*
X179989079Y-121176381D01*
X179508613Y-120758760D01*
X179127950Y-120641645D01*
X178726875Y-120855733D01*
X178652237Y-121176381D01*
X178480960Y-121615253D01*
X178242272Y-121711118D01*
X177768472Y-121511948D01*
X177155824Y-121017752D01*
X176554352Y-120383500D01*
X176114079Y-119764165D01*
X175978553Y-119372739D01*
X175776545Y-118848452D01*
X175443816Y-118502697D01*
X175029147Y-118070058D01*
X174909079Y-117756154D01*
X174686475Y-117205864D01*
X174173187Y-116761918D01*
X173725019Y-116631118D01*
X173357125Y-116492490D01*
X173304869Y-116363750D01*
X173099789Y-116106069D01*
X173025347Y-116096381D01*
X172601214Y-116296404D01*
X172079974Y-116772259D01*
X171633515Y-117337624D01*
X171433725Y-117806179D01*
X171433290Y-117822123D01*
X171292627Y-118185660D01*
X171165921Y-118235329D01*
X170978193Y-118467664D01*
X170898573Y-119027455D01*
X170898553Y-119037434D01*
X170814520Y-119624550D01*
X170501852Y-119831264D01*
X170363816Y-119839539D01*
X170013972Y-119749854D01*
X169859354Y-119387363D01*
X169829079Y-118770066D01*
X169769780Y-118100358D01*
X169621644Y-117727863D01*
X169561711Y-117700592D01*
X169344478Y-117476658D01*
X169294342Y-117165855D01*
X169182375Y-116731390D01*
X169026974Y-116631118D01*
X168833708Y-116400216D01*
X168759605Y-115888037D01*
X168744800Y-115833746D01*
X189092038Y-115833746D01*
X189101397Y-116567413D01*
X189196159Y-117276906D01*
X189371962Y-117778969D01*
X189413816Y-117835391D01*
X189924403Y-118182224D01*
X190403299Y-118175539D01*
X190670950Y-117834394D01*
X190683816Y-117700592D01*
X190795783Y-117266127D01*
X190951184Y-117165855D01*
X191168417Y-116941921D01*
X191218553Y-116631118D01*
X191330520Y-116196653D01*
X191485921Y-116096381D01*
X191703154Y-115872447D01*
X191753290Y-115561645D01*
X191865257Y-115127180D01*
X192020658Y-115026908D01*
X192148770Y-114774509D01*
X192240156Y-114075829D01*
X192285065Y-113018644D01*
X192288026Y-112620592D01*
X192316071Y-111467585D01*
X192393702Y-110645106D01*
X192511167Y-110240931D01*
X192555395Y-110214276D01*
X192756382Y-109985468D01*
X192822763Y-109545855D01*
X192770337Y-109042900D01*
X192669981Y-108877434D01*
X192341388Y-109065682D01*
X191961527Y-109468029D01*
X191755646Y-109840884D01*
X191753290Y-109868786D01*
X191559603Y-110183226D01*
X191218553Y-110481645D01*
X190800931Y-110962111D01*
X190683816Y-111342774D01*
X190559551Y-111744110D01*
X190416448Y-111818487D01*
X190199215Y-112042421D01*
X190149079Y-112353224D01*
X190037112Y-112787688D01*
X189881711Y-112887960D01*
X189714284Y-113125156D01*
X189621160Y-113717702D01*
X189614342Y-113957434D01*
X189555043Y-114627141D01*
X189406907Y-114999637D01*
X189346974Y-115026908D01*
X189172443Y-115259160D01*
X189092038Y-115833746D01*
X168744800Y-115833746D01*
X168556006Y-115141433D01*
X168224869Y-114759539D01*
X167807247Y-114279073D01*
X167690132Y-113898410D01*
X167565867Y-113497074D01*
X167422763Y-113422697D01*
X167189813Y-113204385D01*
X167155395Y-112995231D01*
X166971708Y-112552182D01*
X166514628Y-111977947D01*
X166353290Y-111818487D01*
X165845587Y-111260478D01*
X165568515Y-110793074D01*
X165551184Y-110700766D01*
X165350394Y-110281006D01*
X164983687Y-109939090D01*
X164399905Y-109498748D01*
X164066995Y-109211645D01*
X163676206Y-108918653D01*
X163477254Y-109041939D01*
X163413676Y-109633377D01*
X163412237Y-109813224D01*
X163479391Y-110431752D01*
X163644517Y-110740931D01*
X163679605Y-110749013D01*
X163832124Y-110989477D01*
X163928931Y-111604304D01*
X163946974Y-112085855D01*
X163995067Y-112848448D01*
X164118032Y-113332481D01*
X164214342Y-113422697D01*
X164366861Y-113663161D01*
X164463667Y-114277989D01*
X164481711Y-114759539D01*
X164529803Y-115522132D01*
X164652769Y-116006165D01*
X164749079Y-116096381D01*
X164936807Y-116328716D01*
X165016427Y-116888508D01*
X165016448Y-116898487D01*
X164932414Y-117485603D01*
X164619747Y-117692317D01*
X164481711Y-117700592D01*
X164047246Y-117588625D01*
X163946974Y-117433224D01*
X163723040Y-117215991D01*
X163412237Y-117165855D01*
X162977772Y-117053888D01*
X162877500Y-116898487D01*
X162653566Y-116681254D01*
X162342763Y-116631118D01*
X161908298Y-116743085D01*
X161808026Y-116898487D01*
X161596187Y-117145616D01*
X161465998Y-117165855D01*
X161058777Y-117363305D01*
X160738553Y-117700592D01*
X160310097Y-118114991D01*
X160002195Y-118235329D01*
X159611902Y-118408283D01*
X159029053Y-118845774D01*
X158742864Y-119104276D01*
X157975495Y-119813138D01*
X157196596Y-120495617D01*
X157021879Y-120641645D01*
X156495680Y-121170036D01*
X156215100Y-121637515D01*
X156201287Y-121718936D01*
X155994988Y-122181446D01*
X155658553Y-122513224D01*
X155243692Y-122948875D01*
X155123816Y-123267082D01*
X154941504Y-123670597D01*
X154487424Y-124222043D01*
X154321711Y-124384803D01*
X153814008Y-124942812D01*
X153536936Y-125410215D01*
X153519605Y-125502523D01*
X153321299Y-125931300D01*
X152984869Y-126256381D01*
X152568751Y-126712039D01*
X152450132Y-127058487D01*
X152250286Y-127527135D01*
X151916920Y-127859493D01*
X151472650Y-128483433D01*
X151214053Y-129522727D01*
X151072020Y-130265114D01*
X150899899Y-130726540D01*
X150811476Y-130801645D01*
X150657491Y-131036789D01*
X150580554Y-131614956D01*
X150578553Y-131737434D01*
X150511399Y-132355963D01*
X150346273Y-132665141D01*
X150311184Y-132673224D01*
X150143758Y-132910420D01*
X150050634Y-133502965D01*
X150043816Y-133742697D01*
X149984517Y-134412404D01*
X149836381Y-134784900D01*
X149776448Y-134812171D01*
X149671054Y-135072604D01*
X149589980Y-135827055D01*
X149535666Y-137035254D01*
X149510554Y-138656930D01*
X149509079Y-139223750D01*
X149500328Y-140691928D01*
X149476111Y-141953161D01*
X149439479Y-142919330D01*
X149393483Y-143502316D01*
X149356297Y-143635329D01*
X148986324Y-143425181D01*
X148618247Y-142956696D01*
X148440152Y-142472817D01*
X148439605Y-142451269D01*
X148300977Y-142083374D01*
X148172237Y-142031118D01*
X147971250Y-141802310D01*
X147904869Y-141362697D01*
X147779541Y-140838547D01*
X147370132Y-140694276D01*
X146934645Y-140861454D01*
X146835395Y-141095329D01*
X146691024Y-141451134D01*
X146568026Y-141496381D01*
X146430873Y-141743676D01*
X146336101Y-142406473D01*
X146300658Y-143366144D01*
X146300658Y-143367960D01*
X146265330Y-144328035D01*
X146170645Y-144991438D01*
X146033549Y-145239539D01*
X146033290Y-145239539D01*
X145865863Y-145476735D01*
X145772739Y-146069280D01*
X145765921Y-146309013D01*
X145706622Y-146978720D01*
X145558486Y-147351216D01*
X145498553Y-147378487D01*
X145331126Y-147615683D01*
X145238002Y-148208228D01*
X145231184Y-148447960D01*
X145171885Y-149117668D01*
X145023749Y-149490163D01*
X144963816Y-149517434D01*
X144776088Y-149749769D01*
X144696468Y-150309560D01*
X144696448Y-150319539D01*
X144619003Y-150882724D01*
X144432405Y-151121583D01*
X144429079Y-151121645D01*
X144228092Y-151350453D01*
X144161711Y-151790066D01*
X144070187Y-152292534D01*
X143894342Y-152458487D01*
X143677110Y-152682421D01*
X143626974Y-152993224D01*
X143515007Y-153427688D01*
X143359605Y-153527960D01*
X143171877Y-153760295D01*
X143092258Y-154320086D01*
X143092237Y-154330066D01*
X143014792Y-154893250D01*
X142828195Y-155132109D01*
X142824869Y-155132171D01*
X142637140Y-155364506D01*
X142557521Y-155924297D01*
X142557500Y-155934276D01*
X142480055Y-156497460D01*
X142293458Y-156736320D01*
X142290132Y-156736381D01*
X142072899Y-156960316D01*
X142022763Y-157271118D01*
X141910796Y-157705583D01*
X141755395Y-157805855D01*
X141612979Y-158049390D01*
X141516426Y-158685589D01*
X141488026Y-159410066D01*
X141447437Y-160264560D01*
X141341404Y-160843877D01*
X141220658Y-161014276D01*
X141088572Y-161264611D01*
X140995647Y-161948820D01*
X140954298Y-162966710D01*
X140953290Y-163172321D01*
X140916631Y-164428409D01*
X140797526Y-165241558D01*
X140582286Y-165699127D01*
X140552237Y-165731419D01*
X140243187Y-165989449D01*
X140154299Y-165830649D01*
X140151184Y-165693224D01*
X139972658Y-165149767D01*
X139750132Y-164852923D01*
X139384441Y-164588534D01*
X139052623Y-164751935D01*
X138948026Y-164852923D01*
X138674975Y-165383037D01*
X138548103Y-166135983D01*
X138546974Y-166208863D01*
X138481069Y-166834935D01*
X138318608Y-167153543D01*
X138279605Y-167163750D01*
X138112179Y-167400946D01*
X138019055Y-167993491D01*
X138012237Y-168233224D01*
X137952938Y-168902931D01*
X137804802Y-169275426D01*
X137744869Y-169302697D01*
X137557140Y-169535032D01*
X137477521Y-170094823D01*
X137477500Y-170104803D01*
X137400055Y-170667987D01*
X137213458Y-170906846D01*
X137210132Y-170906908D01*
X137022404Y-171139242D01*
X136942784Y-171699034D01*
X136942763Y-171709013D01*
X136865318Y-172272197D01*
X136678721Y-172511057D01*
X136675395Y-172511118D01*
X136474408Y-172739927D01*
X136408026Y-173179539D01*
X136316503Y-173682008D01*
X136140658Y-173847960D01*
X135923426Y-174071895D01*
X135873290Y-174382697D01*
X135761323Y-174817162D01*
X135605921Y-174917434D01*
X135380355Y-175138531D01*
X135338553Y-175393147D01*
X135136824Y-175910069D01*
X134803816Y-176254276D01*
X134387698Y-176709934D01*
X134269079Y-177056381D01*
X134069222Y-177524687D01*
X133734342Y-177858487D01*
X133302672Y-178452543D01*
X133199605Y-178986984D01*
X133116524Y-179524116D01*
X132932237Y-179730066D01*
X132744509Y-179962400D01*
X132664889Y-180522192D01*
X132664869Y-180532171D01*
X132153806Y-180532171D01*
X132189431Y-180129832D01*
X132337567Y-179757337D01*
X132397500Y-179730066D01*
X132585228Y-179497731D01*
X132664848Y-178937940D01*
X132664869Y-178927960D01*
X132587424Y-178364776D01*
X132400827Y-178125917D01*
X132397500Y-178125855D01*
X132137901Y-178329316D01*
X132130132Y-178393224D01*
X131906198Y-178610456D01*
X131595395Y-178660592D01*
X131160930Y-178772559D01*
X131060658Y-178927960D01*
X130831849Y-179128948D01*
X130392237Y-179195329D01*
X129889769Y-179286852D01*
X129723816Y-179462697D01*
X129499882Y-179679930D01*
X129189079Y-179730066D01*
X128769577Y-179535799D01*
X128651674Y-179046206D01*
X128826160Y-178401094D01*
X129283826Y-177740270D01*
X129322763Y-177700496D01*
X129778524Y-177103560D01*
X129989446Y-176548976D01*
X129991184Y-176509491D01*
X130105478Y-176081669D01*
X130258553Y-175986908D01*
X130446281Y-175754573D01*
X130525901Y-175194782D01*
X130525921Y-175184803D01*
X130603366Y-174621618D01*
X130789963Y-174382759D01*
X130793290Y-174382697D01*
X130994277Y-174153889D01*
X131060658Y-173714276D01*
X131152181Y-173211808D01*
X131328026Y-173045855D01*
X131480545Y-172805391D01*
X131577352Y-172190564D01*
X131595395Y-171709013D01*
X131643488Y-170946421D01*
X131766453Y-170462387D01*
X131862763Y-170372171D01*
X132050491Y-170139836D01*
X132130111Y-169580045D01*
X132130132Y-169570066D01*
X132207577Y-169006881D01*
X132394174Y-168768022D01*
X132397500Y-168767960D01*
X132539916Y-168524425D01*
X132636469Y-167888226D01*
X132664869Y-167163750D01*
X132705458Y-166309255D01*
X132811491Y-165729938D01*
X132932237Y-165559539D01*
X133119965Y-165327205D01*
X133199585Y-164767413D01*
X133199605Y-164757434D01*
X133277050Y-164194250D01*
X133463647Y-163955390D01*
X133466974Y-163955329D01*
X133684206Y-163731395D01*
X133734342Y-163420592D01*
X133846309Y-162986127D01*
X134001711Y-162885855D01*
X134248840Y-162674016D01*
X134269079Y-162543827D01*
X134466529Y-162136605D01*
X134803816Y-161816381D01*
X135218677Y-161380730D01*
X135338553Y-161062523D01*
X135520865Y-160659008D01*
X135974945Y-160107562D01*
X136140658Y-159944803D01*
X136942763Y-159195524D01*
X136942763Y-155158584D01*
X136925572Y-153517146D01*
X136875999Y-152267798D01*
X136797044Y-151455857D01*
X136691711Y-151126637D01*
X136675395Y-151121645D01*
X136415796Y-151325105D01*
X136408026Y-151389013D01*
X136175692Y-151576741D01*
X135615900Y-151656361D01*
X135605921Y-151656381D01*
X135042737Y-151578937D01*
X134803878Y-151392339D01*
X134803816Y-151389013D01*
X135007277Y-151129414D01*
X135071184Y-151121645D01*
X135269916Y-150892212D01*
X135338553Y-150432262D01*
X135587965Y-149691303D01*
X136326273Y-148794968D01*
X136408026Y-148715329D01*
X137002844Y-148072050D01*
X137391136Y-147514426D01*
X137477500Y-147265764D01*
X137615592Y-146896708D01*
X137744869Y-146843750D01*
X137962101Y-146619816D01*
X138012237Y-146309013D01*
X138124204Y-145874548D01*
X138279605Y-145774276D01*
X138505171Y-145553179D01*
X138546974Y-145298563D01*
X138748702Y-144781641D01*
X139081711Y-144437434D01*
X139367433Y-144148205D01*
X139530822Y-143704699D01*
X139603143Y-142970586D01*
X139616448Y-142105778D01*
X139645417Y-141163049D01*
X139721879Y-140471715D01*
X139830166Y-140164380D01*
X139846410Y-140159539D01*
X139994975Y-139917645D01*
X140143100Y-139291255D01*
X140234601Y-138626458D01*
X140364973Y-137782495D01*
X140538320Y-137187173D01*
X140673059Y-136999967D01*
X140873979Y-136695427D01*
X140953290Y-136126732D01*
X141032769Y-135573254D01*
X141220658Y-135346908D01*
X141454773Y-135129063D01*
X141488026Y-134926757D01*
X141683445Y-134377349D01*
X142128797Y-133905813D01*
X142547315Y-133742697D01*
X142895642Y-133566922D01*
X143449001Y-133119958D01*
X143769570Y-132815820D01*
X144294444Y-132241623D01*
X144572207Y-131726112D01*
X144680236Y-131057245D01*
X144696448Y-130275820D01*
X144736836Y-129417691D01*
X144842453Y-128835517D01*
X144963816Y-128662697D01*
X145151544Y-128430363D01*
X145231164Y-127870571D01*
X145231184Y-127860592D01*
X145308629Y-127297408D01*
X145495226Y-127058548D01*
X145498553Y-127058487D01*
X145715785Y-126834553D01*
X145765921Y-126523750D01*
X145877888Y-126089285D01*
X146033290Y-125989013D01*
X146258856Y-125767916D01*
X146300658Y-125513300D01*
X146502386Y-124996378D01*
X146835395Y-124652171D01*
X147249900Y-124222076D01*
X147370132Y-123911819D01*
X147550567Y-123582264D01*
X148035946Y-122984267D01*
X148742376Y-122216473D01*
X149241711Y-121711118D01*
X150039350Y-120898410D01*
X150667735Y-120208541D01*
X151043593Y-119735724D01*
X151113290Y-119593652D01*
X151292917Y-119319572D01*
X151788479Y-118741579D01*
X152534992Y-117931055D01*
X153467473Y-116959383D01*
X154045818Y-116372324D01*
X155286428Y-115149712D01*
X156226076Y-114286784D01*
X156916479Y-113741278D01*
X157409352Y-113470933D01*
X157655291Y-113422697D01*
X158161823Y-113332225D01*
X158332237Y-113155329D01*
X158556171Y-112938096D01*
X158866974Y-112887960D01*
X159301439Y-112775993D01*
X159401711Y-112620592D01*
X159625645Y-112403360D01*
X159936448Y-112353224D01*
X160370912Y-112241256D01*
X160471184Y-112085855D01*
X160695118Y-111868623D01*
X161005921Y-111818487D01*
X161355765Y-111728802D01*
X161510383Y-111366311D01*
X161540658Y-110749013D01*
X161481359Y-110079306D01*
X161333223Y-109706810D01*
X161273290Y-109679539D01*
X161141203Y-109429205D01*
X161048279Y-108744996D01*
X161006929Y-107727106D01*
X161005921Y-107521494D01*
X161059585Y-106174016D01*
X161239091Y-105283959D01*
X161572210Y-104783077D01*
X162086713Y-104603124D01*
X162194933Y-104599539D01*
X162581708Y-104785976D01*
X163204712Y-105273692D01*
X163956024Y-105955295D01*
X164727722Y-106723394D01*
X165411884Y-107470595D01*
X165900589Y-108089509D01*
X166085921Y-108471430D01*
X166301321Y-108825619D01*
X166506072Y-108877434D01*
X167059914Y-109046724D01*
X167298898Y-109211645D01*
X168003669Y-109802982D01*
X168537333Y-110103198D01*
X169099324Y-110206712D01*
X169416742Y-110214276D01*
X170039738Y-110280686D01*
X170354505Y-110444227D01*
X170363816Y-110481645D01*
X170587750Y-110698877D01*
X170898553Y-110749013D01*
X171333018Y-110860980D01*
X171433290Y-111016381D01*
X171657224Y-111233614D01*
X171968026Y-111283750D01*
X172402491Y-111395717D01*
X172502763Y-111551118D01*
X172737801Y-111727841D01*
X173315743Y-111816177D01*
X173438553Y-111818487D01*
X174057081Y-111751333D01*
X174366260Y-111586207D01*
X174374342Y-111551118D01*
X174606677Y-111363390D01*
X175166468Y-111283770D01*
X175176448Y-111283750D01*
X175739632Y-111206305D01*
X175978491Y-111019708D01*
X175978553Y-111016381D01*
X176202487Y-110799149D01*
X176513290Y-110749013D01*
X176947754Y-110637046D01*
X177048026Y-110481645D01*
X177303687Y-110361006D01*
X178025117Y-110272724D01*
X179143990Y-110223010D01*
X179989079Y-110214276D01*
X181316102Y-110191034D01*
X182287206Y-110125450D01*
X182834064Y-110023734D01*
X182930132Y-109946908D01*
X183158940Y-109745920D01*
X183598553Y-109679539D01*
X184125119Y-109848186D01*
X184265869Y-110259797D01*
X184006653Y-110772881D01*
X183732237Y-111016381D01*
X183321704Y-111387495D01*
X183197500Y-111610142D01*
X183421922Y-111779555D01*
X183732237Y-111818487D01*
X184166702Y-111930454D01*
X184266974Y-112085855D01*
X184461839Y-112323392D01*
X184908919Y-112305075D01*
X185401937Y-112050241D01*
X185489229Y-111971269D01*
X185811613Y-111453358D01*
X185871184Y-111169163D01*
X186009813Y-110801269D01*
X186138553Y-110749013D01*
X186355785Y-110525079D01*
X186405921Y-110214276D01*
X186516102Y-109779783D01*
X186668977Y-109679539D01*
X186955785Y-109500945D01*
X187525218Y-109018121D01*
X188287419Y-108310502D01*
X188937296Y-107674276D01*
X189794930Y-106847626D01*
X190539679Y-106186617D01*
X191077740Y-105771237D01*
X191288901Y-105669013D01*
X191699637Y-105471423D01*
X192020658Y-105134276D01*
X192666987Y-104687582D01*
X193318001Y-104599539D01*
X194229927Y-104599539D01*
X194097732Y-106659428D01*
D11*
X191293750Y-116181190D02*
X191293750Y-116657380D01*
X190960416Y-115657380D02*
X191293750Y-116181190D01*
X191627083Y-115657380D01*
X320643452Y-135183571D02*
X320976785Y-135183571D01*
X321119642Y-135707380D02*
X320643452Y-135707380D01*
X320643452Y-134707380D01*
X321119642Y-134707380D01*
X321548214Y-135707380D02*
X321548214Y-134707380D01*
X322119642Y-135707380D01*
X322119642Y-134707380D01*
X322452976Y-134707380D02*
X323024404Y-134707380D01*
X322738690Y-135707380D02*
X322738690Y-134707380D01*
X323929166Y-135707380D02*
X323595833Y-135231190D01*
X323357738Y-135707380D02*
X323357738Y-134707380D01*
X323738690Y-134707380D01*
X323833928Y-134755000D01*
X323881547Y-134802619D01*
X323929166Y-134897857D01*
X323929166Y-135040714D01*
X323881547Y-135135952D01*
X323833928Y-135183571D01*
X323738690Y-135231190D01*
X323357738Y-135231190D01*
X78255952Y-154757380D02*
X77779761Y-154757380D01*
X77779761Y-153757380D01*
X78541666Y-154709761D02*
X78684523Y-154757380D01*
X78922619Y-154757380D01*
X79017857Y-154709761D01*
X79065476Y-154662142D01*
X79113095Y-154566904D01*
X79113095Y-154471666D01*
X79065476Y-154376428D01*
X79017857Y-154328809D01*
X78922619Y-154281190D01*
X78732142Y-154233571D01*
X78636904Y-154185952D01*
X78589285Y-154138333D01*
X78541666Y-154043095D01*
X78541666Y-153947857D01*
X78589285Y-153852619D01*
X78636904Y-153805000D01*
X78732142Y-153757380D01*
X78970238Y-153757380D01*
X79113095Y-153805000D01*
X79541666Y-154757380D02*
X79541666Y-153757380D01*
X79541666Y-154233571D02*
X80113095Y-154233571D01*
X80113095Y-154757380D02*
X80113095Y-153757380D01*
X80922619Y-154233571D02*
X80589285Y-154233571D01*
X80589285Y-154757380D02*
X80589285Y-153757380D01*
X81065476Y-153757380D01*
X306855952Y-154757380D02*
X306522619Y-154281190D01*
X306284523Y-154757380D02*
X306284523Y-153757380D01*
X306665476Y-153757380D01*
X306760714Y-153805000D01*
X306808333Y-153852619D01*
X306855952Y-153947857D01*
X306855952Y-154090714D01*
X306808333Y-154185952D01*
X306760714Y-154233571D01*
X306665476Y-154281190D01*
X306284523Y-154281190D01*
X307236904Y-154709761D02*
X307379761Y-154757380D01*
X307617857Y-154757380D01*
X307713095Y-154709761D01*
X307760714Y-154662142D01*
X307808333Y-154566904D01*
X307808333Y-154471666D01*
X307760714Y-154376428D01*
X307713095Y-154328809D01*
X307617857Y-154281190D01*
X307427380Y-154233571D01*
X307332142Y-154185952D01*
X307284523Y-154138333D01*
X307236904Y-154043095D01*
X307236904Y-153947857D01*
X307284523Y-153852619D01*
X307332142Y-153805000D01*
X307427380Y-153757380D01*
X307665476Y-153757380D01*
X307808333Y-153805000D01*
X308236904Y-154757380D02*
X308236904Y-153757380D01*
X308236904Y-154233571D02*
X308808333Y-154233571D01*
X308808333Y-154757380D02*
X308808333Y-153757380D01*
X309617857Y-154233571D02*
X309284523Y-154233571D01*
X309284523Y-154757380D02*
X309284523Y-153757380D01*
X309760714Y-153757380D01*
X73517261Y-135612142D02*
X73469642Y-135659761D01*
X73326785Y-135707380D01*
X73231547Y-135707380D01*
X73088690Y-135659761D01*
X72993452Y-135564523D01*
X72945833Y-135469285D01*
X72898214Y-135278809D01*
X72898214Y-135135952D01*
X72945833Y-134945476D01*
X72993452Y-134850238D01*
X73088690Y-134755000D01*
X73231547Y-134707380D01*
X73326785Y-134707380D01*
X73469642Y-134755000D01*
X73517261Y-134802619D01*
X73898214Y-135421666D02*
X74374404Y-135421666D01*
X73802976Y-135707380D02*
X74136309Y-134707380D01*
X74469642Y-135707380D01*
X74802976Y-135707380D02*
X74802976Y-134707380D01*
X75183928Y-134707380D01*
X75279166Y-134755000D01*
X75326785Y-134802619D01*
X75374404Y-134897857D01*
X75374404Y-135040714D01*
X75326785Y-135135952D01*
X75279166Y-135183571D01*
X75183928Y-135231190D01*
X74802976Y-135231190D01*
X75755357Y-135659761D02*
X75898214Y-135707380D01*
X76136309Y-135707380D01*
X76231547Y-135659761D01*
X76279166Y-135612142D01*
X76326785Y-135516904D01*
X76326785Y-135421666D01*
X76279166Y-135326428D01*
X76231547Y-135278809D01*
X76136309Y-135231190D01*
X75945833Y-135183571D01*
X75850595Y-135135952D01*
X75802976Y-135088333D01*
X75755357Y-134993095D01*
X75755357Y-134897857D01*
X75802976Y-134802619D01*
X75850595Y-134755000D01*
X75945833Y-134707380D01*
X76183928Y-134707380D01*
X76326785Y-134755000D01*
X328501488Y-115562142D02*
X329358630Y-116847857D01*
X329739583Y-116990714D02*
X329739583Y-115562142D01*
X71016964Y-115657380D02*
X71588392Y-115657380D01*
X71302678Y-116657380D02*
X71302678Y-115657380D01*
X71874107Y-116371666D02*
X72350297Y-116371666D01*
X71778869Y-116657380D02*
X72112202Y-115657380D01*
X72445535Y-116657380D01*
X73112202Y-116133571D02*
X73255059Y-116181190D01*
X73302678Y-116228809D01*
X73350297Y-116324047D01*
X73350297Y-116466904D01*
X73302678Y-116562142D01*
X73255059Y-116609761D01*
X73159821Y-116657380D01*
X72778869Y-116657380D01*
X72778869Y-115657380D01*
X73112202Y-115657380D01*
X73207440Y-115705000D01*
X73255059Y-115752619D01*
X73302678Y-115847857D01*
X73302678Y-115943095D01*
X73255059Y-116038333D01*
X73207440Y-116085952D01*
X73112202Y-116133571D01*
X72778869Y-116133571D01*
X91638690Y-172807380D02*
X91876785Y-173807380D01*
X92067261Y-173093095D01*
X92257738Y-173807380D01*
X92495833Y-172807380D01*
X92876785Y-173807380D02*
X92876785Y-172807380D01*
X93448214Y-173807380D01*
X93448214Y-172807380D01*
X93924404Y-173807380D02*
X93924404Y-172807380D01*
X94162500Y-172807380D01*
X94305357Y-172855000D01*
X94400595Y-172950238D01*
X94448214Y-173045476D01*
X94495833Y-173235952D01*
X94495833Y-173378809D01*
X94448214Y-173569285D01*
X94400595Y-173664523D01*
X94305357Y-173759761D01*
X94162500Y-173807380D01*
X93924404Y-173807380D01*
X94829166Y-172807380D02*
X95067261Y-173807380D01*
X95257738Y-173093095D01*
X95448214Y-173807380D01*
X95686309Y-172807380D01*
X116570238Y-173807380D02*
X116094047Y-173807380D01*
X116094047Y-172807380D01*
X116855952Y-173521666D02*
X117332142Y-173521666D01*
X116760714Y-173807380D02*
X117094047Y-172807380D01*
X117427380Y-173807380D01*
X118236904Y-173807380D02*
X117760714Y-173807380D01*
X117760714Y-172807380D01*
X118427380Y-172807380D02*
X118998809Y-172807380D01*
X118713095Y-173807380D02*
X118713095Y-172807380D01*
X68778571Y-173807380D02*
X68302380Y-173807380D01*
X68302380Y-172807380D01*
X69683333Y-173712142D02*
X69635714Y-173759761D01*
X69492857Y-173807380D01*
X69397619Y-173807380D01*
X69254761Y-173759761D01*
X69159523Y-173664523D01*
X69111904Y-173569285D01*
X69064285Y-173378809D01*
X69064285Y-173235952D01*
X69111904Y-173045476D01*
X69159523Y-172950238D01*
X69254761Y-172855000D01*
X69397619Y-172807380D01*
X69492857Y-172807380D01*
X69635714Y-172855000D01*
X69683333Y-172902619D01*
X69969047Y-172807380D02*
X70540476Y-172807380D01*
X70254761Y-173807380D02*
X70254761Y-172807380D01*
X71445238Y-173807380D02*
X71111904Y-173331190D01*
X70873809Y-173807380D02*
X70873809Y-172807380D01*
X71254761Y-172807380D01*
X71350000Y-172855000D01*
X71397619Y-172902619D01*
X71445238Y-172997857D01*
X71445238Y-173140714D01*
X71397619Y-173235952D01*
X71350000Y-173283571D01*
X71254761Y-173331190D01*
X70873809Y-173331190D01*
X282852976Y-173283571D02*
X282519642Y-173283571D01*
X282519642Y-173807380D02*
X282519642Y-172807380D01*
X282995833Y-172807380D01*
X283376785Y-173807380D02*
X283376785Y-172807380D01*
X283948214Y-173807380D01*
X283948214Y-172807380D01*
X284424404Y-173807380D02*
X284424404Y-172807380D01*
X284995833Y-173807380D02*
X284567261Y-173235952D01*
X284995833Y-172807380D02*
X284424404Y-173378809D01*
X285614880Y-173331190D02*
X285614880Y-173807380D01*
X285281547Y-172807380D02*
X285614880Y-173331190D01*
X285948214Y-172807380D01*
X259445238Y-173807380D02*
X259111904Y-173331190D01*
X258873809Y-173807380D02*
X258873809Y-172807380D01*
X259254761Y-172807380D01*
X259350000Y-172855000D01*
X259397619Y-172902619D01*
X259445238Y-172997857D01*
X259445238Y-173140714D01*
X259397619Y-173235952D01*
X259350000Y-173283571D01*
X259254761Y-173331190D01*
X258873809Y-173331190D01*
X259826190Y-173521666D02*
X260302380Y-173521666D01*
X259730952Y-173807380D02*
X260064285Y-172807380D01*
X260397619Y-173807380D01*
X261207142Y-173807380D02*
X260730952Y-173807380D01*
X260730952Y-172807380D01*
X261397619Y-172807380D02*
X261969047Y-172807380D01*
X261683333Y-173807380D02*
X261683333Y-172807380D01*
X323238988Y-97083571D02*
X323381845Y-97131190D01*
X323429464Y-97178809D01*
X323477083Y-97274047D01*
X323477083Y-97416904D01*
X323429464Y-97512142D01*
X323381845Y-97559761D01*
X323286607Y-97607380D01*
X322905654Y-97607380D01*
X322905654Y-96607380D01*
X323238988Y-96607380D01*
X323334226Y-96655000D01*
X323381845Y-96702619D01*
X323429464Y-96797857D01*
X323429464Y-96893095D01*
X323381845Y-96988333D01*
X323334226Y-97035952D01*
X323238988Y-97083571D01*
X322905654Y-97083571D01*
X323858035Y-97559761D02*
X324000892Y-97607380D01*
X324238988Y-97607380D01*
X324334226Y-97559761D01*
X324381845Y-97512142D01*
X324429464Y-97416904D01*
X324429464Y-97321666D01*
X324381845Y-97226428D01*
X324334226Y-97178809D01*
X324238988Y-97131190D01*
X324048511Y-97083571D01*
X323953273Y-97035952D01*
X323905654Y-96988333D01*
X323858035Y-96893095D01*
X323858035Y-96797857D01*
X323905654Y-96702619D01*
X323953273Y-96655000D01*
X324048511Y-96607380D01*
X324286607Y-96607380D01*
X324429464Y-96655000D01*
X324858035Y-97607380D02*
X324858035Y-96607380D01*
X325238988Y-96607380D01*
X325334226Y-96655000D01*
X325381845Y-96702619D01*
X325429464Y-96797857D01*
X325429464Y-96940714D01*
X325381845Y-97035952D01*
X325334226Y-97083571D01*
X325238988Y-97131190D01*
X324858035Y-97131190D01*
X326429464Y-97512142D02*
X326381845Y-97559761D01*
X326238988Y-97607380D01*
X326143750Y-97607380D01*
X326000892Y-97559761D01*
X325905654Y-97464523D01*
X325858035Y-97369285D01*
X325810416Y-97178809D01*
X325810416Y-97035952D01*
X325858035Y-96845476D01*
X325905654Y-96750238D01*
X326000892Y-96655000D01*
X326143750Y-96607380D01*
X326238988Y-96607380D01*
X326381845Y-96655000D01*
X326429464Y-96702619D01*
X352028273Y-173807380D02*
X351694940Y-173331190D01*
X351456845Y-173807380D02*
X351456845Y-172807380D01*
X351837797Y-172807380D01*
X351933035Y-172855000D01*
X351980654Y-172902619D01*
X352028273Y-172997857D01*
X352028273Y-173140714D01*
X351980654Y-173235952D01*
X351933035Y-173283571D01*
X351837797Y-173331190D01*
X351456845Y-173331190D01*
X352409226Y-173521666D02*
X352885416Y-173521666D01*
X352313988Y-173807380D02*
X352647321Y-172807380D01*
X352980654Y-173807380D01*
X353885416Y-173807380D02*
X353552083Y-173331190D01*
X353313988Y-173807380D02*
X353313988Y-172807380D01*
X353694940Y-172807380D01*
X353790178Y-172855000D01*
X353837797Y-172902619D01*
X353885416Y-172997857D01*
X353885416Y-173140714D01*
X353837797Y-173235952D01*
X353790178Y-173283571D01*
X353694940Y-173331190D01*
X353313988Y-173331190D01*
X354218750Y-172807380D02*
X354456845Y-173807380D01*
X354647321Y-173093095D01*
X354837797Y-173807380D01*
X355075892Y-172807380D01*
X332406845Y-173807380D02*
X332406845Y-172807380D01*
X332644940Y-172807380D01*
X332787797Y-172855000D01*
X332883035Y-172950238D01*
X332930654Y-173045476D01*
X332978273Y-173235952D01*
X332978273Y-173378809D01*
X332930654Y-173569285D01*
X332883035Y-173664523D01*
X332787797Y-173759761D01*
X332644940Y-173807380D01*
X332406845Y-173807380D01*
X333359226Y-173521666D02*
X333835416Y-173521666D01*
X333263988Y-173807380D02*
X333597321Y-172807380D01*
X333930654Y-173807380D01*
X334835416Y-173807380D02*
X334502083Y-173331190D01*
X334263988Y-173807380D02*
X334263988Y-172807380D01*
X334644940Y-172807380D01*
X334740178Y-172855000D01*
X334787797Y-172902619D01*
X334835416Y-172997857D01*
X334835416Y-173140714D01*
X334787797Y-173235952D01*
X334740178Y-173283571D01*
X334644940Y-173331190D01*
X334263988Y-173331190D01*
X335168750Y-172807380D02*
X335406845Y-173807380D01*
X335597321Y-173093095D01*
X335787797Y-173807380D01*
X336025892Y-172807380D01*
X313928273Y-173807380D02*
X313452083Y-173807380D01*
X313452083Y-172807380D01*
X314213988Y-173521666D02*
X314690178Y-173521666D01*
X314118750Y-173807380D02*
X314452083Y-172807380D01*
X314785416Y-173807380D01*
X315690178Y-173807380D02*
X315356845Y-173331190D01*
X315118750Y-173807380D02*
X315118750Y-172807380D01*
X315499702Y-172807380D01*
X315594940Y-172855000D01*
X315642559Y-172902619D01*
X315690178Y-172997857D01*
X315690178Y-173140714D01*
X315642559Y-173235952D01*
X315594940Y-173283571D01*
X315499702Y-173331190D01*
X315118750Y-173331190D01*
X316023511Y-172807380D02*
X316261607Y-173807380D01*
X316452083Y-173093095D01*
X316642559Y-173807380D01*
X316880654Y-172807380D01*
X351433035Y-154757380D02*
X351433035Y-153757380D01*
X351813988Y-153757380D01*
X351909226Y-153805000D01*
X351956845Y-153852619D01*
X352004464Y-153947857D01*
X352004464Y-154090714D01*
X351956845Y-154185952D01*
X351909226Y-154233571D01*
X351813988Y-154281190D01*
X351433035Y-154281190D01*
X352956845Y-153805000D02*
X352861607Y-153757380D01*
X352718750Y-153757380D01*
X352575892Y-153805000D01*
X352480654Y-153900238D01*
X352433035Y-153995476D01*
X352385416Y-154185952D01*
X352385416Y-154328809D01*
X352433035Y-154519285D01*
X352480654Y-154614523D01*
X352575892Y-154709761D01*
X352718750Y-154757380D01*
X352813988Y-154757380D01*
X352956845Y-154709761D01*
X353004464Y-154662142D01*
X353004464Y-154328809D01*
X352813988Y-154328809D01*
X353433035Y-154757380D02*
X353433035Y-153757380D01*
X353671130Y-153757380D01*
X353813988Y-153805000D01*
X353909226Y-153900238D01*
X353956845Y-153995476D01*
X354004464Y-154185952D01*
X354004464Y-154328809D01*
X353956845Y-154519285D01*
X353909226Y-154614523D01*
X353813988Y-154709761D01*
X353671130Y-154757380D01*
X353433035Y-154757380D01*
X354433035Y-154757380D02*
X354433035Y-153757380D01*
X355004464Y-154757380D01*
X355004464Y-153757380D01*
X332383035Y-153757380D02*
X332383035Y-154566904D01*
X332430654Y-154662142D01*
X332478273Y-154709761D01*
X332573511Y-154757380D01*
X332763988Y-154757380D01*
X332859226Y-154709761D01*
X332906845Y-154662142D01*
X332954464Y-154566904D01*
X332954464Y-153757380D01*
X333383035Y-154471666D02*
X333859226Y-154471666D01*
X333287797Y-154757380D02*
X333621130Y-153757380D01*
X333954464Y-154757380D01*
X334859226Y-154757380D02*
X334525892Y-154281190D01*
X334287797Y-154757380D02*
X334287797Y-153757380D01*
X334668750Y-153757380D01*
X334763988Y-153805000D01*
X334811607Y-153852619D01*
X334859226Y-153947857D01*
X334859226Y-154090714D01*
X334811607Y-154185952D01*
X334763988Y-154233571D01*
X334668750Y-154281190D01*
X334287797Y-154281190D01*
X335192559Y-153757380D02*
X335430654Y-154757380D01*
X335621130Y-154043095D01*
X335811607Y-154757380D01*
X336049702Y-153757380D01*
X281781250Y-153709761D02*
X280924107Y-154995476D01*
X282257440Y-154662142D02*
X282305059Y-154709761D01*
X282257440Y-154757380D01*
X282209821Y-154709761D01*
X282257440Y-154662142D01*
X282257440Y-154757380D01*
X282066964Y-153805000D02*
X282162202Y-153757380D01*
X282400297Y-153757380D01*
X282495535Y-153805000D01*
X282543154Y-153900238D01*
X282543154Y-153995476D01*
X282495535Y-154090714D01*
X282447916Y-154138333D01*
X282352678Y-154185952D01*
X282305059Y-154233571D01*
X282257440Y-154328809D01*
X282257440Y-154376428D01*
X262112202Y-154662142D02*
X262159821Y-154709761D01*
X262112202Y-154757380D01*
X262064583Y-154709761D01*
X262112202Y-154662142D01*
X262112202Y-154757380D01*
X262588392Y-154090714D02*
X263350297Y-154376428D01*
X262588392Y-154662142D01*
X243109821Y-154709761D02*
X243109821Y-154757380D01*
X243062202Y-154852619D01*
X243014583Y-154900238D01*
X244300297Y-154090714D02*
X243538392Y-154376428D01*
X244300297Y-154662142D01*
X224297916Y-154757380D02*
X224297916Y-153757380D01*
X224631250Y-154471666D01*
X224964583Y-153757380D01*
X224964583Y-154757380D01*
X205295535Y-154757380D02*
X205295535Y-153757380D01*
X205866964Y-154757380D01*
X205866964Y-153757380D01*
X186602678Y-154233571D02*
X186745535Y-154281190D01*
X186793154Y-154328809D01*
X186840773Y-154424047D01*
X186840773Y-154566904D01*
X186793154Y-154662142D01*
X186745535Y-154709761D01*
X186650297Y-154757380D01*
X186269345Y-154757380D01*
X186269345Y-153757380D01*
X186602678Y-153757380D01*
X186697916Y-153805000D01*
X186745535Y-153852619D01*
X186793154Y-153947857D01*
X186793154Y-154043095D01*
X186745535Y-154138333D01*
X186697916Y-154185952D01*
X186602678Y-154233571D01*
X186269345Y-154233571D01*
X167147916Y-153757380D02*
X167481250Y-154757380D01*
X167814583Y-153757380D01*
X148740773Y-154662142D02*
X148693154Y-154709761D01*
X148550297Y-154757380D01*
X148455059Y-154757380D01*
X148312202Y-154709761D01*
X148216964Y-154614523D01*
X148169345Y-154519285D01*
X148121726Y-154328809D01*
X148121726Y-154185952D01*
X148169345Y-153995476D01*
X148216964Y-153900238D01*
X148312202Y-153805000D01*
X148455059Y-153757380D01*
X148550297Y-153757380D01*
X148693154Y-153805000D01*
X148740773Y-153852619D01*
X129047916Y-153757380D02*
X129714583Y-154757380D01*
X129714583Y-153757380D02*
X129047916Y-154757380D01*
X109997916Y-153757380D02*
X110664583Y-153757380D01*
X109997916Y-154757380D01*
X110664583Y-154757380D01*
X351433035Y-135707380D02*
X351433035Y-134707380D01*
X351813988Y-134707380D01*
X351909226Y-134755000D01*
X351956845Y-134802619D01*
X352004464Y-134897857D01*
X352004464Y-135040714D01*
X351956845Y-135135952D01*
X351909226Y-135183571D01*
X351813988Y-135231190D01*
X351433035Y-135231190D01*
X352956845Y-134755000D02*
X352861607Y-134707380D01*
X352718750Y-134707380D01*
X352575892Y-134755000D01*
X352480654Y-134850238D01*
X352433035Y-134945476D01*
X352385416Y-135135952D01*
X352385416Y-135278809D01*
X352433035Y-135469285D01*
X352480654Y-135564523D01*
X352575892Y-135659761D01*
X352718750Y-135707380D01*
X352813988Y-135707380D01*
X352956845Y-135659761D01*
X353004464Y-135612142D01*
X353004464Y-135278809D01*
X352813988Y-135278809D01*
X353433035Y-134707380D02*
X353433035Y-135516904D01*
X353480654Y-135612142D01*
X353528273Y-135659761D01*
X353623511Y-135707380D01*
X353813988Y-135707380D01*
X353909226Y-135659761D01*
X353956845Y-135612142D01*
X354004464Y-135516904D01*
X354004464Y-134707380D01*
X354480654Y-135707380D02*
X354480654Y-134707380D01*
X354861607Y-134707380D01*
X354956845Y-134755000D01*
X355004464Y-134802619D01*
X355052083Y-134897857D01*
X355052083Y-135040714D01*
X355004464Y-135135952D01*
X354956845Y-135183571D01*
X354861607Y-135231190D01*
X354480654Y-135231190D01*
X290972916Y-134707380D02*
X290877678Y-134897857D01*
X291353869Y-134707380D02*
X291353869Y-134897857D01*
X291734821Y-134707380D02*
X291734821Y-134897857D01*
X272065773Y-135659761D02*
X272065773Y-135707380D01*
X272018154Y-135802619D01*
X271970535Y-135850238D01*
X272018154Y-135088333D02*
X272065773Y-135135952D01*
X272018154Y-135183571D01*
X271970535Y-135135952D01*
X272018154Y-135088333D01*
X272018154Y-135183571D01*
X272494345Y-135612142D02*
X272541964Y-135659761D01*
X272494345Y-135707380D01*
X272446726Y-135659761D01*
X272494345Y-135612142D01*
X272494345Y-135707380D01*
X272494345Y-135088333D02*
X272541964Y-135135952D01*
X272494345Y-135183571D01*
X272446726Y-135135952D01*
X272494345Y-135088333D01*
X272494345Y-135183571D01*
X253515773Y-135707380D02*
X253039583Y-135707380D01*
X253039583Y-134707380D01*
X233894345Y-135707380D02*
X233894345Y-134707380D01*
X234465773Y-135707380D02*
X234037202Y-135135952D01*
X234465773Y-134707380D02*
X233894345Y-135278809D01*
X215249107Y-134707380D02*
X215249107Y-135421666D01*
X215201488Y-135564523D01*
X215106250Y-135659761D01*
X214963392Y-135707380D01*
X214868154Y-135707380D01*
X195770535Y-135707380D02*
X195770535Y-134707380D01*
X195770535Y-135183571D02*
X196341964Y-135183571D01*
X196341964Y-135707380D02*
X196341964Y-134707380D01*
X177268154Y-134755000D02*
X177172916Y-134707380D01*
X177030059Y-134707380D01*
X176887202Y-134755000D01*
X176791964Y-134850238D01*
X176744345Y-134945476D01*
X176696726Y-135135952D01*
X176696726Y-135278809D01*
X176744345Y-135469285D01*
X176791964Y-135564523D01*
X176887202Y-135659761D01*
X177030059Y-135707380D01*
X177125297Y-135707380D01*
X177268154Y-135659761D01*
X177315773Y-135612142D01*
X177315773Y-135278809D01*
X177125297Y-135278809D01*
X158099107Y-135183571D02*
X157765773Y-135183571D01*
X157765773Y-135707380D02*
X157765773Y-134707380D01*
X158241964Y-134707380D01*
X138644345Y-135707380D02*
X138644345Y-134707380D01*
X138882440Y-134707380D01*
X139025297Y-134755000D01*
X139120535Y-134850238D01*
X139168154Y-134945476D01*
X139215773Y-135135952D01*
X139215773Y-135278809D01*
X139168154Y-135469285D01*
X139120535Y-135564523D01*
X139025297Y-135659761D01*
X138882440Y-135707380D01*
X138644345Y-135707380D01*
X119570535Y-135659761D02*
X119713392Y-135707380D01*
X119951488Y-135707380D01*
X120046726Y-135659761D01*
X120094345Y-135612142D01*
X120141964Y-135516904D01*
X120141964Y-135421666D01*
X120094345Y-135326428D01*
X120046726Y-135278809D01*
X119951488Y-135231190D01*
X119761011Y-135183571D01*
X119665773Y-135135952D01*
X119618154Y-135088333D01*
X119570535Y-134993095D01*
X119570535Y-134897857D01*
X119618154Y-134802619D01*
X119665773Y-134755000D01*
X119761011Y-134707380D01*
X119999107Y-134707380D01*
X120141964Y-134755000D01*
X100568154Y-135421666D02*
X101044345Y-135421666D01*
X100472916Y-135707380D02*
X100806250Y-134707380D01*
X101139583Y-135707380D01*
X351718750Y-116657380D02*
X351718750Y-115657380D01*
X351956845Y-115657380D01*
X352099702Y-115705000D01*
X352194940Y-115800238D01*
X352242559Y-115895476D01*
X352290178Y-116085952D01*
X352290178Y-116228809D01*
X352242559Y-116419285D01*
X352194940Y-116514523D01*
X352099702Y-116609761D01*
X351956845Y-116657380D01*
X351718750Y-116657380D01*
X353194940Y-116657380D02*
X352718750Y-116657380D01*
X352718750Y-115657380D01*
X353385416Y-115657380D02*
X353956845Y-115657380D01*
X353671130Y-116657380D02*
X353671130Y-115657380D01*
X354290178Y-116133571D02*
X354623511Y-116133571D01*
X354766369Y-116657380D02*
X354290178Y-116657380D01*
X354290178Y-115657380D01*
X354766369Y-115657380D01*
X305069940Y-116990714D02*
X305308035Y-116990714D01*
X305308035Y-115562142D01*
X305069940Y-115562142D01*
X305736607Y-117038333D02*
X305784226Y-117038333D01*
X305879464Y-116990714D01*
X305927083Y-116895476D01*
X305927083Y-116419285D01*
X305974702Y-116324047D01*
X306069940Y-116276428D01*
X305974702Y-116228809D01*
X305927083Y-116133571D01*
X305927083Y-115657380D01*
X305879464Y-115562142D01*
X305784226Y-115514523D01*
X305736607Y-115514523D01*
X286400892Y-116990714D02*
X286162797Y-116990714D01*
X286162797Y-115562142D01*
X286400892Y-115562142D01*
X287067559Y-117038333D02*
X287019940Y-117038333D01*
X286924702Y-116990714D01*
X286877083Y-116895476D01*
X286877083Y-116419285D01*
X286829464Y-116324047D01*
X286734226Y-116276428D01*
X286829464Y-116228809D01*
X286877083Y-116133571D01*
X286877083Y-115657380D01*
X286924702Y-115562142D01*
X287019940Y-115514523D01*
X287067559Y-115514523D01*
X267231845Y-116657380D02*
X267231845Y-115657380D01*
X267612797Y-115657380D01*
X267708035Y-115705000D01*
X267755654Y-115752619D01*
X267803273Y-115847857D01*
X267803273Y-115990714D01*
X267755654Y-116085952D01*
X267708035Y-116133571D01*
X267612797Y-116181190D01*
X267231845Y-116181190D01*
X248348511Y-115657380D02*
X248538988Y-115657380D01*
X248634226Y-115705000D01*
X248729464Y-115800238D01*
X248777083Y-115990714D01*
X248777083Y-116324047D01*
X248729464Y-116514523D01*
X248634226Y-116609761D01*
X248538988Y-116657380D01*
X248348511Y-116657380D01*
X248253273Y-116609761D01*
X248158035Y-116514523D01*
X248110416Y-116324047D01*
X248110416Y-115990714D01*
X248158035Y-115800238D01*
X248253273Y-115705000D01*
X248348511Y-115657380D01*
X229393750Y-116657380D02*
X229393750Y-115657380D01*
X210058035Y-115657380D02*
X210058035Y-116466904D01*
X210105654Y-116562142D01*
X210153273Y-116609761D01*
X210248511Y-116657380D01*
X210438988Y-116657380D01*
X210534226Y-116609761D01*
X210581845Y-116562142D01*
X210629464Y-116466904D01*
X210629464Y-115657380D01*
X171958035Y-115657380D02*
X172529464Y-115657380D01*
X172243750Y-116657380D02*
X172243750Y-115657380D01*
X153503273Y-116657380D02*
X153169940Y-116181190D01*
X152931845Y-116657380D02*
X152931845Y-115657380D01*
X153312797Y-115657380D01*
X153408035Y-115705000D01*
X153455654Y-115752619D01*
X153503273Y-115847857D01*
X153503273Y-115990714D01*
X153455654Y-116085952D01*
X153408035Y-116133571D01*
X153312797Y-116181190D01*
X152931845Y-116181190D01*
X133929464Y-116133571D02*
X134262797Y-116133571D01*
X134405654Y-116657380D02*
X133929464Y-116657380D01*
X133929464Y-115657380D01*
X134405654Y-115657380D01*
X114665178Y-115657380D02*
X114903273Y-116657380D01*
X115093750Y-115943095D01*
X115284226Y-116657380D01*
X115522321Y-115657380D01*
X96424702Y-116752619D02*
X96329464Y-116705000D01*
X96234226Y-116609761D01*
X96091369Y-116466904D01*
X95996130Y-116419285D01*
X95900892Y-116419285D01*
X95948511Y-116657380D02*
X95853273Y-116609761D01*
X95758035Y-116514523D01*
X95710416Y-116324047D01*
X95710416Y-115990714D01*
X95758035Y-115800238D01*
X95853273Y-115705000D01*
X95948511Y-115657380D01*
X96138988Y-115657380D01*
X96234226Y-115705000D01*
X96329464Y-115800238D01*
X96377083Y-115990714D01*
X96377083Y-116324047D01*
X96329464Y-116514523D01*
X96234226Y-116609761D01*
X96138988Y-116657380D01*
X95948511Y-116657380D01*
X351718750Y-97607380D02*
X351718750Y-96607380D01*
X352194940Y-97607380D02*
X352194940Y-96607380D01*
X352766369Y-97607380D01*
X352766369Y-96607380D01*
X353194940Y-97559761D02*
X353337797Y-97607380D01*
X353575892Y-97607380D01*
X353671130Y-97559761D01*
X353718750Y-97512142D01*
X353766369Y-97416904D01*
X353766369Y-97321666D01*
X353718750Y-97226428D01*
X353671130Y-97178809D01*
X353575892Y-97131190D01*
X353385416Y-97083571D01*
X353290178Y-97035952D01*
X353242559Y-96988333D01*
X353194940Y-96893095D01*
X353194940Y-96797857D01*
X353242559Y-96702619D01*
X353290178Y-96655000D01*
X353385416Y-96607380D01*
X353623511Y-96607380D01*
X353766369Y-96655000D01*
X354766369Y-97607380D02*
X354433035Y-97131190D01*
X354194940Y-97607380D02*
X354194940Y-96607380D01*
X354575892Y-96607380D01*
X354671130Y-96655000D01*
X354718750Y-96702619D01*
X354766369Y-96797857D01*
X354766369Y-96940714D01*
X354718750Y-97035952D01*
X354671130Y-97083571D01*
X354575892Y-97131190D01*
X354194940Y-97131190D01*
X295068750Y-97083571D02*
X295830654Y-97083571D01*
X295830654Y-97369285D02*
X295068750Y-97369285D01*
X296306845Y-97226428D02*
X297068750Y-97226428D01*
X296687797Y-97607380D02*
X296687797Y-96845476D01*
X276256845Y-97226428D02*
X277018750Y-97226428D01*
X277256845Y-97702619D02*
X278018750Y-97702619D01*
X257183035Y-96940714D02*
X257897321Y-96940714D01*
X257468750Y-96512142D02*
X257183035Y-97797857D01*
X257802083Y-97369285D02*
X257087797Y-97369285D01*
X257516369Y-97797857D02*
X257802083Y-96512142D01*
X258421130Y-96607380D02*
X258516369Y-96607380D01*
X258611607Y-96655000D01*
X258659226Y-96702619D01*
X258706845Y-96797857D01*
X258754464Y-96988333D01*
X258754464Y-97226428D01*
X258706845Y-97416904D01*
X258659226Y-97512142D01*
X258611607Y-97559761D01*
X258516369Y-97607380D01*
X258421130Y-97607380D01*
X258325892Y-97559761D01*
X258278273Y-97512142D01*
X258230654Y-97416904D01*
X258183035Y-97226428D01*
X258183035Y-96988333D01*
X258230654Y-96797857D01*
X258278273Y-96702619D01*
X258325892Y-96655000D01*
X258421130Y-96607380D01*
X238133035Y-96940714D02*
X238847321Y-96940714D01*
X238418750Y-96512142D02*
X238133035Y-97797857D01*
X238752083Y-97369285D02*
X238037797Y-97369285D01*
X238466369Y-97797857D02*
X238752083Y-96512142D01*
X239228273Y-97607380D02*
X239418750Y-97607380D01*
X239513988Y-97559761D01*
X239561607Y-97512142D01*
X239656845Y-97369285D01*
X239704464Y-97178809D01*
X239704464Y-96797857D01*
X239656845Y-96702619D01*
X239609226Y-96655000D01*
X239513988Y-96607380D01*
X239323511Y-96607380D01*
X239228273Y-96655000D01*
X239180654Y-96702619D01*
X239133035Y-96797857D01*
X239133035Y-97035952D01*
X239180654Y-97131190D01*
X239228273Y-97178809D01*
X239323511Y-97226428D01*
X239513988Y-97226428D01*
X239609226Y-97178809D01*
X239656845Y-97131190D01*
X239704464Y-97035952D01*
X66278273Y-97083571D02*
X66611607Y-97083571D01*
X66754464Y-97607380D02*
X66278273Y-97607380D01*
X66278273Y-96607380D01*
X66754464Y-96607380D01*
X67135416Y-97559761D02*
X67278273Y-97607380D01*
X67516369Y-97607380D01*
X67611607Y-97559761D01*
X67659226Y-97512142D01*
X67706845Y-97416904D01*
X67706845Y-97321666D01*
X67659226Y-97226428D01*
X67611607Y-97178809D01*
X67516369Y-97131190D01*
X67325892Y-97083571D01*
X67230654Y-97035952D01*
X67183035Y-96988333D01*
X67135416Y-96893095D01*
X67135416Y-96797857D01*
X67183035Y-96702619D01*
X67230654Y-96655000D01*
X67325892Y-96607380D01*
X67563988Y-96607380D01*
X67706845Y-96655000D01*
X68706845Y-97512142D02*
X68659226Y-97559761D01*
X68516369Y-97607380D01*
X68421130Y-97607380D01*
X68278273Y-97559761D01*
X68183035Y-97464523D01*
X68135416Y-97369285D01*
X68087797Y-97178809D01*
X68087797Y-97035952D01*
X68135416Y-96845476D01*
X68183035Y-96750238D01*
X68278273Y-96655000D01*
X68421130Y-96607380D01*
X68516369Y-96607380D01*
X68659226Y-96655000D01*
X68706845Y-96702619D01*
X85733035Y-96940714D02*
X86447321Y-96940714D01*
X86018750Y-96512142D02*
X85733035Y-97797857D01*
X86352083Y-97369285D02*
X85637797Y-97369285D01*
X86066369Y-97797857D02*
X86352083Y-96512142D01*
X87304464Y-97607380D02*
X86733035Y-97607380D01*
X87018750Y-97607380D02*
X87018750Y-96607380D01*
X86923511Y-96750238D01*
X86828273Y-96845476D01*
X86733035Y-96893095D01*
X104783035Y-96940714D02*
X105497321Y-96940714D01*
X105068750Y-96512142D02*
X104783035Y-97797857D01*
X105402083Y-97369285D02*
X104687797Y-97369285D01*
X105116369Y-97797857D02*
X105402083Y-96512142D01*
X105783035Y-96702619D02*
X105830654Y-96655000D01*
X105925892Y-96607380D01*
X106163988Y-96607380D01*
X106259226Y-96655000D01*
X106306845Y-96702619D01*
X106354464Y-96797857D01*
X106354464Y-96893095D01*
X106306845Y-97035952D01*
X105735416Y-97607380D01*
X106354464Y-97607380D01*
X123833035Y-96940714D02*
X124547321Y-96940714D01*
X124118750Y-96512142D02*
X123833035Y-97797857D01*
X124452083Y-97369285D02*
X123737797Y-97369285D01*
X124166369Y-97797857D02*
X124452083Y-96512142D01*
X124785416Y-96607380D02*
X125404464Y-96607380D01*
X125071130Y-96988333D01*
X125213988Y-96988333D01*
X125309226Y-97035952D01*
X125356845Y-97083571D01*
X125404464Y-97178809D01*
X125404464Y-97416904D01*
X125356845Y-97512142D01*
X125309226Y-97559761D01*
X125213988Y-97607380D01*
X124928273Y-97607380D01*
X124833035Y-97559761D01*
X124785416Y-97512142D01*
X142883035Y-96940714D02*
X143597321Y-96940714D01*
X143168750Y-96512142D02*
X142883035Y-97797857D01*
X143502083Y-97369285D02*
X142787797Y-97369285D01*
X143216369Y-97797857D02*
X143502083Y-96512142D01*
X144359226Y-96940714D02*
X144359226Y-97607380D01*
X144121130Y-96559761D02*
X143883035Y-97274047D01*
X144502083Y-97274047D01*
X161933035Y-96940714D02*
X162647321Y-96940714D01*
X162218750Y-96512142D02*
X161933035Y-97797857D01*
X162552083Y-97369285D02*
X161837797Y-97369285D01*
X162266369Y-97797857D02*
X162552083Y-96512142D01*
X163456845Y-96607380D02*
X162980654Y-96607380D01*
X162933035Y-97083571D01*
X162980654Y-97035952D01*
X163075892Y-96988333D01*
X163313988Y-96988333D01*
X163409226Y-97035952D01*
X163456845Y-97083571D01*
X163504464Y-97178809D01*
X163504464Y-97416904D01*
X163456845Y-97512142D01*
X163409226Y-97559761D01*
X163313988Y-97607380D01*
X163075892Y-97607380D01*
X162980654Y-97559761D01*
X162933035Y-97512142D01*
X180983035Y-96940714D02*
X181697321Y-96940714D01*
X181268750Y-96512142D02*
X180983035Y-97797857D01*
X181602083Y-97369285D02*
X180887797Y-97369285D01*
X181316369Y-97797857D02*
X181602083Y-96512142D01*
X182459226Y-96607380D02*
X182268750Y-96607380D01*
X182173511Y-96655000D01*
X182125892Y-96702619D01*
X182030654Y-96845476D01*
X181983035Y-97035952D01*
X181983035Y-97416904D01*
X182030654Y-97512142D01*
X182078273Y-97559761D01*
X182173511Y-97607380D01*
X182363988Y-97607380D01*
X182459226Y-97559761D01*
X182506845Y-97512142D01*
X182554464Y-97416904D01*
X182554464Y-97178809D01*
X182506845Y-97083571D01*
X182459226Y-97035952D01*
X182363988Y-96988333D01*
X182173511Y-96988333D01*
X182078273Y-97035952D01*
X182030654Y-97083571D01*
X181983035Y-97178809D01*
X200033035Y-96940714D02*
X200747321Y-96940714D01*
X200318750Y-96512142D02*
X200033035Y-97797857D01*
X200652083Y-97369285D02*
X199937797Y-97369285D01*
X200366369Y-97797857D02*
X200652083Y-96512142D01*
X200985416Y-96607380D02*
X201652083Y-96607380D01*
X201223511Y-97607380D01*
X219083035Y-96940714D02*
X219797321Y-96940714D01*
X219368750Y-96512142D02*
X219083035Y-97797857D01*
X219702083Y-97369285D02*
X218987797Y-97369285D01*
X219416369Y-97797857D02*
X219702083Y-96512142D01*
X220273511Y-97035952D02*
X220178273Y-96988333D01*
X220130654Y-96940714D01*
X220083035Y-96845476D01*
X220083035Y-96797857D01*
X220130654Y-96702619D01*
X220178273Y-96655000D01*
X220273511Y-96607380D01*
X220463988Y-96607380D01*
X220559226Y-96655000D01*
X220606845Y-96702619D01*
X220654464Y-96797857D01*
X220654464Y-96845476D01*
X220606845Y-96940714D01*
X220559226Y-96988333D01*
X220463988Y-97035952D01*
X220273511Y-97035952D01*
X220178273Y-97083571D01*
X220130654Y-97131190D01*
X220083035Y-97226428D01*
X220083035Y-97416904D01*
X220130654Y-97512142D01*
X220178273Y-97559761D01*
X220273511Y-97607380D01*
X220463988Y-97607380D01*
X220559226Y-97559761D01*
X220606845Y-97512142D01*
X220654464Y-97416904D01*
X220654464Y-97226428D01*
X220606845Y-97131190D01*
X220559226Y-97083571D01*
X220463988Y-97035952D01*
M02*
