M48
; DRILL file {KiCad (5.1.4)-1} date 5/12/2022 9:48:46 PM
; FORMAT={-:-/ absolute / inch / decimal}
; #@! TF.CreationDate,2022-05-12T21:48:46-04:00
; #@! TF.GenerationSoftware,Kicad,Pcbnew,(5.1.4)-1
; #@! TF.FileFunction,NonPlated,1,2,NPTH
FMAT,2
INCH
T1C0.0689
T2C0.1200
T3C0.1570
%
G90
G05
T1
X12.9562Y-6.375
X13.3562Y-6.375
X3.2062Y-4.125
X3.6062Y-4.125
X7.8937Y-6.375
X8.2937Y-6.375
X4.425Y-7.125
X4.825Y-7.125
X5.8312Y-4.875
X6.2313Y-4.875
X13.7062Y-5.625
X14.1062Y-5.625
X10.05Y-7.125
X10.45Y-7.125
X13.7062Y-4.125
X14.1062Y-4.125
X9.0187Y-5.625
X9.4187Y-5.625
X11.0812Y-4.875
X11.4812Y-4.875
X5.4562Y-4.125
X5.8563Y-4.125
X9.3937Y-6.375
X9.7937Y-6.375
X5.0812Y-4.875
X5.4813Y-4.875
X8.6437Y-6.375
X9.0437Y-6.375
X11.4562Y-4.125
X11.8562Y-4.125
X7.3312Y-4.875
X7.7313Y-4.875
X9.2062Y-4.125
X9.6062Y-4.125
X4.8937Y-6.375
X5.2938Y-6.375
X8.8312Y-4.875
X9.2312Y-4.875
X9.7687Y-5.625
X10.1687Y-5.625
X7.7062Y-4.125
X8.1062Y-4.125
X12.2062Y-7.125
X12.6062Y-7.125
X5.2687Y-5.625
X5.6688Y-5.625
X12.4875Y-5.625
X12.8875Y-5.625
X6.0187Y-5.625
X6.4188Y-5.625
X13.7062Y-4.875
X14.1062Y-4.875
X13.7062Y-7.125
X14.1062Y-7.125
X6.9562Y-4.125
X7.3563Y-4.125
X2.55Y-7.125
X2.95Y-7.125
X4.7062Y-4.125
X5.1063Y-4.125
X2.925Y-6.375
X3.325Y-6.375
X13.7062Y-6.375
X14.1062Y-6.375
X7.5187Y-5.625
X7.9188Y-5.625
X7.2375Y-7.125
X7.6375Y-7.125
X10.3312Y-4.875
X10.7312Y-4.875
X8.4562Y-4.125
X8.8562Y-4.125
X6.3937Y-6.375
X6.7938Y-6.375
X3.5812Y-4.875
X3.9812Y-4.875
X12.7687Y-4.875
X13.1687Y-4.875
X9.9562Y-4.125
X10.3562Y-4.125
X12.5812Y-4.125
X12.9812Y-4.125
X4.5187Y-5.625
X4.9188Y-5.625
X11.2687Y-5.625
X11.6687Y-5.625
X6.2062Y-4.125
X6.6063Y-4.125
X6.7687Y-5.625
X7.1688Y-5.625
X4.1437Y-6.375
X4.5438Y-6.375
X3.7687Y-5.625
X4.1688Y-5.625
X10.8937Y-6.375
X11.2937Y-6.375
X11.925Y-6.375
X12.325Y-6.375
X3.9562Y-4.125
X4.3563Y-4.125
X5.6437Y-6.375
X6.0438Y-6.375
X10.9875Y-7.125
X11.3875Y-7.125
X8.0812Y-4.875
X8.4812Y-4.875
X8.2687Y-5.625
X8.6687Y-5.625
X2.7375Y-5.625
X3.1375Y-5.625
X11.8312Y-4.875
X12.2312Y-4.875
X10.1437Y-6.375
X10.5437Y-6.375
X9.5812Y-4.875
X9.9812Y-4.875
X2.6437Y-4.875
X3.0437Y-4.875
X4.3312Y-4.875
X4.7313Y-4.875
X12.9562Y-7.125
X13.3562Y-7.125
X6.5812Y-4.875
X6.9813Y-4.875
X7.1437Y-6.375
X7.5438Y-6.375
X10.7062Y-4.125
X11.1062Y-4.125
X10.5187Y-5.625
X10.9187Y-5.625
X2.4562Y-4.125
X2.8562Y-4.125
X3.4875Y-7.125
X3.8875Y-7.125
T2
X12.2188Y-5.35
X13.1562Y-5.35
X2.6562Y-6.1
X3.5938Y-6.1
X5.469Y-7.4
X9.406Y-7.4
X12.3125Y-3.85
X13.25Y-3.85
T3
X3.6875Y-7.125
X13.1562Y-6.375
X3.4062Y-4.125
X8.0938Y-6.375
X4.625Y-7.125
X6.0312Y-4.875
X13.9062Y-5.625
X10.25Y-7.125
X13.9062Y-4.125
X9.2188Y-5.625
X11.2812Y-4.875
X5.6562Y-4.125
X9.5938Y-6.375
X5.2812Y-4.875
X8.8438Y-6.375
X11.6562Y-4.125
X7.5312Y-4.875
X9.4062Y-4.125
X5.0938Y-6.375
X9.0312Y-4.875
X9.9688Y-5.625
X7.9062Y-4.125
X12.4062Y-7.125
X5.4688Y-5.625
X12.2188Y-5.95
X12.6875Y-5.625
X13.1562Y-5.95
X6.2188Y-5.625
X13.9062Y-4.875
X13.9062Y-7.125
X7.1562Y-4.125
X2.75Y-7.125
X4.9062Y-4.125
X2.6562Y-6.7
X3.125Y-6.375
X3.5938Y-6.7
X13.9062Y-6.375
X7.7188Y-5.625
X5.469Y-6.8
X7.4375Y-7.125
X9.406Y-6.8
X10.5312Y-4.875
X8.6562Y-4.125
X6.5938Y-6.375
X3.7812Y-4.875
X12.9688Y-4.875
X10.1562Y-4.125
X12.3125Y-4.45
X12.7812Y-4.125
X13.25Y-4.45
X4.7188Y-5.625
X11.4688Y-5.625
X6.4062Y-4.125
X6.9688Y-5.625
X4.3438Y-6.375
X3.9688Y-5.625
X11.0938Y-6.375
X12.125Y-6.375
X4.1562Y-4.125
X5.8438Y-6.375
X11.1875Y-7.125
X8.2812Y-4.875
X8.4688Y-5.625
X2.9375Y-5.625
X12.0312Y-4.875
X10.3438Y-6.375
X9.7812Y-4.875
X2.8438Y-4.875
X4.5312Y-4.875
X13.1562Y-7.125
X6.7812Y-4.875
X7.3438Y-6.375
X10.9062Y-4.125
X10.7188Y-5.625
X2.6562Y-4.125
T0
M30
