M48
; DRILL file {KiCad (5.1.4)-1} date 5/12/2022 9:48:46 PM
; FORMAT={-:-/ absolute / inch / decimal}
; #@! TF.CreationDate,2022-05-12T21:48:46-04:00
; #@! TF.GenerationSoftware,Kicad,Pcbnew,(5.1.4)-1
; #@! TF.FileFunction,Plated,1,2,PTH
FMAT,2
INCH
T1C0.0157
T2C0.0394
T3C0.0579
%
G90
G05
T1
X7.3187Y-6.8525
X7.465Y-7.44
X7.4688Y-6.5
X7.55Y-7.3581
X7.5938Y-6.5
X7.75Y-7.39
X7.8134Y-7.2036
X7.8161Y-6.4964
X7.8309Y-7.4283
X7.8487Y-7.0975
X7.8687Y-7.4175
X7.9028Y-7.3978
X7.9126Y-7.0339
X7.925Y-4.9625
X7.9406Y-7.3824
X7.9437Y-6.7825
X7.9437Y-7.2125
X7.9672Y-4.9607
X7.982Y-7.3645
X8.0065Y-4.9626
X8.0459Y-4.9625
X8.15Y-6.7258
X8.1538Y-6.5286
X8.1837Y-6.6775
X8.2261Y-6.6804
X8.2812Y-6.4964
X8.3138Y-6.7225
X8.3605Y-6.6628
X8.4015Y-6.5302
X8.4729Y-7.4052
X8.4938Y-7.3675
X8.508Y-7.437
X8.5416Y-7.4575
X8.634Y-6.7888
X8.6387Y-6.8375
X8.8088Y-6.6666
X8.8125Y-6.625
X9.2066Y-7.3754
X9.224Y-7.3327
X9.2437Y-7.2925
X9.2637Y-7.2525
X9.3437Y-7.4754
X9.4938Y-6.6475
X9.5587Y-7.0275
X13.0625Y-5.75
X13.5312Y-7.25
X13.546Y-6.5
X13.75Y-5.75
X13.7526Y-6.5
X14.1562Y-7.25
T2
X9.7338Y-6.5925
X9.7338Y-6.6925
X9.7338Y-6.7925
X9.8338Y-6.5925
X9.8338Y-6.6925
X9.8338Y-6.7925
T3
X2.6938Y-4.775
X2.9438Y-4.675
X4.3812Y-4.775
X4.6312Y-4.675
X13.0062Y-7.025
X13.2562Y-6.925
X6.6312Y-4.775
X6.8812Y-4.675
X7.1937Y-6.275
X7.4437Y-6.175
X10.7562Y-4.025
X11.0062Y-3.925
X10.5687Y-5.525
X10.8187Y-5.425
X2.5063Y-4.025
X2.7563Y-3.925
X3.5375Y-7.025
X3.7875Y-6.925
X13.0062Y-6.275
X13.2562Y-6.175
X3.2563Y-4.025
X3.5063Y-3.925
X7.9437Y-6.275
X8.1937Y-6.175
X4.475Y-7.025
X4.725Y-6.925
X5.8812Y-4.775
X6.1312Y-4.675
X13.7562Y-5.525
X14.0062Y-5.425
X10.1Y-7.025
X10.35Y-6.925
X13.7562Y-4.025
X14.0062Y-3.925
X9.0687Y-5.525
X9.3187Y-5.425
X11.1312Y-4.775
X11.3812Y-4.675
X5.5062Y-4.025
X5.7562Y-3.925
X9.4437Y-6.275
X9.6937Y-6.175
X5.1312Y-4.775
X5.3812Y-4.675
X8.6937Y-6.275
X8.9437Y-6.175
X11.5062Y-4.025
X11.7562Y-3.925
X7.3812Y-4.775
X7.6312Y-4.675
X9.2562Y-4.025
X9.5062Y-3.925
X4.9437Y-6.275
X5.1937Y-6.175
X8.8812Y-4.775
X9.1312Y-4.675
X9.8187Y-5.525
X10.0687Y-5.425
X7.7562Y-4.025
X8.0062Y-3.925
X12.2562Y-7.025
X12.5062Y-6.925
X5.3187Y-5.525
X5.5687Y-5.425
X12.5375Y-5.525
X12.7875Y-5.425
X6.0687Y-5.525
X6.3187Y-5.425
X13.7562Y-4.775
X14.0062Y-4.675
X13.7562Y-7.025
X14.0062Y-6.925
X7.0062Y-4.025
X7.2562Y-3.925
X2.6Y-7.025
X2.85Y-6.925
X4.7562Y-4.025
X5.0062Y-3.925
X2.975Y-6.275
X3.225Y-6.175
X13.7562Y-6.275
X14.0062Y-6.175
X7.5687Y-5.525
X7.8187Y-5.425
X7.2875Y-7.025
X7.5375Y-6.925
X10.3812Y-4.775
X10.6312Y-4.675
X8.5062Y-4.025
X8.7562Y-3.925
X6.4437Y-6.275
X6.6937Y-6.175
X3.6313Y-4.775
X3.8813Y-4.675
X12.8187Y-4.775
X13.0687Y-4.675
X10.0062Y-4.025
X10.2562Y-3.925
X12.6312Y-4.025
X12.8812Y-3.925
X4.5687Y-5.525
X4.8187Y-5.425
X11.3187Y-5.525
X11.5687Y-5.425
X6.2562Y-4.025
X6.5062Y-3.925
X6.8187Y-5.525
X7.0687Y-5.425
X4.1937Y-6.275
X4.4437Y-6.175
X3.8188Y-5.525
X4.0687Y-5.425
X10.9437Y-6.275
X11.1937Y-6.175
X11.975Y-6.275
X12.225Y-6.175
X4.0062Y-4.025
X4.2562Y-3.925
X5.6937Y-6.275
X5.9437Y-6.175
X11.0375Y-7.025
X11.2875Y-6.925
X8.1312Y-4.775
X8.3812Y-4.675
X8.3187Y-5.525
X8.5687Y-5.425
X2.7875Y-5.525
X3.0375Y-5.425
X11.8812Y-4.775
X12.1312Y-4.675
X10.1937Y-6.275
X10.4437Y-6.175
X9.6312Y-4.775
X9.8812Y-4.675
T0
M30
